<svg id="Layer_1" data-name="Layer 1" xmlns="http://www.w3.org/2000/svg" viewBox="0 0 383.96 110.75" style=""><defs><style>.cls-1{fill:#fff;stroke-width:0.75px;}.cls-1,.cls-2{stroke:#000;stroke-miterlimit:10;}.cls-2{fill:none;stroke-width:0.5px;}</style></defs><title>button_outline</title><path class="cls-1 YHGxqeEA_0" d="M871.86,446.08H699.14c-4.8,0-5.89-1.1-5.89-5.95V341.87c0-4.57,1.17-5.78,5.56-5.78h345.92c4.29,0,5.52,1.24,5.52,5.56v98.78c0,4.47-1.19,5.65-5.68,5.65Zm39.95-52.72-1.26,0c-.41-1.15-.9-2.27-1.21-3.45-.48-1.88-.74-3.82-1.26-5.69s-2-1.95-3.41-1.57c-.35.09-.79,1.22-.64,1.68,1.3,3.91,2.67,7.8,4.15,11.64a11.31,11.31,0,0,0,1.84,2.48,11.54,11.54,0,0,0,2.1-2.52c.94-2.19,1.62-4.5,2.66-7.46,1,3.05,1.61,5.39,2.5,7.61.36.88,1.31,1.52,2,2.26.63-.71,1.51-1.31,1.84-2.14,1.54-3.92,2.9-7.9,4.38-11.84.48-1.26,0-1.79-1.16-1.84-1.45-.05-1.91.76-2.13,2.19-.45,2.91-1.2,5.76-1.82,8.64h-1.31c-.62-2.72-1.43-5.41-1.8-8.16-.25-1.94-1.19-2.42-2.81-2.34s-1.74,1.19-1.79,2.64C912.58,388.15,912.12,390.75,911.81,393.36Zm-113.15-4.77-.95.12-3.41.32c0-1.27-.41-2.8.15-3.74.41-.71,2.08-.9,3.17-.86s2.16.64,4.07,1.28c-.8-1.49-1.22-3-1.73-3.07-3.55-.22-7.13-.12-11-.12,2.45,3.25,2.43,12.72.05,16.43,4,0,7.75.12,11.47-.13.59,0,1.06-1.77,1.88-3.25-2.26.75-3.63,1.47-5.05,1.59-1,.1-2.88-.32-3.1-1-.43-1.28,0-2.86.08-4.32l3.41.51,1,.1Zm81.15,10.67,3.35-.21c-.29-2.2-.67-3.95-.73-5.71-.23-5.83-1.2-6.61-6.6-5.08-.11,0-.28-.12-.59-.27a32.87,32.87,0,0,0,0-3.43c-.12-1-.19-2.54-.81-2.9s-2.06.1-2.75.18a31.43,31.43,0,0,1,0,17h4a53.92,53.92,0,0,1-.2-7.2c.09-.87,1.4-1.62,2.15-2.42.74.87,2,1.67,2.13,2.63A55.73,55.73,0,0,1,879.81,399.26Zm69.82-17.09c.43,1.72.84,3.4,1.33,5.37-1.42,0-2.24-.06-3.05,0a5.41,5.41,0,0,0-5.11,4.73c-.51,3.09.58,6.41,2.73,6.68,2.88.35,5.85-.11,8.78-.24.08,0,.14-.25-.08.19a27.64,27.64,0,0,1-.89-4.26c-.13-3.31-.09-6.62-.1-9.92C953.22,381.15,952.65,380.79,949.63,382.17Zm-90.39,16.77h6.19a17.05,17.05,0,0,1-1.46-3.81,31.86,31.86,0,0,1-.07-6.1,39.7,39.7,0,0,1,.88-4.78l4.56,1.7c1-2.58.48-3.53-2.41-3.54h-8.5c-3.34,0-3.74.6-2.68,4.23a17.22,17.22,0,0,1,2.21-2c1-.65,2.6-1.14,2.76.57C861.14,389.71,862,394.38,859.24,398.94Zm-51-.13a42,42,0,0,1-.18-7.12c.13-.95,1.69-1.7,2.6-2.54.64.87,1.72,1.68,1.83,2.61a65.18,65.18,0,0,1,.09,7.34l3.58-.21c-.33-1.74-.65-3.2-.87-4.67-.11-.74,0-1.52,0-2.28-.24-4.13-2.18-5.38-6-3.92a4.45,4.45,0,0,1-1.75.12c-1.17-.07-2.33-.19-3.93-.33a10.24,10.24,0,0,1,.07,11Zm87.11-2.27a8.4,8.4,0,0,1-2.48.79,10.71,10.71,0,0,1-3.63-.86,2.2,2.2,0,0,1-.8-1.93c.1-.47,1-1,1.65-1.08a25,25,0,0,1,3.47-.33c1.73-.13,2.59-1.15,1.75-2.68a6.14,6.14,0,0,0-3-2.85,5,5,0,0,0-6,2.47,7.27,7.27,0,0,0,.37,7.44C888.83,400.27,893.84,400,895.31,396.54Zm-58.59.06a21,21,0,0,1-3.1,1c-1.58.27-4-1.43-3.59-2.65.26-.79,1.75-1.2,2.74-1.67.42-.19,1,0,1.47-.13,1-.37,2-.87,2.94-1.32-.72-1.32-1.14-3.13-2.24-3.86-2.54-1.68-6-.26-7.3,2.62-1.48,3.17-.33,7.07,2.45,8.31S836,399.18,836.72,396.6Zm99-14.86a31.29,31.29,0,0,1,0,17.17h4.85c-2.37-5.8-.32-11.75-1.45-17.61ZM825.51,397.89c-1.24-.71-2.75-1.06-3-1.86a8,8,0,0,1-.14-4.5c.35-1.29,1.48-2.36,2.33-3.62-.45-.28-1.77-.62-2-1.32-1.47-4.5-2.14-1.31-3.08.23a10.76,10.76,0,0,1-1.3,1.49H819c.23,2.61.27,5.26.75,7.83a4.54,4.54,0,0,0,2.08,3A2.69,2.69,0,0,0,825.51,397.89ZM844.57,399c-.44-2.2-1.08-4-1.07-5.82s.46-3.89,3.28-2.95c.35.11,1-.55,1.43-.85-.38-.57-.66-1.45-1.17-1.61s-1.39.26-2.12.36a8,8,0,0,1-1.69.07c-1.27-.11-2.55-.27-4.21-.45a10.48,10.48,0,0,1,.33,11.25Zm88.93,0c-3-3.62-.89-7.75-2.06-11.64l-3.94.75c2.32,2.67,2.37,7.07.38,10.89Zm-3-17.57c-.79,1-1.6,1.59-1.68,2.27,0,.45,1,1.5,1.45,1.44a2.66,2.66,0,0,0,1.77-1.5C932.23,383.25,931.32,382.47,930.55,381.42Z" transform="translate(-677.79 -335.71)"></path><path class="cls-1 YHGxqeEA_1" d="M951.14,393a4.21,4.21,0,0,1,0,.5c-.15,1.8.19,4-2.43,4.2-1.74.16-3-1.8-2.88-4.49a4.63,4.63,0,0,1,.62-2.63c.68-.77,1.9-1.65,2.73-1.51s1.38,1.51,1.91,2.43c.21.38,0,1,0,1.5Z" transform="translate(-677.79 -335.71)"></path><path class="cls-1 YHGxqeEA_2" d="M887.26,392.11a20.65,20.65,0,0,1,2.69-3.17c.36-.27,1.44.1,1.94.5a2.07,2.07,0,0,1,.63,1.73c-.1.41-.92.81-1.48.9A30.79,30.79,0,0,1,887.26,392.11Z" transform="translate(-677.79 -335.71)"></path><path class="cls-1 YHGxqeEA_3" d="M829.21,392.14a18.14,18.14,0,0,1,2.73-3.15c.38-.26,1.51.25,2.06.71a2.11,2.11,0,0,1,.48,1.75c-.07.32-.9.61-1.42.66C832.1,392.22,831.12,392.14,829.21,392.14Z" transform="translate(-677.79 -335.71)"></path><path class="cls-2 YHGxqeEA_4" d="M1059,423.84l-.25-.33-8.34,6c-.06-.59-.26-1.1-.11-1.47,2.83-7.46,7-14.16,11.28-20.82a103.07,103.07,0,0,0-6,8.7c-1.87,3.07-3.51,6.27-5.23,9.38q-.85-4-1.71-7.92l-.44.1c.28,1.2.56,2.4.85,3.6.21.86.25,1.66-.64,2.17.31.16.9.31.9.49.08,1.84.55,3.63-.51,5.5s-1.37,3.86-3.07,5.28l-3.37-2.6c.32,2.27,2.81,4,.69,6.71-.54-1.28-1-2.24-1.38-3.26-.84-2.54.2-4.52,1.88-6.31a3.8,3.8,0,0,0,.5-.91l-2.57,2.48c0-2.94-.15-5.79,0-8.61s.72-5.67,1.09-8.5l-.17,0q-1.11,3.91-2.2,7.83l.11.12c.12.12.25.25.24.36-.16,2-.39,4.06-.53,6.1-.09,1.24,0,2.49-.09,3.74,0,.61-.12,1.22-.2,2-2.65-1.3-2-3.27-1.57-5,.49-2.22,1.23-4.39,1.87-6.58-.18.2-.43.38-.51.61-.58,1.78-1.12,3.58-1.69,5.36-.15.46-.36.9-.57,1.4-.39-.95-.76-1.69-1-2.46-.37-1.14-.76-2.26-.12-3.5a18.51,18.51,0,0,0,1.72-10.11c-.06-.82,0-1.66,0-2.63l-5.92,6.76c-4.95-8.35-11.25-15.49-18-22.28,2.92,3.9,6.05,7.64,8.88,11.6s5.34,8.16,8,12.22l-2.57,3.39c-2.07-2.2-2.22-2.48-2-3.07-2.84-2.2-4.61-5.3-7.19-7.54,1.1,1.52,2.2,3.05,3.32,4.56.72,1,1.49,1.92,2.17,2.92.16.24,0,.68,0,1l0,0h0l0,.06c.3.1.72.11.9.33a12.48,12.48,0,0,1,1.54,2.23,2.06,2.06,0,0,1,.1,1.54c-.39.91-1,1.72-1.47,2.59s-.84,1.68-1.37,2.73c-1-2.43-1.77-4.7-1.53-7.13.07-.63.9-1.18,1.38-1.77l.45-.52h0c-1.17.84-2.32,1.71-3.51,2.52a3.58,3.58,0,0,1-1.07.28l-.11-.33-.45.83,0-.17c-.51.77-1,1.54-1.54,2.32l-.38-.19c-.53-2.15-1.05-4.3-1.58-6.44-.07-.27-.16-.54-.22-.81-.24-1-1-2.39-.58-3.08a6.68,6.68,0,0,1,.71-1.05,22.64,22.64,0,0,1,1.78-1.9c.31-.3.62-.61.91-.93,0-.27,0-.55-.08-.81-.12,0-.25-.06-.29,0l-3.69,4.07c-.3-.91-.5-1.64-.77-2.32s-.64-1.35-1-2a1.47,1.47,0,0,0,0,1.2c.84,2,1.92,4-.44,5.92a17.75,17.75,0,0,0-2.55,3.3c-2.4-2.78-4.72-5.43-7-8.12-.2-.24-.13-.72-.19-1.09-.51-.11-1-.47-1-.81a13.27,13.27,0,0,1,.46-2.29c.28-1.47.55-2.95.82-4.43-.65,1.56-1,3.18-1.49,4.76a5.37,5.37,0,0,1-.9,1.4c.05.93.1,1.88.15,3l-1.26-.56-.09.15.65.71-6.16,4.91c-.06-.64-.1-1-.14-1.44h-.17c-.06.61-.12,1.22-.18,1.85-2.33-.43-1.54-2.87-2.53-4.09v2.21l-2.32-.91,2.91-3.77-.32-.28-3.07,3.46a4.58,4.58,0,0,1-2.71-3.14c-.65-2.32-.6-2.44,1.4-3.82q4.3-3,8.63-5.9l-.14-.24-10.36,6.42-1-1.89a4.49,4.49,0,0,0,.07,1A1.61,1.61,0,0,1,983,410a51.67,51.67,0,0,0-4.3,3.07c-1.61,1.22-3.18,2.5-4.76,3.76l-.39-.22,1.71-5-.25-.1c-.37.8-.75,1.59-1.23,2.62-.37-2.63-.63-5-1.05-7.34-.25-1.33.19-2.72-.65-4.06a2,2,0,0,1,.47-2.73,4.11,4.11,0,0,0,.75-1l-.17-.17-1.32,1.1c-1-3.56-2-7-3-10.45l-.42.11c.22.87.46,1.74.67,2.62.61,2.59,1.25,5.19,1.78,7.8a2.24,2.24,0,0,1-.37,1.66c-1.21,1.46-2.64,2.74-3.8,4.24-2.61,3.35-5.12,6.79-7.64,10.21-.82,1.12-1.54,2.31-2.44,3.67a36.13,36.13,0,0,0-2.85-4.47,2.58,2.58,0,0,1-.4-2.69c.78-2.78,1.58-5.56,2.49-8.3.64-1.93,1.48-3.8,2.22-5.7.33-.86.62-1.74.93-2.61l-.55-.18c-2.11,5.66-4.22,11.32-6.36,17-1.88-2.26-3.55-4.34-5.32-6.34-.48-.54-.56-.75,0-1.3,1.06-1.15,2-2.4,3-3.6a10,10,0,0,0-2.47,2c-1.57,1.63-1.55,1.63-3,0-.66-.71-1.37-1.37-2.06-2a15.44,15.44,0,0,0,2.51,3.55c.59.63.54.91-.07,1.53-1.13,1.17-2.09,2.5-3.12,3.78-.47.59-.9,1-1.65.28a16.47,16.47,0,0,0-2.07-1.42,14.61,14.61,0,0,0,2.18,2c.15.14.09.7,0,1s-.51.12-.52.13c-.57,1-1.14,2.06-1.76,3.2-1-1.33-1.9-2.36-2.63-3.5a2,2,0,0,1-.13-1.63c1-1.92,2.16-3.77,3.23-5.66.44-.8.79-1.66,1.19-2.49l-.46-.33-6.16,6.86-8.32-9.26-.73.32c2.34,1.22,1.77,3,1.63,4.87a37.93,37.93,0,0,0,.43,5.8,13.67,13.67,0,0,0,1.59,5.32A5.28,5.28,0,0,1,928,419a31.47,31.47,0,0,1-2,5.1c-.16-.2-.39-.36-.44-.57-.32-1.15-.51-2.35-.91-3.47-1-3-2.3-5.85-3.26-8.83-.79-2.44-1.3-5-1.92-7.48-.17-.69-.3-1.39-.44-2.09a1.12,1.12,0,0,0-.32.91c.3,1.87.72,3.72.92,5.59.35,3.31.58,6.64.86,10a1.78,1.78,0,0,0,0,.52c.22.47.48.93.72,1.4l-.32.1-6-3.36c1.3.94,2.62,1.87,3.91,2.85a3,3,0,0,1,.49.51c.16.19.3.39.46.57h0l0,0h0s0,0,0,.06l1.25.78c-.28.41-.55.82-.83,1.22h0l0,0a6.55,6.55,0,0,1,.7.47.29.29,0,0,1,.11.18,15.13,15.13,0,0,1,0,2.24,4.1,4.1,0,0,1-1.11-.54c-.79-.58-.68-1.35.27-2.35h0l0,0c-.84-.36-.56-1-.44-1.52a1.63,1.63,0,0,0,0-.49h0l-.58,2.24c-.07.29-.15.59-.24.91-1.42-1.55-2.63-3-3.94-4.28-.83-.84-1.79-1.55-2.69-2.32,1.64,1.86,3.31,3.69,4.88,5.6a1.28,1.28,0,0,1,.21.38c.15.42.17.94.28,1.39l.05,0-.05,0q.54-.3.78-.15a.46.46,0,0,1,.17.28,1.78,1.78,0,0,1,0,.49l-.43,5.41a4.2,4.2,0,0,1-2.19-2.72c-.72-1.86.53-2.51,1.64-3.31h0l-3.7,1.86c-.06-.32-.15-.73-.29-1.43-.21.54-.31.81-.41,1.08-2.68-1.43-3.4-6.11-2.27-9.91l.77.49-.64-1c-.28-.48-.67-1,.39-.9a21.53,21.53,0,0,1,.07-2.9c.25-1.58.66-3.14,1-4.72l-.36-.08c-.69,2.62-1.37,5.24-2.09,8,.8,1.31-.43,2.68-.4,4.37-2.41-4.31-4.78-8.36-7-12.51-1.56-3-7-10.64-8.16-11.21,1.4,2.09,2.81,4.13,4.16,6.21s2.56,4,3.73,6a78.16,78.16,0,0,1,3.88,7.35A29.72,29.72,0,0,1,908,421c.15.71-1,1.46-1.55,1.09-2.13-1.53-4.24-3.09-6.39-4.66l.68-1.22-.28-.15-.73,1.11-3.93-2h0l1.7,1.23,1.8,1.31-4.88,7.69-.47-1.53c-1.13.76-1.64-.66-2.39-1.15s-.65-1.48-.14-2.22c1.18-1.71,2.4-3.39,3.64-5.06.14-.17.49-.18.74-.27h0l0,0h0l0,0,1.35-2.48a64.08,64.08,0,0,0-10.7,13.38c-1.28-2.65.67-4.88,0-7.14L885.21,424l-1.41-1.19c0,.05,0,.1,0,.13,1.49,1.64.53,3.25,0,4.86-.69-.62-1.53-4.38-1.08-5.08.09-.14.47-.08.72-.12a11.65,11.65,0,0,0-.3-1.3,6,6,0,0,1-.23-4h-.15s-.09,0-.11,0c-1.3,1.48-2.69,2.89-3.85,4.48-.71,1-1.06.5-1.44-.1-.5-.76-.82-1.65-1.37-2.36-.67-.88-1.37-1.64-.27-2.68l-1.06.66-6-7.35.42-.39c-2.16-.25-2.57-2.81-4.7-3.68l3.16,3.9-1.3,1.55,1.85-.94,5.53,7.69-3.23,2.66-1.19-1-.2.12.8,1.3-1.13,1-1.46-1.06a2.64,2.64,0,0,1,.43,1.55c-.17.8-1.13,1.43-2,2.39l-2.73-7.54-.2,0c.23,1,.42,2,.69,2.93.44,1.48,1,2.94,1.37,4.43a1.28,1.28,0,0,1-.29,1.11c-.8.66-1.71,1.19-2.57,1.77l-6.42-8.45,10.71-8c-.5.23-1,.42-1.52.66a4.09,4.09,0,0,0-.68.38c-2.72,1.82-5.38,3.72-8.08,5.57a15.17,15.17,0,0,1-1.38.75l-.2-.32.77-1-1.64.61c.52-2.31.65-4.41,1.45-6.19,1.65-3.63,3.57-7.16,5.57-10.61,1.74-3,3.74-5.86,5.64-8.78,1.05-1.61,2.12-3.21,3.18-4.82l-.42-.29c-3.09,4.5-6.38,8.89-9.24,13.54s-5.3,9.58-8.11,14.71a67.51,67.51,0,0,0-3.27-15.55c-.12.57-.23.79-.18,1,.35,1.47.83,2.91,1.07,4.4s.3,3.09.43,4.65c.8.17.88.46.34,1.11-.39.46-.75.95-1.12,1.43.4-.27.81-.53,1.22-.79,1.25,3.06,1.15,8.93-2.63,11.41-.1-.36-.19-.68-.31-1.09-.08.53-.15,1-.27,1.83a4.9,4.9,0,0,0-.44-.54,5.16,5.16,0,0,0-.42-.4c-.11-.1-.23-.19-.35-.28l-.08-.06a2.68,2.68,0,0,0-.28-.18l-.17-.11-.23-.14-.23-.12-.16-.09-1.07-.52-.16-.08h0l-.44-.23c.82.78,1.93,1.4,1.82,2.68a2.87,2.87,0,0,1-.13.59l.87-1.09a5.65,5.65,0,0,1,.8.67,4.56,4.56,0,0,1-1.57,1.66l-.06-1.28a9.06,9.06,0,0,1-.76,2.08,4.37,4.37,0,0,1-.66.89,4,4,0,0,1-1,.74,4.62,4.62,0,0,1-.26-.86c-.14-1.72-.31-3.44-.36-5.17,0-.38.37-.78.58-1.17a9,9,0,0,1,.93-1.7c1.56-1.79,3.2-3.52,4.78-5.3a3.36,3.36,0,0,0,.43-1q-3.13,3.3-6.29,6.58a10.35,10.35,0,0,1-.82.66c-.3-1.36-.54-2.5-.83-3.86l6.76-4.82a2.5,2.5,0,0,0-.75.19c-1.78,1.11-3.52,2.28-5.31,3.36a5.22,5.22,0,0,1-1.6.37,28.29,28.29,0,0,1-.22-3.78c.18-2.36.52-4.7.8-7.06.07-.6.08-1.21.2-1.81.42-2.14.87-4.28,1.29-6.43a2.3,2.3,0,0,0-.12-.71c-.75,2.12-1.16,4.27-1.77,6.36s-1.45,4.21-2.17,6.32-1.39,4.16-2.07,6.25-1.29,4-2,6.35a32.69,32.69,0,0,0-1.51-4.13,4.61,4.61,0,0,1,0-4.78,16.91,16.91,0,0,0,1.94-5.88c.33-3.28.1-6.61.15-9.93a2.49,2.49,0,0,1,.44-1.35c.71-.95,1.51-1.82,2.28-2.72l-.39-.35-10.54,11.78c-2-3.1-3.94-6.14-6-9s-4.3-5.69-6.56-8.44-4.66-5.55-7.13-8.2-4.93-5-7.41-7.45a1.1,1.1,0,0,0,.26.67c2,2.35,4,4.63,6,7Q810,384.68,815,391.37a11.41,11.41,0,0,1,1.13,2.78l.06,0h0l0,.05c1-.31,1.08.69,1.38,1.17,2.13,3.46,4.19,7,6.25,10.47a.87.87,0,0,1-.08.73c-1.09,1.49-2.21,2.95-3.34,4.45-1.33-1.33-1.48-3.45-3.4-4.28l1.16-1-.09-.19-1.27.61-4.65-5.32c-.55-.63-.3-1.1.18-1.68,1.32-1.61,2.58-3.27,3.86-4.91h0v0a4.12,4.12,0,0,0-.76.53c-1.46,1.52-2.89,3.07-4.25,4.52l-5.58-5.42c1.1,1.61,2.36,3.08,3.58,4.58s1.3,1.65,0,3.21c-1.74,2.07-3.47,4.16-5.34,6.4-2.41-6.5-4.76-12.88-7.12-19.26l-.61.23c.22.57.45,1.13.66,1.71.74,2.06,1.53,4.11,2.18,6.2q1.81,5.85,3.46,11.75a2.66,2.66,0,0,1-.28,1.85c-1.07,1.77-2.26,3.45-3.44,5.23-1.65-2.57-3.07-5.18-4.84-7.49-2.9-3.77-5.91-7.48-9.12-11-1.68-1.82-2.81-3.44-1.9-6,.56-1.59.92-3.26,1.33-4.9s.85-3.5,1.27-5.25l-.44-.12c-1.19,4.11-2.38,8.22-3.59,12.42l-1.91-1.77-.46.23c2.3,1.4,2.5,3.29,1.62,5.58l-2.27-1.83c-.06.32,0,.53.12.62,1.65,1.13,2.84,2.42,1.67,4.61-.06.11,0,.28,0,.42l-.87,7.71-.24.08L777,404.93c.32,2.51,2.05,4.65,2,7.3-3.8-2.77-7.45-5.42-11.06-8.13a1.79,1.79,0,0,1-.38-1.31,26,26,0,0,1,.36-2.61h-.1l-1.06,3-10.21-6.35-.19.31c.25.19.49.39.74.57,2.82,1.92,5.65,3.81,8.44,5.77.42.29,1,.91.93,1.28-.2,1.26-.68,2.47-1,3.71-.26,1.05-.79,1.2-1.64.69-.06,0-.17,0-.29.07l.55.74c-.72.61-1.21.62-1.84-.13-1.11-1.33-2.36-2.55-3.55-3.82l-.3.27,4,4.91-2.52,1.53a10.75,10.75,0,0,0-.21-1.51,7,7,0,0,0-.56-1.09c.14,3-.16,3.68-1.95,4.27v-3.82H757c-.27,1-.54,2.11-.81,3.21a.81.81,0,0,1-.28-.09c-2-1.58-4-3.15-5.93-4.79-.25-.22-.2-.82-.29-1.27l-.84.28-.42-3.27c-.81-1.05-.88-2.85-1.33-4.53s-1-3.26-1.56-4.89a41.22,41.22,0,0,0,1,5.45,12.35,12.35,0,0,1,.57,2.1c0,1.2.94,2.49-.19,3.76l-2.77-1.93a6.27,6.27,0,0,0,1.7,1.67c.75.48.59.91.09,1.44-.75.79-1.52,1.57-2.22,2.4-1.85,2.19-3.66,4.41-5.48,6.6-1.44-1.83-2.76-3.67-4.26-5.35-.79-.87-.63-1.47-.22-2.42.83-2,1.47-4,2.19-6l-.34-.15c-1,2.29-1.91,4.57-2.9,6.95l-4.57-5-.26.27.47.66-8.29,9.27-1.57-1-.09.16,1.52,1.36c-.53.64-1,1.22-1.51,1.81-1.27,1.55-1.33,1.6-2.41.06a6,6,0,0,1-1.22-2.73c-.06-.69.62-1.48,1.05-2.17,2-3.16,3.81-6.41,6-9.41,3.23-4.42,6.71-8.64,10.09-12.95.93-1.18,1.88-2.36,2.82-3.53a9.37,9.37,0,0,0-2.11,1.9l-8.55,9.49a85.37,85.37,0,0,0-10.49,14.34c-.43.75-.89.72-1.4.06s-1.12-1.43-1.72-2.11a44.29,44.29,0,0,1-3.14-3.57,6.45,6.45,0,0,0-2.29-2c2.13,1.49,1.32,3.61,1.3,5.54a20.11,20.11,0,0,0,2,10.09,3.42,3.42,0,0,1,.13,2.28c-.4,1.44-1,2.81-1.64,4.43-.45-1.74-.78-3.22-1.22-4.67-.35-1.12-.83-2.2-1.25-3.3a55.28,55.28,0,0,1-2-5.24c-.68-2.4-1.11-4.86-1.65-7.3l-.41.07a77.26,77.26,0,0,1,2,21.89c-1-1.14-1.79-2.15-2.68-3.07s-1.85-1.76-2.78-2.64c1.62,2,3.25,4,4.86,6,.24.3.59.69.57,1-.13,2.51.17,5.17-2.2,7.13-1.91-2.71.53-4.71,1.17-7.4l-3.94,3.1c-2.34-2.3-3.4-5.36-4.16-8.43-.35-1.39.4-3.07.65-4.62a4.08,4.08,0,0,1-.24-1.34c.32-2,.71-4,1.11-6a11,11,0,0,1,.49-1.43l-.56-.15c-.8,3.92-1.61,7.83-2.38,11.56-2.12-3.75-4.31-7.58-6.46-11.44A72.16,72.16,0,0,0,678,399.82c1.12,1.88,2.36,3.67,3.51,5.52,1.94,3.11,3.89,6.21,5.72,9.38a49.76,49.76,0,0,1,3.33,6.55c.66,1.67,2.34,3.2,1.2,5.26l-11.22-7.87-.23.33c.48.34,1,.65,1.42,1,3.17,2.5,6.35,5,9.5,7.53a1.71,1.71,0,0,1,.56,1.15c.21,5,.38,10,.54,15,.08,2.18.34,2.44,2.48,2.44h353.34a15,15,0,0,0,1.88-.21c0-.35.1-.58.11-.81.09-4.4.21-8.79.23-13.19a2.3,2.3,0,0,1,.87-2l6.41-5.06C1058.07,424.47,1058.51,424.16,1059,423.84ZM693.13,439.39c-.9-3.21-.39-6.67-.53-10.1l.49-.21,2.85,4.75Zm11,.41c-1.23-.45-1.9-1.1-1.52-2.47.24-.83.33-1.71.62-2.52a15.3,15.3,0,0,1,1-2l.53.1C705.52,435.25,704.27,437.44,704.13,439.8Zm.2-8.33a5.3,5.3,0,0,1-.44-1.19c-.22-4.22-.41-8.44-.61-12.84.52,1.36,1.07,2.58,1.44,3.85.61,2.11,1.08,4.26,1.67,6.38C706.9,429.51,705.58,430.3,704.33,431.47Zm126-31.68a32.29,32.29,0,0,0,2.89-3.49,37,37,0,0,1-.63,9.85,5.29,5.29,0,0,1-2.1,3.53,2.37,2.37,0,0,1-.49.23,18.55,18.55,0,0,0-.73-3.14C828.18,404.18,828,401.86,830.33,399.79ZM829,409.51c-1.87-3.24-1.87-3.24-.56-3.87C828.62,406.94,828.81,408.22,829,409.51Zm-3.2,8.2h0l.53,1.06c-.21.27-.46.61-.92,1.24a2,2,0,0,0-.21-.75c0-.09-.09-.17-.13-.26a2.85,2.85,0,0,1-.18-.41.39.39,0,0,1,0-.14c-.05-.32.14-.58.94-.74l0-.05h0c-.13-1.08.68-1.51,1.34-2l.27-.23s.76.42.77.65a1.92,1.92,0,0,1-2.38,1.63Zm.39,9.63-.3.27c-.58-.46-1.34-.83-1.67-1.44-.18-.33.36-1.07.57-1.63l.45,0Zm1.45-23.77c1.44,1.15-.18,1.64-.39,2.68C826,404.89,827.09,404.33,827.63,403.57Zm-1.18,8.16a1.15,1.15,0,0,1-.16.92c-.84,1.06-1.74,2.06-2.7,3.18l-1.13-1.44,2.94-4.85A20.16,20.16,0,0,1,826.45,411.73Zm-3,11.09c-1.41,1.62-2.58,3.46-3.85,5.21.57-2.87,2.11-5.26,3.81-7.81C824.06,421.26,824.31,421.87,823.49,422.82Zm1.14-14.69c.48.92-1.17,4.11-2.73,5.26C821.54,412.48,823.06,409.56,824.63,408.13Zm-18.94-.24c1.33-1.93,2.77-3.77,4.17-5.65.33-.43.69-.83,1.15-1.39,1.43,1.85,2.79,3.55,4.07,5.29.21.29.29,1.05.12,1.19-.79.62-1.45,1.75-2.75,1.11a1.55,1.55,0,0,0-.29,0c-.15,2-1.78,2.66-3.2,3.9.11-1,.18-1.77.25-2.51l-.15,0L808,413h-.26l-.59-2.87h-.31a6.09,6.09,0,0,0,0,1.48c.65,2.31.48,2.73-1.8,3.91a16.84,16.84,0,0,1-.93-4.37A7,7,0,0,1,805.69,407.89Zm-23.46-12.61c3.16,4.23,6.18,8.25,9.2,12.27l-.31.31c-1-.92-2-1.83-2.93-2.77-1.76-1.74-3.49-3.51-5.27-5.23C781.46,398.45,781.29,397.71,782.23,395.28Zm-15.36,9.59.49-.24c.47.72,1.4,1.55,1.27,2.14s-1.22,1.14-1.9,1.7l-.28-.21Zm-.72,4.5a15.06,15.06,0,0,1,2.89-2c.12-.08.41.13.62.2v-1c1.72,1.37,3.27,2.58,4.78,3.84a36.07,36.07,0,0,1,2.8,2.59c.22.23.21.71.31,1.07,1-.1,1.41.26,1.37,1.32-.06,1.94,0,3.89,0,5.83l-.38.15-2.83-5.3,1-1.42c-.89.86-1.48.93-2.21-.37-1.08-1.92-2.47-3.66-3.72-5.48.84,1.59,1.67,3.2,2.53,4.78a15.5,15.5,0,0,1,1.08,1.69,1.41,1.41,0,0,1-.26,1.2,10,10,0,0,1-1.56,1.23c-2.17-2.16-4.34-4.25-6.39-6.47A1.94,1.94,0,0,1,766.15,409.37Zm7.58,9.47c-.76-.1-1.1-.4-.4-1,.53-.47,1.12-.86,1.89-1.45l.31,1.58c.22.15.56.25.67.46.9,1.77,1.76,3.57,2.63,5.36,0,.1,0,.25-.07.61A14.69,14.69,0,0,1,773.73,418.84Zm4,6.83c-.32.13-.75.44-.88.34-1.79-1.3-3.54-2.67-5.3-4-.67-.51-.65-1.22,0-1.59s1.74-.64,2-.35c1.4,1.53,2.6,3.24,3.86,4.9A5.39,5.39,0,0,1,777.71,425.67ZM765.78,411.4l6.29,6.75c-.49.42-.85.77-1.25,1.06s-.94.46-1.4-.28a25.19,25.19,0,0,0-3-4.2C765.52,413.78,765.67,412.88,765.78,411.4Zm-.94-.88v2.32L763.26,411ZM759,413.74c.46.27.61.32.61.36-.06.77-.14,1.55-.22,2.33a2.79,2.79,0,0,1-.58-.15C758.85,415.49,758.92,414.71,759,413.74Zm0,4.48.81,1.61c.26.11.74.18.77.33a31.85,31.85,0,0,1,.6,5.55c-.91-1.62-2.78-2.74-2.3-4.94l-1-.69Zm-2.78-2c.62,2,1.36,3.66.06,5.5a54.48,54.48,0,0,0-3,5.37c-2.59-1.22-3.27-2.35-3.07-4.89a1.33,1.33,0,0,1,.31-.84C752.35,419.72,754.22,418.07,756.26,416.25Zm-4.66,12.53c-.16.29-.59.42-.91.62a3.64,3.64,0,0,1-.43-1,17.28,17.28,0,0,1,0-2.1,9.21,9.21,0,0,1,1.34,1.4A1.31,1.31,0,0,1,751.6,428.78ZM740.93,415.4c1.44-2,2.87-3.93,4.36-5.85.22-.29.72-.35,1.09-.52.06-.55.11-1.1.17-1.65l.46-.13a5.45,5.45,0,0,1,1,1.33c.06.14-.57.6-.89.91a14.42,14.42,0,0,1-1,1.4c-1.69,1.81-3.4,3.59-5.11,5.38a.75.75,0,0,1-.75.21C740.49,416.12,740.69,415.74,740.93,415.4Zm-2,5.55c1.63,2,1.38,2.36.13,4-.35.46-.76.87-1.08,1.36a15.92,15.92,0,0,0-.85,1.6C736.25,426.32,736.35,425.94,738.89,421Zm-6.25-9,.51-.1,4.39,6.25-.27.27-1.48-.38c1.06.69,1,1.29.24,2.38a49.92,49.92,0,0,0-3.09,5.44c-1.59-.81-2.79-4.22-2.19-6.24.28-1,.45-2,.78-2.93.11-.34.51-.58.78-.87Zm-.59,15.67-2.73,3.88-.4-.06q.45-3.27.92-6.53l.43-.09C730.86,425.73,731.46,426.66,732.05,427.6Zm-13.17-8.77c.29-.28.46-.68.74-1,.46-.49.15-1.82,1.39-1.44a4.57,4.57,0,0,1,2.5,2.94,14.6,14.6,0,0,1-1.94,7.55c-.55-1.05-1-1.87-1.41-2.7a14.85,14.85,0,0,0-1.35-2.67C718,420.52,718,419.72,718.88,418.83ZM717.06,422a17.76,17.76,0,0,1,3,7c-1.17-2.25-2.33-4.51-3.5-6.77Zm2.53,7.51c.18.37-.13,1-.21,1.47l-.41,0c-1.12-1.71-2.34-3.38-3.29-5.19-.31-.58.08-1.54.16-2.32l.65,0C717.54,425.4,718.62,427.4,719.59,429.47Zm-1.45,2.81-.49.25c-.82-2.1-3.29-3.33-3.13-5.94l.54-.2ZM714,416.53l2.4,3.92c-.31.1-.66.27-.69.22-.79-1.24-1.55-2.5-2.31-3.76Zm-.62,1.49c.6.89,1.22,1.78,1.8,2.7s.09,1.47-.58,2.1c-.82.77-1.17,0-1.53-.41C711.63,420.83,711.77,419.4,713.37,418Zm-.63,6.14c-.33,0-.75,0-1-.13-.79-.63-.81-1.11-.17-2.42a12.92,12.92,0,0,1,1.19,1.61C712.91,423.45,712.76,423.84,712.74,424.16ZM707,412.53a31.71,31.71,0,0,1-.3-5l.45-.2c1,1.23,2,2.46,3,3.7a19.3,19.3,0,0,1,1.73,2.41c.19.33,0,.92-.1,1.36a11.89,11.89,0,0,1-.62,1.73,4.58,4.58,0,0,1-.88,1.65c-.27.24-1.31.14-1.39-.06A35.1,35.1,0,0,1,707,412.53Zm2,25.3-.32.06c-.26-1.16-1-2.49-.71-3.46.91-2.84.18-6.41,3.22-8.39,1.14.89,1.05,1.78.46,3a36.28,36.28,0,0,0-1.6,5C709.67,435.3,709.34,436.57,709,437.83Zm3.84,3.24a16.61,16.61,0,0,1-1,1.39l-.51,0a10.35,10.35,0,0,1-.33-2.78c.54-3.31,1.24-6.59,1.87-9.89l.62-.11c.6.89,1.22,1.76,1.77,2.68.4.66,1,1.4,1,2.08a6.47,6.47,0,0,1-1,2.41C714.42,438.24,713.63,439.66,712.83,441.07Zm4.14-4.61,1,1.41-1.88.82C716.46,437.83,716.67,437.28,717,436.46Zm1.38,7.92c-.35.1-.71.15-1.53.32.49-1.81.92-3.37,1.34-4.93l.52.11c.31.7.66,1.38.93,2.1C720.22,443.63,720,443.94,718.35,444.38Zm1.86-13.27c.94,2.84,2.6,5,2.48,7.89C721.3,438.65,719.38,433.17,720.21,431.11Zm5.93-5.18c-.25,2-.5,4-.61,5.95a16.61,16.61,0,0,0,.33,2.87c.16,1.2.33,2.4-1.1,3.31-.09-.54-.12-1-.24-1.47a71,71,0,0,0-2.23-7.8c-.46-1.15.25-1.67.42-2.44.52-2.3,1.2-4.56,1.83-6.9a8.2,8.2,0,0,1,1.64,1.54,3.77,3.77,0,0,1,.51,2.12C726.65,424.06,726.26,425,726.14,425.93Zm-.73-6.73a31.18,31.18,0,0,0-4.57-3.55c2.57-3.25,5.08-6.41,7.65-9.67a42.51,42.51,0,0,1,3.42,4.16,3.53,3.53,0,0,1,.06,2.49c-.87,3.21-1.86,6.39-2.84,9.65-1.66-.63-1.67-2.11-1.27-3.72l-.92,1.93c-.12-.7-.18-1.09-.19-1.15C726.17,419.29,725.61,419.42,725.41,419.2Zm1.45,15.3v-8.34A12.56,12.56,0,0,1,726.86,434.5Zm.67-12.05c2,.77,1.49,1.76,1,5l-.37.07Zm1.16,17.48c-.84-1.93.21-6.86,2-8.59C730,434.41,729.34,437.21,728.69,439.93Zm3.14,1.71c0,.08-.24.11-.74.31.16-1.8.27-3.42.47-5,0-.27.45-.49.69-.73.23.3.7.65.65.9C732.61,438.64,732.21,440.14,731.83,441.64Zm1.59-6.72c-.15.24-.62.27-1.16.48.57-1.65,1-2.79,1.35-4C734.56,432.29,734.52,433.21,733.42,434.92Zm4.4-13.22-3.31,6.2C734.26,426.6,736,423.24,737.82,421.7Zm-1.37,6.74a3.35,3.35,0,0,1-.29.84c-.23-.1-.53-.14-.66-.32s-.43-.67-.34-.88a13.08,13.08,0,0,1,1-1.69l.31.12C736.46,427.15,736.49,427.8,736.45,428.44Zm-1.05,5.35,1.87,3.09C734.74,436.51,734.47,436.12,735.4,433.79Zm3-6.31a34.22,34.22,0,0,0,2.06-3.2,4.29,4.29,0,0,1,.72,5.87c-.74,1.07-1.41,2.21-2.19,3.43C737.49,431.54,736.65,429.66,738.43,427.48Zm7.38-2.88-3.67-2.66a8.65,8.65,0,0,0,.78-1c.46-.79,1-.83,1.62-.25l2.47,2.2Zm1.53,3.85-.41.23-1.86-1.61,1.51-.79C746.86,427.09,747.1,427.77,747.34,428.45Zm-5.1-5.62a20,20,0,0,1,2.33,1.95c.23.25,0,1-.07,1.45l-.59.13-1.93-3.3Zm-1.81,12.65c.86-1.58,1.74-3.22,2.63-4.87l.44.09c.42,2.05.71,4.14,1.31,6.13.48,1.57-.32,2.41-1.27,3.52Zm4.28,7.12-.82-1,1.08-1.77.42.12C745.17,440.76,745,441.61,744.71,442.6Zm1.39-9.84c-.51-1.54-1-3.07-1.54-4.6C747.34,429,746.52,431,746.1,432.76Zm.5,2.32c.25-1.45.49-2.9.73-4.36,1.48.31,1.88,1.24,1,2.41-.49.68-.93,1.39-1.39,2.08Zm.81,2.92a3.47,3.47,0,0,1,1.65-4.2C749,437,749,437.06,747.41,438Zm1.64-7.4c-.85-.59-1.85-1-1.42-2.4C749.06,428.8,749.24,429.1,749.05,430.6Zm.07-10.48a6.64,6.64,0,0,1-.63,1.74l-.34-.1c-.09-.32-.19-.64-.4-1.38-.16.8-.23,1.18-.3,1.56-.74-1.21-3.25-.91-2.7-3.2.08-.34.51-.6,1-1.12a2.49,2.49,0,0,0-.54.15c-1.72,1.3-1.74,1.31-3.51-.11v0h0a6.58,6.58,0,0,1,.93,1.34,1.77,1.77,0,0,1,0,1.37c-.26.42-.85.65-1.29,1-.44-.72-1.17-1.42-1.2-2.15a.43.43,0,0,1,0-.19c.18-.43,1-.89,1.47-1.33l0-.05,0,0a6.43,6.43,0,0,1-.1-.67.25.25,0,0,1,0-.16c1.34-1.64,2.73-3.25,4.12-4.86.38-.44.78-.88,1.19-1.29.73-.72,1.27-.72,1.42.45.25,1.92.51,3.85.7,5.78A18.12,18.12,0,0,1,749.12,420.12Zm.23-10.88,4.28,3.8C751.42,412.78,749,410.67,749.35,409.24Zm6.31,6.39-5.3,4.24-.37-.21c.26-1,.52-2,.88-3.31l-.87.78c-.14-1.86-.27-3.64-.42-5.72ZM752,439.22c-.13.49-.31,1-.5,1.56l-1.13-1.17-.54.15c.45-1.51.9-3,1.42-4.8a7,7,0,0,1,1.21,2.06A6.11,6.11,0,0,1,752,439.22Zm2.8-4.66c-2.52-2.87-2.62-3.17-1.24-4.62a16,16,0,0,1,1.77,2.71C755.46,433.09,755,433.82,754.75,434.56Zm1.85-7.64c-.11,1.1-.24,2.21-.38,3.42-2.53-1.6-3-2.87.69-7C756.79,424.78,756.71,425.85,756.6,426.92Zm.85,3.79-.44-.13q.3-4.05.62-8.1l.31-.12a9.61,9.61,0,0,1,.7,1.09,12.69,12.69,0,0,0,1.36,2.82c.8.93.41,1.35-.26,2S758.21,429.89,757.45,430.71Zm2.81,5.56c-1-1.58-.52-3.33,1.22-4.5C761.37,433.38,762,435.06,760.26,436.27Zm3,1.7a4.52,4.52,0,0,1-1,2,12.07,12.07,0,0,1-.05-2.47,6.06,6.06,0,0,1,1.56-3.67h0C764,434.53,763.73,436.45,763.24,438Zm-.82-4.4v-3.25C763.39,431.58,763.55,432.47,762.42,433.57Zm.28-8.61c-.2,0-.51-.75-.65-1.19-.23-.72-.37-1.47-.55-2.2l.36-.14c.39.42.8.81,1.15,1.26s.59.9,1,1.6A3.75,3.75,0,0,1,762.7,425Zm1.5-7.89c0,.16-.45.27-.7.4a14.5,14.5,0,0,1,.56,1.77,10.73,10.73,0,0,1,0,1.71c-1.6-.69-2.66-2-2.49-2.94a2.37,2.37,0,0,1-.47-3.27c.31-.48.55-1,.82-1.52l-1.36,1.21-.57-.91c.61-.46,1.18-.92,1.78-1.31.09-.06.36.18.55.27a1.88,1.88,0,0,1,2,1.67A15.88,15.88,0,0,1,764.2,417.07Zm.72,10c1.22,1.14,1.18,1.43-.11,2.41C764.85,428.63,764.88,427.86,764.92,427.08Zm1.34,5.83c-1.53-1.62-1.49-2,.45-4.24A2.91,2.91,0,0,1,766.26,432.91Zm-.53-10.17c0-1.05,0-2.09,0-3.12,0-.08.13-.15.29-.22s.35-.13.48-.2a1.78,1.78,0,0,1-.44-.35,1.7,1.7,0,0,1-.41-.88c-.15-.79,0-1.7-.66-2.31l.46-.26c.69,1,1.43,2.05,2,3.13.14.25-.18.76-.29,1.15C768.08,421.32,767.74,422,765.73,422.74Zm4.52,14.91-1.84-.73.9-1.3,1.12,1.79Zm2.07-7.31c-1.4-1.69-2.81-3.27-4.06-5a2.53,2.53,0,0,1-.27-2c.16-.5.87-.85,1.39-1.17.12-.07.59.22.7.44,1,2,1.9,4,2.8,6C773.19,429.34,773.32,430,772.32,430.34Zm2.34-2.32-1.83-3.5.22-.23,3.17,2.57-.11.5-1.21-.24Zm1.63-.13c.38-.2,1.11.28,1.83.5l-2.18,2.83C775,429.19,775,428.56,776.29,427.89Zm2.8,14.72h-.51c-.35-1.61-.68-3.22-1-4.81-.23-1-.53-2.05-.78-3.07s-.54-2.23.53-3.18c.52-.46.86-1.14,1.44-1.7C779,434.11,779.46,438.35,779.09,442.61Zm1.08-26.48c.83.74,1,1.73.55,4.31C779.92,419.93,779.75,418.42,780.17,416.13Zm2.84,7.16c-.48-2-.89-3.58-1.29-5.21l.27-.18c1,1.2,2,2.4,3.2,3.73Zm.12,8.43-1.53-3.59C783.07,428.75,783.55,429.84,783.13,431.72ZM782,423.31a2.68,2.68,0,0,1-.17,1.24c-.16.31-.57.49-1,.85a7.1,7.1,0,0,1,.1-1.45,3.38,3.38,0,0,1,.62-.95S782,423.2,782,423.31ZM780.57,432c1.8,1.71,1.85,2.35.3,4.57C780.76,435,780.67,433.52,780.57,432Zm.77,9.9c-.84-2.58.45-4.68,1.3-6.89C784.38,436,784.28,440.18,781.34,441.86Zm2.07-17.54,1,.5s0,0,0,0h0l0,0c-.37-1.14-.36-1.15.9-2.25,1.32.81,1.39,1.29.41,3l-1.31-.78v0h0a3.36,3.36,0,0,1,.65,1,3,3,0,0,1-.86,3C783.61,428.25,783.3,426.67,783.41,424.32Zm2.45,10.9a5.48,5.48,0,0,1-1.47-4.84,28.61,28.61,0,0,1,2.47,3.19C787,433.81,786.27,434.57,785.86,435.22Zm1.16-7.49v0h0c.08,1.31.16,2.63.24,4-2.16-.66-2.59-2.05-1.49-4.67l1.25.68h0c-.1-.25-.12-.58-.3-.72-1.15-.94,0-1.48.34-2.21a2,2,0,0,1,.51.57,1.17,1.17,0,0,1,.09.24c.18.73-.47,1.41-.64,2.11h0Zm1.06-1,.45-.16,1,2.66C787.64,429,788,427.78,788.08,426.74Zm-3-17.37-.26.21,2.5,3.23c.14.17.38.33.41.52a23.79,23.79,0,0,1,.73,4.91c0,.74-1.12,1.45-1.55,1.61-1.4-1.21-2.85-2.37-4.16-3.68-.38-.37-.36-1.16-.55-1.89l-.44.73h0a3.24,3.24,0,0,1-1.34-1.54,3.84,3.84,0,0,1-.19-.51,4,4,0,0,1-.18-1.09,3.35,3.35,0,0,1,0-.55c.27-2.45.48-4.91.71-7.36.13-1.52.25-3,.37-4.57l.4-.18c2.37,2.55,4.81,5,7.08,7.68a43.57,43.57,0,0,1,3.46,5c.73,1.14.25,3-1,4.2-1.93-.95-1.08-2.56-.68-4.07l-.36,0c-.19.63-.37,1.26-.59,2Zm7.58,17.88c-.39-1.34-.77-2.68-1.19-4-.34-1.08-.7-2.16-1.11-3.23-.08-.21-.4-.33-.61-.49h0c.74,2.33,1.49,4.65,2.21,7a8.09,8.09,0,0,1,.15,1.36,7.11,7.11,0,0,1-2-3.48,9.75,9.75,0,0,1-.21-1.05c0-.32-.07-.63-.09-.95s0-.63,0-.95c0-.63,0-1.27,0-1.91h0c.27-.45.55-.89.89-1.46l.38-.62c1.21,2.13,2.3,4,3.33,5.89C794.86,424.18,793.72,426.82,792.71,427.25Zm.6-10.7c-.15-.36.13-.9.41-1.34,1.07,1.79,2.74,3.26,2.14,5.65C793.78,420.17,793.94,418.09,793.31,416.55Zm2.39,17.93c-.54-.78,0-2.16,1.24-3.1Zm2.28,5.44c-1.82-2.61-.45-5,.33-7.44C799.58,436.28,800.51,438.37,798,439.92Zm2.29-21.41c-.15-.23-.31-.44-.51-.73l3.13-5.63a8.54,8.54,0,0,1-.79,6.39C801.48,419.63,801,419.6,800.27,418.51ZM802,440.4c-.07-1.12-.14-2.18-.21-3.24C803.31,438.65,803.33,439.8,802,440.4Zm1.62-16.87c-.86-1.37-.61-2.31,1-3.43l1,6.42-.31.13c-.47-.83-1-1.66-1.41-2.49C803.8,424,803.76,423.72,803.64,423.53Zm2.16,13.34c-.31-1.35-.63-2.7-.94-4.05l.42-.1,1.23,4Zm1-17.62-1.22-.84,1.4-2.17.42.14C807.22,417.3,807,418.22,806.82,419.25Zm1.34,11.84-.54,0c0-2.4-.51-4.82.54-6.83Zm1.67-3V423C811.59,424.64,809.88,426.36,809.83,428.07Zm1.16,5.64h-.18v-5.59H811Zm.93-5.13-.79-4.2C812.84,425.64,813.06,427.44,811.92,428.58Zm.86-4.34-1.52-1.2c.16-.67.31-1.3.45-1.93l-.31-.1c-.12.37-.25.74-.52,1.51-.21-.82-.32-1.24-.48-1.9-.17.46-.27.75-.5,1.4a9,9,0,0,1-.67-1.47c-.29-1.34-.52-2.71-.76-4.07a3,3,0,0,1,.74-3.05c.78-.67,1.51-1.4,2.57-2.4,0,.93,0,1.48,0,2a16.57,16.57,0,0,0,1.54,6.82A5.18,5.18,0,0,1,812.78,424.24Zm-.23-13a2.33,2.33,0,0,1,.68-1.35c.79-.8,1.68-1.51,2.53-2.25,1.74,1.52,1.68,1.71.82,3.79-.67,1.6-1,3.34-1.53,5-.28.86-.68,1.68-1.09,2.68A16.07,16.07,0,0,1,812.55,411.21Zm1.92,9.6,2.94-10.39.52,0,1.45,2.09-4.56,8.41Zm5.9-6c.49.84-1.06,4.52-3.71,9.08C816.33,423.1,818.43,417.93,820.37,414.82Zm.9,1.54.92,1.16-3.9,5.87-.31-.16Zm-2.91,24.5c-.7-1.77.19-3.26.74-5.13C820.65,438,818.66,439.27,818.36,440.86Zm3.69-11.16a9.84,9.84,0,0,0,1-1.92c.42-1.28,1-1.11,1.81-.39.27.25.52.51.77.75l-2.93,4.26C821.17,431.26,821.16,431.15,822.05,429.7Zm2.59,6.59c-1.17-2.13-.44-4.54,2.19-6.8.28,1.13.62,2.13.79,3.17C828.12,435.53,827.65,436.08,824.64,436.29Zm2.11-14.66c-.07-.51.64-1.13,1-1.71,3.21,2.49,3.48,3,.12,5.48A22.79,22.79,0,0,1,826.75,421.63Zm3.76,7.56c0,.32-.31.63-.48.94-.22-.31-.63-.63-.61-.93a15.48,15.48,0,0,1,.42-2.6,8.14,8.14,0,0,1,.48-1.24l.22-.06C830.54,426.6,830.57,427.89,830.51,429.19Zm10.09-8.54c0,.66-.78,1.28-1.22,1.92l-.35-.22v-3l.27-.27C839.77,419.59,840.63,420.15,840.6,420.65Zm-1.3-3.82.6.07.31,2.06-.25.23c-.32-.27-.86-.5-.92-.82A4.53,4.53,0,0,1,839.3,416.83Zm-1.5-8.22.31,0a11.37,11.37,0,0,1,0,1.43,36.19,36.19,0,0,0-.67,5.62c.07,2-1.06,2.81-2.75,3.48Zm-.53,10.31c0,1.88.09,3.6,0,5.3-.05.61-.68,1.18-1,1.72C832.77,424.76,833.19,420.86,837.27,418.92Zm-.9,15.38c-.29-1.4-.63-2.7-.77-4-.05-.52.36-1.09.56-1.65.4.37.94.67,1.18,1.12C838.34,431.59,838,433.27,836.37,434.3Zm1.34,6.63-.72-3C838.86,438.81,839,439.42,837.71,440.93Zm1.39-2.59-1.46-1.6,1.14-1.47.52,2.9Zm1.47-8.52c-2.16-2.1-1.91-6.09.4-7.32C840.57,424.93,842.74,427.43,840.57,429.82Zm2.87.81a2.87,2.87,0,0,1-.7,1.08c0,.06-.52-.09-.56-.22a1.92,1.92,0,0,1-.09-1.19,9.4,9.4,0,0,1,1.2-1.5l.27.19A8.08,8.08,0,0,1,843.44,430.63Zm5.41,7.9-.44-.34,2.12-2.73.34.32Zm1.53-6.23c-.08.07-.24.06-.43,0s-.38-.11-.55-.14a2.13,2.13,0,0,1-.21,1.22,4.37,4.37,0,0,1-.22.43,4.14,4.14,0,0,1-.38.55,2.53,2.53,0,0,1-1.9,1.18c-.29,0-.81-.65-.76-.9a41.63,41.63,0,0,1,1.19-4c0-.12.48-.11.73-.17-.46-.67.21-3.59.93-3.95a.74.74,0,0,1,.51,0C851.36,427.2,852.06,430.83,850.38,432.3Zm.78-5.27-2-1.59,1.66-1.13.66,2.52Zm16.68-2.74-1.27,4.28C865.7,426.18,865.7,426.18,867.84,424.29Zm-12.51-3.86a27.22,27.22,0,0,1,2.93,4l-3.58-4.11S855.17,420.24,855.33,420.43ZM853,422.17c.2-1.16.79-1.27,1.64-.42,1.17,1.19,2.29,2.44,3.4,3.64l-1.22,1.52h0l.73-.48.86-.58c.36,2,2.68,3,1.7,5.56-.35-.4-.7-.78-1-1.15l-1.75-1.92c-.26-.3-.53-.59-.8-.88h0l1.68,2.73c-.2.26-.47.64-.74,1l.88-.56c2.07,1.41-.07,2.38-.22,3.79-.8-.9-1.89-1.35-1.44-2.69-1.36.2-1.78-1-2.47-1.79-.11-.13.13-.79.38-1a21.44,21.44,0,0,1,1.93-1.48l0,0h0l0,0,.3-.55h0c-1.24-.2-1.53,1.19-2.44,1.52-.38.14-.86.46-1.13.33a1.53,1.53,0,0,1-.79-1.07A50.81,50.81,0,0,1,853,422.17Zm2.1,10.55-1,.79-.72-2.43.24-.17ZM853,440l-.4,0v-2.53h.4Zm-.54-3.81,1.32-1.46c.16,1.26.27,2.2.44,3.56Zm2.25,3.27c-.18-1.67-.45-3.33-.48-5,0-.44.72-.9,1.07-1.29C858.2,435.55,856.18,437.46,854.73,439.48Zm2.47.2-.25-.14,1.1-2.42c.27.65.4,1,.57,1.38Zm2.46-2.6c-1.35-1.62-1.16-1.11.44-3.51C861.76,434.85,861.38,435.06,859.66,437.08Zm2.06-3.05a14.6,14.6,0,0,1-.86-1.48c-.05-.09.27-.35.61-.79a15.75,15.75,0,0,1,.79,1.72C862.29,433.6,861.91,433.85,861.72,434Zm1.56-4.92c.31-.84,1.21-1.45,2-2.32a5.07,5.07,0,0,1-.64,4.35c-.12.19-.55.18-.84.26C863.6,430.63,863.05,429.72,863.28,429.11ZM865,443.8l-1.32-5.5.65-.22c.89,1.74.71,3.74,1.23,5.57Zm1.23-13c.17,1.72.3,3.12.45,4.61C864.54,433.86,864.46,433.22,866.2,430.79Zm2.26-7.07,1.41,1.26h0l0,0a2.45,2.45,0,0,1,0-.27.46.46,0,0,0-.08-.25c-1.11-1.65-1.1-1.7.66-2.6a10,10,0,0,1,1.08,1.35c.31.55.91,1.09.18,1.84s-1.24.35-1.82-.07h0l0,0c.61,1.86-.9,2.09-2.3,2.9C867.9,426.33,868.16,425.1,868.46,423.72Zm2.5,3.9c.55,1.12,1.16,2.21,1.61,3.37.1.26-.39.75-.79,1.45-.48-1.79-.87-3.22-1.26-4.65Zm-2.78,9.68h-.32v-5.14h.32ZM870,427.16c.38,1.77.73,3.38,1.08,5-1.77-.51-2.58-1.36-2.74-2.7S869.18,427.73,870,427.16Zm-.34,11.14c-.18-.27-.5-.53-.53-.81-.06-.92,0-1.86,0-2.79s-.17-2.06-.26-3.23c.86.6,1.74,1.18,2.57,1.83.15.11.16.53.08.76-.4,1.2-.85,2.39-1.31,3.57A3.19,3.19,0,0,1,869.63,438.3Zm2.08,1.08-.26-.08,1.2-3.55.57.25C872.72,437.13,872.21,438.25,871.71,439.38Zm1.09-9.3c-.62-1.26-1.23-2.48-1.83-3.71l1.26-1.49C874.64,426.8,874.81,428.29,872.8,430.08Zm1.94,3.62c-.71-1.27-.5-2,.84-3C876.22,431.56,876.22,431.56,874.74,433.7Zm-1-8.52c-.83-1.1-1.68-2.18-2.53-3.26,0,0-.11,0-.11-.06-.21-1.53,1.21-1.86,2-2.67.41-.46.93-.6,1.35.26.74,1.54,1.65,3,2.51,4.52-.26.38-.49.67-.66,1C875.46,426.49,874.81,426.55,873.79,425.18Zm3.26,4.38c-.32-.29-.76-.85-.66-1.14a16.79,16.79,0,0,1,1.3-2.49c.88,1.34,1.65,2.3.28,3.25C877.69,429.38,877.16,429.66,877.05,429.56Zm.84,5.3c.37,1,.73,2.08,1.12,3.19C877,438,876.92,437.48,877.89,434.86Zm1.91.2c-1.21-1.12-1.36-2-.57-3.24C880.76,432.67,880,433.88,879.8,435.06Zm.19-8.58c-.26-1.32-.5-2.54-.79-4,.33-.43.85-1.16,1.4-1.86.42-.55.77-.67,1.2.09A4.55,4.55,0,0,1,880,426.48Zm1,2.56a10.18,10.18,0,0,1,.86-3.14c.91,2,2.11,3.9.35,6.09A9.3,9.3,0,0,1,881,429Zm2.06,5-.53-.12.91-3.52C884.46,431.85,883,432.75,883.09,434Zm11.81-7.23.78,3.49C893.34,429.38,893.21,428.56,894.9,426.78Zm.67,1,.4-.2,1.48,1.44a5.78,5.78,0,0,1-1,.44A16.52,16.52,0,0,1,895.57,427.78Zm-8.17,3.64c0,.05-.63.19-.76.07a2,2,0,0,1-.64-1.06c0-.35.23-.75.47-1.44a7.19,7.19,0,0,1,.82,1.27A2.84,2.84,0,0,1,887.4,431.42Zm1.5-2.51a2,2,0,0,1-.67-3c.52-.86.91-1.78,1.38-2.66a11.48,11.48,0,0,1,.73-1,8.36,8.36,0,0,1,1.49,2.09,3.8,3.8,0,0,1-1.31,3.3C890,428.12,889.21,429.05,888.9,428.91Zm2.88,2.71a.83.83,0,0,1-.77-.07,16.1,16.1,0,0,1-1.41-1.25c.6-.84,1.19-1.64,1.79-2.47C892.27,428.73,892.47,431,891.78,431.62Zm.51-4.3a14.57,14.57,0,0,1,1.12-2.25c.39.51.75.82.69.94-.35.81-.79,1.57-1.2,2.35C892.68,428,892.21,427.58,892.29,427.32Zm2.24,9.05c-2-2.94-1.91-3.5.45-4.73C894.83,433.27,894.68,434.82,894.53,436.37Zm.88,2.41h-.29v-4.19h.29Zm.51-4.13c-.11-.92-.22-1.83-.34-2.88,1.71.79.66,1.89.67,2.82Zm1,2.45-.41-.1c.23-1.16.46-2.32.7-3.55C898.54,434.84,898.54,434.84,896.91,437.1Zm2-3.25c-1.28-1.29-1.63-3-.93-3.86.36.31.75.59,1.09.94a12.53,12.53,0,0,1,.87,1.12Zm.57-10.72-.41,0c-.34,1.19-.75,2.37-1,3.58s-.72,1-1.39.48c-1.59-1.24-1.6-1.47,0-4.2.93-1.65,1.94-3.26,3-5l6.19,4.66c.63.48.34.88-.06,1.38-1.8,2.25-3.56,4.53-5.35,6.83C896.77,428.89,898.85,425.89,899.49,423.13Zm3.25,15.35c-1.37-1.48-1.37-1.48-.56-3.28l1.36,2.16Zm4.4,2-.37.18a8.67,8.67,0,0,1-1.38-2.68,7.9,7.9,0,0,1,.75-2.83l.57.1C908.28,436.85,906.67,438.75,907.14,440.46Zm.37-1.06a9.5,9.5,0,0,0,.28-.95c.08-.45.11-.9.18-1.48C909.13,437.6,909.13,437.6,907.51,439.4Zm.84-8.2c-.3.13-.83-.21-1.24-.39a8.64,8.64,0,0,1-.91-.57s0,0,0,0h0a2.07,2.07,0,0,0,.15.44c.33.54,1.08,1.35,1,1.55a9.34,9.34,0,0,1-1.88,1.71l-.93,2.18c-1.88-2.15-2.19-2.35-.2-3.36-.11-.15-.34-.41-.33-.43.74-.71,1.49-1.4,2.24-2.1v0l-2-1.75h0l1.26,1.6L902.28,433l-.31-.25a10.36,10.36,0,0,1,2.23-4.2l0,0,0,0,.26-.87-1.08.32,3.41-4.39.43.2c-.08.39-.15.78-.23,1.16.91-.56,1.69-.26,1.79.78A41.58,41.58,0,0,1,909,430,1.49,1.49,0,0,1,908.35,431.2Zm5.3,5.89a2.86,2.86,0,0,1-1.82-2.88c-1,.87-1.31-.11-1.41-.75-.25-1.73-.31-3.47,1.84-4.33.62,1.18,1.6,2.27.88,3.83l.65-.34c.4,1.16.85,2.24,1.14,3.37S914.62,437.46,913.65,437.09Zm3.94-3.25-1-2.37a3.68,3.68,0,0,1,.61,0c.34.67.68,1.34,1,2C918.23,433.52,917.81,433.72,917.59,433.84Zm7.24-10.68a4.23,4.23,0,0,1-2.62-4.18c0-1.85-.35-3.7-.26-5.65C922.88,416.51,923.81,419.7,924.83,423.16Zm-5,8.56a3.11,3.11,0,0,0-.23.28h0l-.26-.34a2.05,2.05,0,0,1-.59-1,16.11,16.11,0,0,1,.38-2.43c.09-.77.1-1.54.14-2.37a2.39,2.39,0,0,1,1.31,2.8c-.12.73,0,1.5-.18,2.21A2.12,2.12,0,0,1,919.88,431.72Zm.65,7.86c.23-.73.46-1.46.71-2.22,1.74,1.12-.18,1.56-.25,2.33Zm2,1.2c-.19.26-.47.58-.84,1a1.52,1.52,0,0,1-.45-1.13,2.46,2.46,0,0,1,1-1.45h0C922.94,439.75,923.1,440,922.51,440.78Zm1.11-4.63c-2.28-1.15-2.29-3-.1-5.19C924.52,432.72,923.39,434.39,923.62,436.15Zm.07-7.64c-1,.18-1.06-1-1-2,.08-1.2,0-2.41,0-3.74a3.81,3.81,0,0,1,2.66,3.49A2.86,2.86,0,0,1,923.69,428.51Zm18.09-16.83c1.2-1.67,2.47-3.29,3.9-5.15,1.78,2.54,3.28,4.87,5,7s.49,3.9,0,6.2c-.79-.88-1.67-1.44-1.86-2.18a6.34,6.34,0,0,1,.51-2.53l-.39-.11c-.2.8-.41,1.6-.61,2.41l-.27,0c-.21-.9-.41-1.79-.62-2.69l-.28,0,.08,1.83-.33.37c-.7-.87-1.38-1.76-2.11-2.61a3.7,3.7,0,0,0-.94-.66,21.52,21.52,0,0,1-1.87-1.07A1,1,0,0,1,941.78,411.68Zm-5.18,8.81c.89,1.85,1.73,3.59,2.64,5.5C937.5,424.88,935.84,421.43,936.6,420.49Zm1.79,10-.38.25-4-5.64.89-1.41Zm-4.67-17.34c1.79,2.08,2.6,3.83,2.15,4.62C933.77,415.38,933,413.71,933.72,413.13Zm-.69,1.52c.74,1.16,1.54,2.29,2.19,3.51.15.29-.15.91-.39,1.26-.08.11-.69-.13-1-.28-.14-.06-.18-.32-.31-.44C932.26,417.56,931.26,416.38,933,414.65Zm-.53,6.08a.82.82,0,0,1-.09.78c-.15.15-.69.19-.76.08-.42-.64-.74-1.34-1.1-2l.49-.31A18.42,18.42,0,0,1,932.5,420.73Zm-3-6.29c.33-1.3.62-2.48.95-3.79C931.41,411.85,931,413.3,929.48,414.44Zm-2.79-3.13a18.77,18.77,0,0,1-.87-7.41c0-.35.09-.69.18-1.4,1.51,2,2.85,3.65,4.1,5.4.42.57.47,1.27-.51,1.47.6,1-.14,3.81-1.15,4.18.19.31.36.61.6,1-.25,0-.56.08-.61,0A21,21,0,0,1,926.69,411.31Zm2.08,22.27-.43-.06v-5.29C929,430,930,431.78,928.77,433.58Zm2-10c2.31,1.69.21,3.16,0,4.75C927.45,426.11,928.2,425.36,930.73,423.57ZM933.47,438c-1-.41-2.39-.65-2.47-1.13a12.26,12.26,0,0,1,.34-3.82,6.13,6.13,0,0,1,.54-1.27,39.23,39.23,0,0,1,2.46,4.25C934.52,436.48,933.81,437.3,933.47,438Zm1.85-3.51-2.69-4h0l.21-3,.51.05c.45.74,1.06,1.46-.25,2.12a.4.4,0,0,0-.15.14,6.72,6.72,0,0,0-.32.66h0l1.67-1.21c.63,1.06,1.27,2.07,1.84,3.12C936.59,433.29,936.27,433.94,935.32,434.51Zm3.41,3.21.73,4C937.83,440.29,937.51,438.54,938.73,437.72Zm1.78-10.92-3.76-7.4.68-.31c1.18,2.49,2.36,5,3.53,7.48Zm2.33-4.26c-.34-.91-.71-1.81-1-2.73-.48-1.48-.9-3-1.39-4.46-.08-.24-.42-.39-.64-.59h0c.8,2.76,1.61,5.52,2.39,8.29a1.9,1.9,0,0,1-.07,1.36c-.43-.86-.85-1.73-1.29-2.58a24.65,24.65,0,0,0-2-3.57c-1.09-1.42-.05-2.16.64-3.07l.3-.42h0a17,17,0,0,1,1-1.6.92.92,0,0,1,.76-.33,4.58,4.58,0,0,1,2.73,4.21c-.21,1.85-.62,3.66-1,5.49Zm2,8.61c-1.05-2.09-.94-2.82.42-3.55C945.11,428.85,945,430,944.84,431.15Zm1.07,4.23-.35,0v-4.76h.35Zm.8-4.78h-.33c0-1.53-1-3.07.33-4.59Zm.78-8.38a11.19,11.19,0,0,0-.42,1.73c-.1.62-.09.53-.92.8-.39.13-.66.68-.94,1.06s-.71,1-1.06,1.54l-.61-.14a20.17,20.17,0,0,1,0-3.56c.2-1.25.87-2.41,1.12-3.65a35,35,0,0,0,.37-4A4.83,4.83,0,0,1,947.49,422.22Zm.89,11.09H948v-5.72h.42Zm.19-13.21c1.9,1.35,2,2,.75,2.68C949.09,422,948.87,421.16,948.57,420.1Zm1.46,5.53c-.92-1.53-.86-2,.19-2.58C950.15,424,950.09,424.79,950,425.63Zm.61,3.55-.28-.2c.21-1.73.43-3.45.64-5.17l.39-.07,1.34,1.85C952,426.82,951.33,428,950.64,429.18Zm3,12.48c-1.07-.79-1.11-1.6-.33-3.09h.47C953.73,439.55,953.69,440.54,953.64,441.66Zm.81-18.25a7.92,7.92,0,0,1-2.13-6.66l.44-.2c.81,1.62,1.71,3.2,2.4,4.87C955.32,421.82,954.79,422.52,954.45,423.41Zm3,17.72c-3-2-1.25-4.25-.89-6.39l.41-.12a18.78,18.78,0,0,1,.79,3.23A18.29,18.29,0,0,1,957.43,441.13Zm5.62-28.85c2.59-3.46,5.19-6.91,7.86-10.45.91,1.84.79,2.63-.39,3.79q-3.43,3.38-6.88,6.73a3.69,3.69,0,0,1-.76.45A2.15,2.15,0,0,1,963.05,412.28Zm-4,12.16c-.52-2.48.89-4.1,2.11-6C961.23,420.8,961,422.86,959.05,424.44Zm4.88,1.45c-.29,1.33-.56,2.66-.84,4l-.73-.15c.44-1.79.87-3.58,1.31-5.37a10.28,10.28,0,0,0-.83,1.57c-.43,1.35-.77,2.71-1.17,4.12a3.33,3.33,0,0,1-.91-4.67c.8-1.23,1.55-2.5,2.32-3.76l.44,0,.33,1.86a3,3,0,0,1,.46,1.08A6.49,6.49,0,0,1,963.93,425.89Zm2,8.25c-1.26-.75-1.28-1,0-2.08Zm-.22-14.81c.49-1.13.9-2.29,1.34-3.43-1.06-.26-1.12.85-1.63,1.43a4.77,4.77,0,0,1-1.18.72l-.1-.33c-.29.8-.58,1.6-.92,2.57-1.73-1.64-1.48-3-.55-4.64,2.27-4,5.64-6.91,8.66-10.2l.44.09c.28,3.91.62,7.81.77,11.72,0,.58-.84,1.2-1.31,1.8s-.89,1.12-1.37,1.65c-.91,1-1.85,2-2.77,3C965.27,422.74,964.86,421.35,965.73,419.33Zm5.89,11-1.28,3.09C969.75,432.12,970.2,431.22,971.62,430.37ZM968.34,425,971,421.8l.34.08c-.33,1.41-.66,2.83-1.06,4.52Zm3,2.6a1.41,1.41,0,0,1-.35-.51s0-.07,0-.11c-.09-.4.19-.84.75-1.72h0c.16.75.31,1.49.48,2.33.06.28.12.57.18.88C971.94,428.14,971.6,427.87,971.37,427.64Zm-3.74,2.13c.34.74.67,1.44,1,2.18l-2.14,2.37C966.43,432.53,965.94,431,967.63,429.77Zm.35,7.32c-1.39-1.61-.93-2.92,1.36-3.86C968.92,434.43,968.49,435.63,968,437.09Zm.63-8.84c-.52.17-1.16.47-1.23-.42a8.52,8.52,0,0,1,.26-1.92c.28.06.64,0,.82.19a2.69,2.69,0,0,1,.65,1.07c.06.2-.18.5-.28.76l.25-.13.93-.47c-.16,1.45-.29,2.69-.43,3.95A2,2,0,0,1,968.61,428.25Zm1.75,8.58.51-.05c.37,1.87.75,3.74,1.18,5.89A3.81,3.81,0,0,1,970.36,436.83Zm1.7,1.05c-1-2.53-1-2.58.49-4.16C972.35,435.36,972.21,436.62,972.06,437.88Zm.62-14.07c-1.1-.59-1.13-1.95,0-3.67Zm61.45-7.68c.94-1.19,1.86-2.4,2.94-3.52-.17,3.4.87,7.08-2.77,10a32.08,32.08,0,0,1-1.07-3.47C1032.92,417.56,1033,417.56,1034.13,416.13Zm-.61,9.13-.69,2.3-1.13-.65,1.28-1.84Zm-2.5-4.79.34.11.06,1.14h0l0,0h0l0,.06a2.16,2.16,0,0,1,1.15,1.91,3,3,0,0,1-.38,1.22,8.27,8.27,0,0,1-1,1.47c-1.72-.89-1.76-1.1-.7-2.75a6.56,6.56,0,0,0,.51-.94c.15-.3.29-.61.43-.91h0c-.51.59-1,1.17-1.52,1.77-.19.23-.36.48-.54.72l-.48-.33C1029.6,422.75,1030.31,421.61,1031,420.47Zm-3.73,13.93,2.89-5.5C1030.78,430.2,1029.43,432.71,1027.29,434.4Zm2-5.43a33.52,33.52,0,0,0-2.54,4.26c-.85-1.07-.85-1.07,2-6.78C1029.33,427.25,1030.27,427.69,1029.24,429Zm-1.18-3.57.45.21-2.5,5.26-.48-.16ZM1017.11,428l.62,5.4-.34.18a13.78,13.78,0,0,1-2.13-3.25c-.19-.6.75-1.58,1.19-2.39Zm-3-11.7.45.12c.1,1.09.21,2.19.31,3.28,1.85,3.15,1.62,7.12-.56,9.08-1-1.76-2-3.49-3-5.26a1.58,1.58,0,0,1-.14-.63c0-.22,0-.46,0-.68-.05-.05-.11-.12-.18-.18l-.21-.2c-.13-.13-.23-.23-.21-.26C1011.75,419.75,1013,418,1014.16,416.25Zm-3.51,8.8,2.52,5-.46.24-2.46-4.94Zm.74,6.7v-2.27C1012.62,430.53,1012.62,431.21,1011.39,431.75Zm-2.72-7.3.54.11c.65,1.89,2.74,3.37,1.66,5.87a22.73,22.73,0,0,1-2.68-3.56C1007.9,426.29,1008.48,425.27,1008.67,424.45Zm-5.53,3.06c-1.48-1.44-1.48-1.47,1.72-3.9l1.32,1.67Zm3-1.07c-.45.85-.89,1.7-1.38,2.66l-1.3-.92,2.41-2Zm-.61-3.4c.54-.14.92-1.93,2-1.05s0,1.93-1.09,3.17C1006.15,424.43,1005.87,423.75,1005.57,423Zm-3.43-10.87c.22.75.37,1.28.53,1.81h0a3,3,0,0,0,.3.18,5.2,5.2,0,0,1,.61.37,1.36,1.36,0,0,1,.24.24c1.34,1.75,2.62,3.55,3.91,5.34,0,.08,0,.24,0,.55l-6-6.3-1-.85Zm-1.75,6.45c.07-.88.12-1.77.24-2.64,0-.34.21-.8.45-.92a1.07,1.07,0,0,1,.94.29c1.55,1.63,3.09,3.29,4.57,5,.2.22.25.94.08,1.07-1.65,1.35-3.35,2.63-5.23,4.06-.08-.6-.13-1-.24-1.79-.2.61-.29.9-.48,1.47-.3-.53-.72-.91-.71-1.28C1000.08,422.11,1000.25,420.37,1000.39,418.62Zm-.61-4.51c-.17,2.31-2.27,2.37-3.63,3.3Zm.11,1.67c-.27,1.92-.49,3.46-.71,5L999,421l-.1-.86-.49.37a12.7,12.7,0,0,1,.53,1.33c.13.47.18,1,.32,1.83l-4.91-3.92ZM991.3,418l.31,2.27c-.25-.05-.57,0-.76-.17C990,419.47,990.34,418.9,991.3,418Zm-.74,5.64,0-.05.06,0c.18-.5.35-1,.52-1.5l.52,0c.18.59.35,1.18.62,2.08l-1.66-.63v0l1.23,1.18-2.2,3.76-.31-.16c.09-1.34.12-2.69.3-4a.45.45,0,0,1,.12-.21C989.91,424,990.31,423.82,990.56,423.63Zm-12.77-3.84s0-.05,0-.07a1.88,1.88,0,0,1,.11-.5,2.91,2.91,0,0,1,.25-.5,4.21,4.21,0,0,1,.28-.4c.25-.34.48-.69.7-1.05a.83.83,0,0,0,.07-.13c.62-1.05,1.14-2.18,1.73-3.26-1.1,1.58-2.16,3.18-3.32,4.71a4.51,4.51,0,0,1-1.35.82c.64.74-.07,1.28-.32,1.84-.47,1.09-1.05,2.13-1.58,3.19l-.34-.11c0-1.71,0-3.43,0-5.13,0-.33.54-.62.84-.93a10.06,10.06,0,0,1,1.32-1.8c1.55-1.4,3.16-2.72,4.79-4,.22-.18.76-1.08,1,.07l.91-.1c-.65-1.47.7-1.62,1.48-2.68.2,1.41.34,2.37.49,3.44l-1.25-.23c1.24.83,2,1.84,1.15,3.4l.05-.05h0l0,.05c1.35.11,1,1.17.63,1.7a52.11,52.11,0,0,1-3.43,4.69c-.17.21-.9.16-1.24,0-.56-.31-.86-.87-.29-1.48,1.26-1.36,2.54-2.69,3.79-4.05a2.63,2.63,0,0,0,.38-.56c.06-.09.11-.19.16-.28h0c-1.08,1-2.22,2-3.27,3.11-.36.36-.71.73-1,1.11a3,3,0,0,1-.49.47,1.26,1.26,0,0,1-1.51,0h0l0,0h0l0,0c-.1.23.15.46.31.69a.62.62,0,0,1,.13.29c0,.15-.1.3-.46.44a15.22,15.22,0,0,1-4.2,4.72l-.34-.2c.51-1.07,1-2.15,1.55-3.2.4-.74.91-1.43,1.37-2.15l.23-1.15.41.16,1,.4v0A1.76,1.76,0,0,1,977.79,419.79Zm2.39,5.86c-1.44,1.16-3,2.16-4.52,3.21a2.39,2.39,0,0,1-.53.14c0-.39-.13-.81,0-1,1.13-1.51,2.26-3,3.51-4.42a1.53,1.53,0,0,1,1.48,0A1.28,1.28,0,0,1,980.18,425.65Zm-4.86,11.76a43.55,43.55,0,0,0-1,4.73c-.09.46-.2.92-.3,1.38l-.28-.06v-11.3C976.18,434.22,976.21,434.66,975.32,437.41Zm1.25-3.9a9.35,9.35,0,0,1-1.12-1.39,3.32,3.32,0,0,1-.29-1.42c0-.14.73-.45.82-.37a3.78,3.78,0,0,1,1,1.46C977.14,432.18,976.8,432.71,976.57,433.51Zm-.58-3.72,3.06-2.55.17.18c-.52,1-1.05,2-1.64,3.16Zm7-1.14a18.33,18.33,0,0,0-2.75,3.48c-.69,1.06-1,.07-1.57,0,1-2.13,1.87-4,2.75-5.9.4-.85,1.1-1,1.58-.16S984.11,427.64,983,428.65Zm1-4.49c.07-.14.16-.29.25-.44l.28-.45c0-.08.08-.15.11-.22l-.22-.19c-.25-.2-.53-.41-.5-.47a16.93,16.93,0,0,1,1.63-2.66c.23,1.17.27,2.26-.7,3.09,1.3.73.57,2,.9,3l-.34.3c-.53-.45-1.3-.82-1.51-1.39A.78.78,0,0,1,984,424.16Zm.94,10.66c-1.27-1.12-1.31-1.54-.28-3.56C986.44,434.08,986.08,433.94,984.92,434.82Zm1.34-2.92h-.34a3.19,3.19,0,0,0-.35-.69,3.62,3.62,0,0,0-.76-.44l1.45-1.07Zm.58-14.17c.3-.39.66-.72,1-1.15,1.36,1.56,2.48,3.12,1.33,5.29l-1.86,2.72-.49-.25c.15-1-.71-2,.43-2.94A3.44,3.44,0,0,1,986.84,417.73Zm1.46,23.44c-.19-1.89-1.89-3.27-1.35-5.33C988.35,436.73,989.25,440.07,988.3,441.17Zm.56-12.66c-1.77-.63-2.53-1.35.16-3.64C989,426.25,988.91,427.37,988.86,428.51Zm1.27,9.26c-1.5-.92-.64-2.41-1-4C991.14,436,991.24,436.43,990.13,437.77Zm2.46-5.19-.27.5c-.69-.89-1.41-1.75-2-2.68a1.22,1.22,0,0,1,0-1,19.19,19.19,0,0,1,2.35-3.77Zm1.19-12.29c1.79,1.6,3.49,3,5.08,4.62.55.53,0,2.94-.7,3.66-.4.42-.85.81-1.58,1.48-1.3-2.25-2.53-4.36-3.62-6.23C993.25,422.58,993.47,421.6,993.78,420.29Zm5.06,9v2.58C997.48,431.31,997.45,430.86,998.84,429.25ZM993.42,427l.3-.14a31.54,31.54,0,0,1,1.63,2.81c.55,1.23.06,2-1.66,2.87Zm3.45,7.21a15.67,15.67,0,0,1-1.47,1.91l-.45.06c-.14-.52-.53-1.16-.35-1.53a11,11,0,0,1,1.63-2.14s.51.22.56.39A2.07,2.07,0,0,1,996.87,434.25Zm1.23,7.2c-1.27-2.21-1.27-2.21.11-4.36l1.12,3.48Zm2.93-11c.94,1.49-.28,1.77-.72,2.42l-.57-.31C1000.15,431.94,1000.55,431.28,1001,430.49Zm.56,8.8c-1.52-.78-1.72-1.28-1.46-3.59C1001.65,436.84,1002.2,438.2,1001.59,439.29Zm.37-2.43-1.8-2.47,1-1.83.36.45a16.57,16.57,0,0,1,.55,1.82A4.2,4.2,0,0,1,1002,436.86Zm-.22-6,.55-1.82,1.09.95-1.12,1Zm2.44-.09c-.52,1.37-1,2.59-1.48,3.94C1002,431.83,1002.21,431.1,1004.18,430.74Zm-.31,12.52-.54-2,.66-.19c.17.66.33,1.31.49,2Zm1.16-1.92c-1.5-1.2-1.59-1.79-1.1-3.4s.75-3.25,1.11-4.88l.52-.05,2.16,4.22Zm5.14-7.87a9.79,9.79,0,0,1-1.15,2.06c-1-1.57-2-3-3-4.48a1.09,1.09,0,0,1,0-.81c.39-1,.83-1.93,1.37-3.17,1,1.55,2,2.86,2.71,4.29A3.24,3.24,0,0,1,1010.17,433.47Zm.4,5.15,1.49-2.93c.33.86.51,1.32.72,1.85Zm3.26-2c-.36-.95-1.4-1.83-.28-3.18.44,1.06.84,1.92,1.15,2.81a1,1,0,0,1-.12.59,1.72,1.72,0,0,0-.07.21h0a1.24,1.24,0,0,0-.2-.1C1014.11,436.87,1013.88,436.78,1013.83,436.63Zm1.38,6.42-.78-5.42C1015.87,438.8,1016.27,441.8,1015.21,443.05Zm2.81-1.77c-.61-2.57-1.22-5.13-1.81-7.64C1017.86,434.78,1018.57,437.3,1018,441.28Zm.39-11.11c-.2-1.53-1.91-3.39.9-4.55C1019,427.24,1018.7,428.71,1018.41,430.17Zm1.12,6.05h-.2v-7.31h.2Zm2.18,2.07a8.34,8.34,0,0,1-.79,1.32,16.77,16.77,0,0,1-.47-2.37c-.14-3.17-.21-6.34-.31-9.51a3.94,3.94,0,0,0-.1-.84c-.55-2-.11-2.87,1.67-3.74.59,2.09,1.24,4.21,1.78,6.36a4.78,4.78,0,0,1,.06,2.16C1023,433.9,1022.35,436.09,1021.71,438.29Zm3.77-4.8c.31.54.69.91.62,1.12a47.64,47.64,0,0,1-2.46,5.69C1023.33,437.83,1024.41,435.81,1025.48,433.49Zm2.57,11.76-2.45-.81c.43-1.2.82-2.26,1.21-3.33l.58,0,1,3.87Zm4.77-1.93a49.31,49.31,0,0,0-2.84-4.9c-1-1.38-1.22-2.51-.11-3.88a20.71,20.71,0,0,0,1.49-2.47C1033.34,435.52,1034.19,441.62,1032.82,443.32Zm2.92-4.12h-.3c-.32-1.07-.62-2.15-1-3.21-.5-1.46-1.12-2.89-1.54-4.38a7,7,0,0,1-.06-2.25c0-.13.56-.39.61-.33.58.59,1.43,1.15,1.58,1.86a67.93,67.93,0,0,1,1,6.82A4.59,4.59,0,0,1,1035.74,439.2Zm3.91,1.95c0-2.22-1.23-4.1-.75-6.2l.57-.21c.35.76.72,1.51,1,2.29.14.37,0,.89.22,1.21C1041.54,439.54,1041,440.32,1039.65,441.15Zm9.75-.44c-.58-1.11-1-2.1-1.58-3a3.77,3.77,0,0,1,.26-4.34,10.77,10.77,0,0,1,1.67-1.72C1049.81,434.64,1050.22,437.64,1049.4,440.71Z" transform="translate(-677.79 -335.71)"></path><style data-made-with="vivus-instant">.YHGxqeEA_0{stroke-dasharray:1641 1643;stroke-dashoffset:1642;animation:YHGxqeEA_draw 1148ms ease-in 0ms forwards;}.YHGxqeEA_1{stroke-dasharray:23 25;stroke-dashoffset:24;animation:YHGxqeEA_draw 16ms ease-in 1148ms forwards;}.YHGxqeEA_2{stroke-dasharray:14 16;stroke-dashoffset:15;animation:YHGxqeEA_draw 10ms ease-in 1165ms forwards;}.YHGxqeEA_3{stroke-dasharray:14 16;stroke-dashoffset:15;animation:YHGxqeEA_draw 10ms ease-in 1176ms forwards;}.YHGxqeEA_4{stroke-dasharray:6878 6880;stroke-dashoffset:6879;animation:YHGxqeEA_draw 4813ms ease-in 1186ms forwards;}@keyframes YHGxqeEA_draw{100%{stroke-dashoffset:0;}}@keyframes YHGxqeEA_fade{0%{stroke-opacity:1;}96.07843137254902%{stroke-opacity:1;}100%{stroke-opacity:0;}}</style></svg>