<svg id="Layer_1" data-name="Layer 1" xmlns="http://www.w3.org/2000/svg" viewBox="0 0 723.94 207.06"><defs><style>.cls-1{fill:none;}.cls-2{fill:#fff;}.cls-3{fill:#39b54a;}</style></defs><title>into_the_wild</title><path class="cls-1" d="M1151.1,322.58c.62-.11,1.45-.13,2.1-.23h0C1152.55,322.45,1151.72,322.47,1151.1,322.58Z" transform="translate(-566.06 -160.57)"/><path class="cls-1" d="M1250.74,321.85c-1.2,2.66-2.47,5.3-3.58,8,1.11-2.7,2.38-5.33,3.58-8Z" transform="translate(-566.06 -160.57)"/><path class="cls-1" d="M1217.54,313.1c-2.14-2.83-4.18-5.73-6.28-8.59h0C1213.36,307.37,1215.4,310.27,1217.54,313.1Z" transform="translate(-566.06 -160.57)"/><path class="cls-1" d="M1139.3,307c-.91,1.57-1.88,3.11-2.8,4.67.92-1.56,1.89-3.1,2.8-4.67Z" transform="translate(-566.06 -160.57)"/><polygon class="cls-1" points="443.89 183.42 443.89 183.42 443.89 183.42 443.89 183.42"/><path class="cls-1" d="M908.12,339.81c-.18.85-.37,1.69-.56,2.56.19-.87.38-1.71.56-2.56Z" transform="translate(-566.06 -160.57)"/><path class="cls-1" d="M1010.69,341.68a6.76,6.76,0,0,1-.3,1.26A6.76,6.76,0,0,0,1010.69,341.68Z" transform="translate(-566.06 -160.57)"/><path class="cls-1" d="M1010.39,342.94a8.87,8.87,0,0,1-.43,1h0A8.87,8.87,0,0,0,1010.39,342.94Z" transform="translate(-566.06 -160.57)"/><path class="cls-1" d="M1018.65,327.6h0l-6,2.88Z" transform="translate(-566.06 -160.57)"/><path class="cls-1" d="M1202.28,319a4.75,4.75,0,0,1,.49-.1A4.75,4.75,0,0,0,1202.28,319Z" transform="translate(-566.06 -160.57)"/><path class="cls-1" d="M1213.35,306a10.91,10.91,0,0,0-.94-.7A10.91,10.91,0,0,1,1213.35,306Z" transform="translate(-566.06 -160.57)"/><path class="cls-1" d="M904.58,340a4.31,4.31,0,0,0-.46,1.05,4.31,4.31,0,0,1,.46-1.05Z" transform="translate(-566.06 -160.57)"/><path class="cls-1" d="M1017.86,328.76a9.27,9.27,0,0,0,.83-1.12h0A9.27,9.27,0,0,1,1017.86,328.76Z" transform="translate(-566.06 -160.57)"/><path class="cls-1" d="M1151.19,321.14l-.45-.42Z" transform="translate(-566.06 -160.57)"/><path class="cls-1" d="M1157,326.49c-.22.16-.51.32-.78.48.27-.16.56-.32.78-.48Z" transform="translate(-566.06 -160.57)"/><path class="cls-1" d="M1149.45,317.19a4.58,4.58,0,0,1,.71-1.83A4.58,4.58,0,0,0,1149.45,317.19Z" transform="translate(-566.06 -160.57)"/><path class="cls-1" d="M1009.48,310.68l.31.19h0Z" transform="translate(-566.06 -160.57)"/><path class="cls-1" d="M1149.45,317.19a4.08,4.08,0,0,0,1.21,3.46A4.08,4.08,0,0,1,1149.45,317.19Z" transform="translate(-566.06 -160.57)"/><path class="cls-1" d="M1202.28,319l-.25,0h0Z" transform="translate(-566.06 -160.57)"/><path class="cls-1" d="M692.53,318.53a2,2,0,0,1-.07-.43A2,2,0,0,0,692.53,318.53Z" transform="translate(-566.06 -160.57)"/><path class="cls-1" d="M1254.83,336.49l2.61-2h0Z" transform="translate(-566.06 -160.57)"/><path class="cls-1" d="M693.37,314.82a4,4,0,0,1,.44.11h0A4,4,0,0,0,693.37,314.82Z" transform="translate(-566.06 -160.57)"/><polygon class="cls-1" points="691.47 173.83 691.47 173.83 691.47 173.83 691.47 173.83"/><path class="cls-1" d="M692.55,317.29l0-.13Z" transform="translate(-566.06 -160.57)"/><path class="cls-1" d="M697.62,320.26l-.29.72Z" transform="translate(-566.06 -160.57)"/><path class="cls-1" d="M739.9,296.78a4.27,4.27,0,0,0-1-.54,4.27,4.27,0,0,1,1,.54Z" transform="translate(-566.06 -160.57)"/><path class="cls-2" d="M1270.58,335.87l14.93-10.62.48.38c-.16.37-.21.88-.5,1.1-4.14,3.19-8.24,6.42-12.49,9.47a6.12,6.12,0,0,0-2.85,5.41c0,7.37-.36,14.75-.28,22.12,0,2.85-1.17,3.69-3.93,3.68-3.88,0-7.76.22-11.64.22H606c-2.7,0-5.39-.18-8.09-.28-4.08-.15-6.55-1.9-7.43-5.72a37.11,37.11,0,0,1-.88-7.5c-.13-5.76-.34-11.54.06-17.28.26-3.71-1.41-6.06-4.17-8.16-4.84-3.67-9.69-7.32-14.52-11-.28-.21-.42-.59-.18-1.41l18.37,12.52a16.31,16.31,0,0,0-2.13-12.48c-5.24-8.68-10.61-17.3-15.95-25.93-1.65-2.69-3.36-5.34-5.05-8,9.65,9.84,16,21.69,22.75,33.32l.77-.25v-2.89q0-69.33,0-138.64c0-1.42,0-2.84.15-4.24.49-5.26,2.85-7.66,8.48-8.2,4.8-.46,9.63-.88,14.45-.88q319.61-.06,639.2,0a48.92,48.92,0,0,1,9.55,1.19c4.06.81,6,3.1,6.42,7.34.27,2.71.32,5.45.32,8.18q0,69.16.07,138.34c0,3.78.73,7.55,1.21,12.17,6.92-11,13.27-21.07,19.62-31.16l.94.5c-3.81,6.22-7.85,12.31-11.35,18.68s-7.23,12.45-8.79,19.45Z" transform="translate(-566.06 -160.57)"/><path d="M978.29,310.6h0l0-.05h0Z" transform="translate(-566.06 -160.57)"/><path d="M904.52,340h0Z" transform="translate(-566.06 -160.57)"/><path d="M1018.75,327.55h0l-.09.09Z" transform="translate(-566.06 -160.57)"/><path d="M904.63,339.85Z" transform="translate(-566.06 -160.57)"/><path class="cls-3" d="M1290,297.18l-.94-.5c-6.35,10.09-12.7,20.18-19.62,31.16-.48-4.62-1.21-8.39-1.21-12.17q-.12-69.18-.07-138.34c0-2.73-.05-5.47-.32-8.18-.42-4.24-2.36-6.53-6.42-7.34a48.92,48.92,0,0,0-9.55-1.19q-319.6-.09-639.2,0c-4.82,0-9.65.42-14.45.88-5.63.54-8,2.94-8.48,8.2-.13,1.4-.15,2.82-.15,4.24q0,69.32,0,138.64v2.89l-.77.25c-6.74-11.63-13.1-23.48-22.75-33.32,1.69,2.67,3.4,5.32,5.05,8,5.34,8.63,10.71,17.25,15.95,25.93a16.31,16.31,0,0,1,2.13,12.48l-18.37-12.52c-.24.82-.1,1.2.18,1.41,4.83,3.68,9.68,7.33,14.52,11,2.76,2.1,4.43,4.45,4.17,8.16-.4,5.74-.19,11.52-.06,17.28a37.11,37.11,0,0,0,.88,7.5c.88,3.82,3.35,5.57,7.43,5.72,2.7.1,5.39.28,8.09.28H1254.3c3.88,0,7.76-.24,11.64-.22,2.76,0,4-.83,3.93-3.68-.08-7.37.24-14.75.28-22.12a6.12,6.12,0,0,1,2.85-5.41c4.25-3.05,8.35-6.28,12.49-9.47.29-.22.34-.73.5-1.1l-.48-.38-14.93,10.62-.72-.56c1.56-7,5.36-13.19,8.79-19.45S1286.19,303.4,1290,297.18ZM592.34,359.87l-.47,0v-18.7h.47Zm2.85-6.52-1-.27V336.63l.55-.3c1.59,2.72,4.4,5.43,4.44,8.17C599.18,347.43,596.61,350.4,595.19,353.35Zm20.25,2c-3.65-2.19-3-8,1.66-11.67Zm-.07-15.85c-.41-7.5-.79-14.64-1.17-21.79l1-.18c1.31,4.9,2.64,9.79,3.94,14.69C620.11,336,619.67,336.9,615.37,339.48Zm14.35-9c0,1.9.32,3.28-.06,4.48-1.65,5.29-3.51,10.54-5.25,15.66C621.3,346.41,623.93,334.06,629.72,330.49Zm-5.4-15.76c-2.35-2.92-4.35-14-3.37-19,3.16,4,6.77,7.39,8.56,11.45.88,2-1.56,5.33-2.67,8A3.77,3.77,0,0,1,624.32,314.73Zm11.58,35.2a72.36,72.36,0,0,1-6.18,9.84c-1.9-7.85,1.45-15,2.32-22.74C637.21,340.71,638.46,345.22,635.9,349.93Zm-3-34c4.38,5,4.56,6.24,1.37,8.56C630,321.9,629.51,319,632.86,316Zm6,22.78q-2-3.19-3.95-6.39l1.14-.62q1.89,3.19,3.76,6.39Zm1.79,25.86-.76-.8q1-3.81,2.08-7.6l1.16-.06c.56,2.12,1.52,4.25,1.47,6.35C644.62,363.22,642.08,363.9,640.69,364.6Zm2.71-26.17c-2.21-4.1-7.28-7.07-4.71-13.06q3.1,6.27,6.2,12.55Zm-.08-21.17a24.79,24.79,0,0,1,3-4.32c6.71.43,7.18,8.31,2.21,18.05-1.91-3.29-3.92-6.37-5.47-9.65A5.56,5.56,0,0,1,643.32,317.26Zm5.65,36L645.12,342l1.36-.45q2.13,5.59,4.24,11.19Zm8.61-26.84c-1.35,6.83-2.64,13.65-1.23,20.66.27,1.35-.55,2.89-.87,4.34l-.58-.18c-1.61-5.2-3.38-10.37-4.73-15.63-.39-1.5.31-3.3.7-4.91,1-4,2.1-8,3.17-12C657.23,320.72,658.24,323.13,657.58,326.44Zm-10.42-15.1,14-17.46c4.92,3.61,8.47,8.38,6.23,13.55-2.11,4.88-3.15,10.16-4.66,15.26l-1.31.12c-.5-1.93-1-3.86-1.46-5.59C654.05,318.92,652.22,312.63,647.16,311.34Zm17.14,16.84c4.19,4.2,4,5.82-1.63,11.15C663.25,335.38,663.75,331.92,664.3,328.18ZM660,323.73c3.38,2.64,1.51,5.1.82,7.41C660.59,328.94,660.35,326.75,660,323.73Zm2.17,29.79-1-.21,2.58-11,1.11.23Q663.51,348,662.18,353.52Zm5.41,4.8-1-.05c.39-2.95.79-5.9,1.18-8.84l1.23.16C670.07,352.69,668.11,355.42,667.59,358.32Zm8-38.89a39,39,0,0,0-2.89,4.66c-1,1.56-1.89,3.14-3,4.89a8.37,8.37,0,0,1-3.9-7.32c0-2.84,1-5.7,1.71-8.5.14-.51,1.26-.8,1.92-1.19V304.7l.85-.31c2.53,3.57,5,7.14,7.85,11.11l-3.54-.53C676.49,316.16,677.19,317.47,675.59,319.43Zm5.4,2.22c2.55,1.92,2.39,3.67.78,5.63-1.36,1.65-2.59,3.39-4.28,5.61C676.44,328.14,679.52,325.28,681,321.65Zm-1.88,14.05c1.3-2.89,3.37-5.46,5.14-8.23,2.72,2.49,3.43,5.82,2,8.66-.14.27-.31.53-.48.79l-4.38,6.79C679.58,341.12,677.79,338.61,679.11,335.7Zm13.44-18.41,0-.13a7.11,7.11,0,0,1,1.23-2.23,4,4,0,0,0-.44-.11.25.25,0,0,0-.12,0c-1.86.87-3.74,2.54-5.7.31s.64-3.4,1.72-4.77c2-2.5,4.11-4.87,6.24-7.25a33,33,0,0,1,2.86-2.43c1.1,7.42,2.65,14,.7,20.95-.32-.62-.64-1.25-1.14-2.2-.11.29-.21.56-.31.81l-.29.72c-.08.21-.15.41-.23.61-2.75-.84-4.24-1.79-4.57-3.06a2,2,0,0,1-.07-.43A2.88,2.88,0,0,1,692.55,317.29Zm-6.94-5.86c2.48-4.57,4.68-9.37,9.6-12l.94,1Q690.89,305.93,685.61,311.43Zm.95,4.11c2.48,2.5,2.37,3.79-.61,5.6C683.36,317.31,683.36,317.31,686.56,315.54Zm3.51,40.94c-2-3.21-3.72-5.88-5.37-8.59a1.33,1.33,0,0,1,.09-1.11c1.39-2.56,2.82-5.1,4.24-7.65l.91.13C689.27,344.76,694.78,350,690.07,356.48Zm-2.41-33.74,2.73-3.05,5.73,4.75-2,2.55Zm9.7,16.44c3.21,1.59,2.94,3.08-1.24,7.21C696.56,343.81,697,341.54,697.36,339.18Zm1,12.7-.87-.27c-.62-2.39-.42-4.53,2-6l1,.39C699.77,348,699,349.92,698.32,351.88Zm4-47.88,10.13,7.16L703.15,318C705.2,313.18,700.15,309,702.35,304Zm2.43,52.31c-2.83-1.76-2.84-3.05-.24-8.31C707,350,707.05,351.31,704.78,356.31Zm6.05-11.44c-3.62-3-4-4.19-2.26-6.76C711.6,340.4,712.34,342.62,710.83,344.87Zm2.9-7.54c-4.64-2.77-4.11-6.9,1.19-10.76C714.51,330.27,714.13,333.69,713.73,337.33Zm-.26-14.41c-2,2.85-3.67,5.87-5.49,8.82-5.49-2.27-6.83-7.09-2.85-11.35,2.5-2.67,5.41-5,8.43-7.77C715.38,316.55,715.71,319.69,713.47,322.92Zm2.25,14.81q.51-6.64,1-13.29l.57-.17c1.41,2.59,2.84,5.17,4.18,7.79a1.49,1.49,0,0,1-.33,1.34c-1.53,1.62-3.15,3.17-4.73,4.75ZM719.36,321a7.71,7.71,0,0,1,1.5-2.27l1.07.54c.38,2.67.75,5.35,1.21,8.62C720.5,325.8,718.69,323.94,719.36,321Zm3.17,27.28-1-.2c-1.42-2.25-.54-4.11,1.24-5.82l1.12.24C723.4,344.43,723,346.36,722.53,348.29Zm3.82,5.73-1.24-.26q.85-3.74,1.73-7.47l1.28.26Zm2.17-40.7L725,314.44c3-.14,3.79,1.21,3.24,6-1.73-1.78-4.48-2.63-3.65-5.66-2.47-.59-2.42-2.35-1.76-4a45.18,45.18,0,0,1,2.88-5.23C729.3,306.53,729.77,308,728.52,313.32Zm4.64,29.08c-2.86-2.54-2.71-3.87.71-6.55C735.58,338.27,734.7,340.31,733.16,342.4Zm1.16-43.93a9.64,9.64,0,0,1,2.26-2.09,2.61,2.61,0,0,1,2.36-.14,4.27,4.27,0,0,1,1,.54c0-.14-.08-.29-.12-.43a2.26,2.26,0,0,1-.08-.44c0-.16.13-.32.45-1,4.43,3.79,8.79,7.39,13,11.18,1.88,1.7-.58,2.75-1.39,3.61-1.14,1.2-2,.19-2.8-1.05-2.6-3.87-5.48-7.58-8.26-11.35,2,3.55,4,7.1,6,10.65s2,4.06-1.92,6.54c-3.81-3.81-7.83-7.55-11.39-11.63C732.69,302.08,733.37,299.5,734.32,298.47Zm-.76-1.83.74-5.06.71-.27c.65,1,1.9,2.12,1.78,3.06s-1.57,1.78-2.44,2.65Zm14.86,21.79c-.41-.56.24-1.82.41-2.75,1,.36,2.53.47,2.92,1.14,1.67,2.9,3,6,4.48,9l-1.05.82C752.9,323.91,750.52,321.26,748.42,318.43ZM754,329.12l-.62.62c-1.33-.85-2.7-1.66-4-2.56-2-1.37-3.93-2.82-5.92-4.2-1.49-1-1.46-2.22-.16-3.21s2.41-1.53,3.69.26c1.79,2.5,3.9,4.8,5.84,7.21A19.05,19.05,0,0,1,754,329.12Zm1.87-8.69-3.76-6.62c-1-1.68.11-4.9,2-5.39.57-.15,2.14,1,2.17,1.54.21,3.49.11,7,.11,10.48Zm-12.63-5c-3,2.79-3.11,2.74-5.09-.05-1.25-1.76-2.86-3.3-4-5.12a42.78,42.78,0,0,1-2.46-5.42l1.14-.57C736.27,308,739.69,311.66,743.24,315.47Zm-9.91,8.31-1-.46v-5l.8-.56c.69.89,2,1.8,1.93,2.67C735,321.57,734,322.67,733.33,323.78Zm10.77,14.1c-2.57-3.46-5.34-6.82-7.55-10.47-.52-.86.88-2.73,1.94-4.07,3.74,4.29,5.41,9,7.2,13.7Zm2.35-9.17.95-.91,3.2,4.49C746.9,333.46,747.5,330.27,746.45,328.71Zm4,9.73c.19-1.3.07-2.75.69-3.84.29-.5,2-.28,3.08-.38.1.27.19.55.29.83-1,1.22-2,2.43-3,3.65Zm5.95,21.75c-.82-3.29-1.44-5.77-2-8.25a44.22,44.22,0,0,0-1.25-5c-1.27-3.47-.44-6.25,3.3-8.94Zm5.12-1.61c-1.06-4.19.67-7.63,2.44-11.68C767,351.38,766,355.56,761.55,358.58Zm3.15-33.93-2.06-8.2.64-.34,5,6Zm5.17-1.17c.21,2.11.34,3.41.51,5.13C766.45,326.81,766.38,326.39,769.87,323.48Zm-4.63,3.9c3.22,1.89,3.55,3.87,1.3,7.76C766.05,332.24,765.7,330.15,765.24,327.38Zm4,19.28c-.87-2.52-1.62-4.73-2.38-6.94C771,342,771.81,344.35,769.21,346.66Zm2.37-7.17c-3-1.35-3.39-3-1.6-6.47C772.05,334,772.29,335,771.58,339.49Zm-.71-35.95c3.71,3.27,3.4,7.67,3.82,11.82a3.18,3.18,0,0,1-1.65,2.32c-.49.28-1.72-.28-2.4-.74a23.53,23.53,0,0,1-4.2-3.3,48.77,48.77,0,0,1-3.61-4.93c.07,0-.75.15-.84,0-.94-1.84-2.56-3.77-2.47-5.6.36-7.15,1.28-14.27,2-21.4l.92-.48c5.15,5.75,10.35,11.47,15.44,17.26a44.4,44.4,0,0,1,2.93,4.33c2.08,3,1.88,5.54-.74,8.46-2.13-1.18-2.13-1.18-1.32-7.77l-2.45,4.19-7.56-8-.63.48A28.31,28.31,0,0,0,770.87,303.54Zm-8.62-28.85,1.19-.31,15.37,20-.46.39c-5.06-4.78-10.3-9.42-15.06-14.45C762.14,279.12,762.56,276.61,762.25,274.69Zm18,57.58q-1.57-4.92-3.13-9.83l1.26-.35q1.56,4.92,3.13,9.83Zm2.5-.15c-.23-5.91-5-10.75-3.71-16.66l1.05-.27c1.86,3.25,3.78,6.47,5.54,9.77C786.57,326.74,785.29,329.92,782.75,332.12ZM788.56,320l-.92.37q-1.92-4.17-3.82-8.34l1.16-.48C787.29,313.9,789.35,316.36,788.56,320Zm4.55,35.06c-2.48-3-2.4-6.44.38-11.26C796.54,349.74,796.39,352.8,793.11,355.06Zm6.23-37.6c-2.28-1-3.2-2.2-1.76-4.45s2.67-4.72,4-7.09C802.7,310.14,802.26,314,799.34,317.46Zm5.92,2.86c.57,3.24,1.11,6.29,1.64,9.34C802,323.21,801.93,322.69,805.26,320.32Zm5-19.42c-1.62,3,1.85,7.56-3.61,9.2-2.92-5.23-2.27-10,1.54-14.57,3.09-3.71,5.94-7.59,9.14-11.7,2.57,3.29,5,6.31,7.31,9.38,1.4,1.84-.16,2.83-1.55,3.56a8.8,8.8,0,0,1-2.68.65l-5.36,6.37-.86-.44c-.07-.91-.14-1.82-.3-3.67-.93,2.27-1.51,3.69-2.28,5.55Zm6.75-24.31a20.59,20.59,0,0,0,.81,3.44,3.24,3.24,0,0,1-1.25-.51c-2.55-2.43-5.12-4.85-7.52-7.41-1.77-1.89-1-7.5,1.09-9.15.9-.71,1.89-1.31,3-2.07,2.63,1.86,3.79,4.06,3.71,6.92S816.9,273.67,817.05,276.59Zm7.47-1.8c1-1.18,2.06-2.25,3.43-3.75l10.16,16.43c0,.09,0,.2.09.29,1,2,3.26,4.34,2.73,5.82-1.07,3-3.66,5.53-5.74,8.39-2-2.65-3.75-4.94-5.33-7.37-.25-.37.48-1.31.86-2.24-3.64,1.36-4.41-1.87-6.3-3.37a2.63,2.63,0,0,1-.89-1.23c-.73-2.51-5.37-3.28-3.81-6.59C820.83,278.84,822.84,276.87,824.52,274.79ZM822,263.45c4.71,3.77,5.2,7.47.76,11-.29-2.21-.62-4-.73-5.75S822,265.16,822,263.45Zm17.32,42.26-1.24-.63,4.27-7,1,.51C842.07,301,840.72,303.35,839.36,305.71ZM844.7,301c3.21,4.23,1.69,3.46-3.31,9.78C838.78,308.56,839.14,307.46,844.7,301ZM821.34,326.1c-3.79-.74-2.69-2.87-2.38-4.63l-4.39-.52c-.71-6-5.26-12.69,3.23-16.77,1.33,5.27,2.85,10.64,4,16.09C822.14,322.1,821.52,324.1,821.34,326.1Zm1.83-10.49a12.81,12.81,0,0,1,4.12-19.37c.49,1.67,1.6,3.32,1.25,4.64-1.13,4.37-2.78,8.62-4.27,12.9A10.21,10.21,0,0,1,823.17,315.61Zm6.6-13.93c2.54,1.88,3.54,3.39,1.82,6-2.26,3.47-4,7.21-6.69,10.56C826.49,312.85,828.07,307.44,829.77,301.68Zm-.61,20.61q2.37-5.28,4.76-10.56l1,.39-4.81,10.54Zm3.37-.5q2.07-4.28,4.12-8.56l1.16.48c-.1,3.38-3.77,5.29-4.3,8.49Zm2.06,9.07q2.89-5.14,5.8-10.29l1.3.57c.07,4.42-5.25,6.22-6,10.27Zm4.37,5.49a32.88,32.88,0,0,0,2.62-4.68l3.22,2.43c-1.86,2.58-3.59,5-5.33,7.36C837.07,340,837.34,338.35,839,336.35ZM847,348c-.81.58-3.07.68-3.48.16a4.7,4.7,0,0,1-.86-3.88,54.3,54.3,0,0,1,3.49-7l1.48.37a45.37,45.37,0,0,1,1.2,7A4.6,4.6,0,0,1,847,348Zm2.65-19.88c-2.55-5.25-2.57-5.67-.47-8.79C854.85,324.1,854.91,324.87,849.63,328.12Zm3.86-27.9c-.92-4.54-3.1-9-2.26-13s4.71-7.14,7.65-11.23C860.51,286.28,858.3,296.51,853.49,300.22Zm7.66,25.35c-.92-2.64,1.61-6.09,5.77-8.17a60.9,60.9,0,0,1-.11,8.19c-.18,1.26-1.48,2.38-2.28,3.56C863.36,328,861.64,327,861.15,325.57Zm4.09,19.62c-.36-3.62-.65-6.46-1-9.92C868.75,338,869.11,341.62,865.24,345.19Zm1.45-31.51c-.21,1.18-2,2.11-3,3.16l-.8-.59q2.43-8.07,4.88-16.14l.55.09C867.8,304.7,867.5,309.23,866.69,313.68Zm7,22.63c-3.78-3-3.91-8.07,0-11.8C874.05,328.75,876.23,332.45,873.66,336.31Zm2.48-2.34c-.27-4.51-.51-8.37-.76-12.56C882.57,323.73,881.48,329.52,876.14,334Zm.16-13.69,14.14-16c3.58,4.46,1.54,15.78-2.15,18.86-.61.5-1.67.53-3.09.94,0-.07-.13.49-.28,1.07C882.22,323.58,879.64,322.15,876.3,320.28Zm15.34,21.38-2-1.18c.07,2.39-.23,4.69-2.64,6.07a7.86,7.86,0,0,1-2.64.44,7.45,7.45,0,0,1-.28-2.21,17.53,17.53,0,0,1,1.33-4.64c.34-.68,1.61-.95,2.46-1.4-1.32-3-1-4.83,1.37-7.32C893.81,333.39,894.62,336.79,891.64,341.66Zm4.76-8.18c.12-3.91.51-7.82.83-11.74l1.57-.36a77.93,77.93,0,0,1,6.18,6.43c.51.63.12,2.55-.59,3.23a18.32,18.32,0,0,1-5.18,3.38C898.54,334.72,896.39,333.8,896.4,333.48Zm10.41-2.89,4.21,7.7-1.2.72-5.91-6.11Zm-6.93,23.59c.72-3.84-2.06-7.09.92-10.09C904.82,346.46,904.69,349.9,899.88,354.18Zm7.09-9.09a8.93,8.93,0,0,1-1.47-.85,4.39,4.39,0,0,1-1-.89,2.49,2.49,0,0,1-.42-2.35,4.31,4.31,0,0,1,.46-1.05h-.06l.07-.09a3.25,3.25,0,0,1-3.91-.86,3.5,3.5,0,0,1-.71-1.51c-.24-1.19,1.58-2.73,2.54-4.2,4,3.23,4.22,4,2.08,6.57h0l0,.1,3.54-.14h0c-.18.85-.37,1.69-.56,2.56S907.18,344.14,907,345.09Zm2.47,4.54c-3.07-2.13.06-3.26.59-4.94C912.6,346.64,912.55,346.94,909.44,349.63Zm11.12-16.54c-.56,2.1-1.12,4.19-1.77,6.64C915.56,336.86,915.91,335.31,920.56,333.09Zm1.11,6.54c.21,2.73.36,4.57.52,6.6C919.15,344.4,919.11,344.1,921.67,339.63Zm-1-12.25-4.8-12.84-.89.24c1,3.27,1.77,6.59,2.86,9.82,1.71,5.13,1.55,5.63-4.06,8.43l-11.93-15.22c1.84-1.26,3.32-2.25,4.77-3.28,4.92-3.55,9.77-7.19,14.77-10.64,3.62-2.51,3.76-2.44,6.26.88s5.08,7,7.77,10.67l-5.52,4.41-2.09-1.39c-.27,1.34-.55,2.66-.83,4l-5.22-3.31C923.94,322.29,925.93,325.39,920.69,327.38ZM930.1,323c.74,1.89,4,3.07,1.56,5.24-1.68,1.49-2.38-.64-3.24-1.7C927,324.7,927.48,323.64,930.1,323ZM925,332.41c.34-1.84.69-3.69,1-5.53l.89-.28c.58,1.23,1.74,2.52,1.59,3.66s-1.69,1.87-2.62,2.79Zm2.55.6,1.34.38q.82,3.45,1.63,6.91l-1,.6c-1.15-1.37-2.75-2.6-3.31-4.15C925.85,335.75,927,334.27,927.53,333Zm2.89,14.62-1.92,4.71-.78-.07c-.18-3.49-.36-7-.54-10.62C931.88,343.42,932,343.71,930.42,347.63ZM934.17,337c-.79-3.11-4.73-5.31-1.17-8.58C937,330.82,937.56,333.86,934.17,337Zm4.91-7.63a5.61,5.61,0,0,1-2.75-1.15,29.88,29.88,0,0,1-3-3.52c-2.68-3.21-2.58-4,.82-6.53.59-.43,1.19-.83,2.12-1.48,1.8,3.11,3.72,5.8,4.86,8.76C941.5,326.48,940,328.2,939.08,329.41Zm5.11,6c-.07.25-1.54.18-2.36.25.37-1.5.73-3,1.1-4.5l1.68.22A22.29,22.29,0,0,1,944.19,335.42Zm6.09-16c2.54,4.7,2.18,6.8-1.89,10.92C946,324.29,946.12,323.71,950.28,319.41ZM952.21,340c-2.26-2.77-2.68-5.5-.6-8.78C953.25,334.29,954.67,337,952.21,340Zm12-5.36c-.52-.81-1.29-2-1-2.65,1.06-2.77,2.47-5.41,3.88-8.37,5,3.48,2.75,8.38-1.22,11C965.46,334.92,964.35,334.9,964.2,334.66Zm5.39,5.51c-1-.72-2.05-1.43-3.25-2.26l2.74-3.52,1,.11.54,5.25Zm5.59,7.57c-3-3.2-2.89-4.53.71-6.23C975.65,343.63,975.42,345.58,975.18,347.74Zm8-3.24c-.78-2.41-1.37-4.19-1.95-6C985.49,340.17,985.69,340.8,983.16,344.5Zm-.23-12.38c.44-2.43,1.19-4.8,1.8-7.2l-.92-.27-2.54,8.15c-3.57-1.14-4.65-2.72-3.26-5.31,2.16-4,4.63-7.9,7.15-12.14l12.3,9.43-10.59,13.49C983.33,337.21,982.4,335,982.93,332.12Zm10.49,3,2.05,2.38-5,4.93-.71-.38Zm-2.16,17.24h-1.51l-.53-4.33C991.14,349.34,992.79,350.64,991.26,352.39Zm3.5-4.71-1,.33-2.2-3.12,3.13-1.32c-.79-2.3-.69-2.48,2.91-4.9.49,1.16,1.63,2.71,1.25,3.19-.82,1-2.43,1.47-3.71,2.15C995.05,345.23,994.91,346.45,994.76,347.68Zm3.76,8.13c-2.72-2.44-2.94-4.73-.69-8.53C999.82,349.52,999.87,350.41,998.52,355.81Zm3-16.72a21.87,21.87,0,0,1-4.43-1.95c-1.09-.81-2.68-2.74-2.37-3.24a37.82,37.82,0,0,1,5.25-6s1.76.9,1.93,1.56a32.67,32.67,0,0,1,.59,5.06l.36.11C1002.38,336.14,1001.94,337.61,1001.49,339.09Zm11.34,11.57a22.23,22.23,0,0,1-3.9-3c-1.15-1.38-.6-2.78,1-3.7h0l-3.28,1.58c-2.35-3.33-1.58-7.18,1.85-9.16a6.89,6.89,0,0,1,1.9,2.63,5.35,5.35,0,0,1,.26,2.67,6.76,6.76,0,0,1-.3,1.26h0a8.87,8.87,0,0,1-.43,1l0,0,0,.05h0c.49-.06,1.28-.23,1.66-.26.13,0,.21,0,.23,0,.8,2,1.46,4,2.15,6Zm9.64-10.41c-2-3.2.61-6.14-.23-9.38A6.25,6.25,0,0,1,1022.47,340.25Zm7.72,7.41c-3.64-1.45-3.68-3.16-.4-7.63l.92.05C1030.54,342.57,1030.36,345.07,1030.19,347.66Zm-2-36.7,3.78,12.55C1026.12,320.57,1028.67,315.38,1028.17,311Zm3.63,22.69a2.69,2.69,0,0,1-1.92.7,2.09,2.09,0,0,1-1-1.67c-.11-2.5,0-5,0-7.87C1033.65,327,1034.85,331.16,1031.8,333.65Zm7.82,9.47v-5.9l.82-.06c.12,2,.24,4,.37,6Zm-.73-35.82c-4.07-5.67-4.49-12-4.05-18.95C1042.89,294.27,1044.37,301.75,1038.89,307.3Zm1.24,22.93c.13-1.56,1.88-3,3.19-4.87,3.7,3.5,1.47,5.88,0,9.07C1042,332.78,1040,331.43,1040.13,330.23Zm8.53,21.8c-4.81-2.31-5.32-4.16-2.83-9.72C1049.67,345.4,1050.62,348.49,1048.66,352Zm2.92-34.39c-4.71-2-5.85-4.63-3.38-7.61C1049.49,312.47,1052.34,314.08,1051.58,317.64Zm-2.76-9.89,1.17-.61c1.24,2.11,2.49,4.22,3.73,6.34l-1,.54Zm3.68,37.8-4.71-7.09,2.18-1.53C1052.47,337.42,1054.42,343.28,1052.5,345.55Zm-.77-19,5,9.69C1051.38,331.23,1050.11,328.75,1051.73,326.53Zm13.08-1.58c-2-3.39-4.14-6.69-5.81-10.21-.48-1,.48-2.61.78-3.94h1.39q2.1,7,4.19,14ZM1062,309.4c-.27-1,.9-2.28,1.48-3.6,6.91,2.81,6.34,8.69,3.39,17.92C1065,318.59,1063.31,314,1062,309.4Zm9.81,18.89c-1.31.81-1.87,2.7-3,4.52-2.27-7.42,3.09-13.37,2-20.34,3.07,1,4.57,2.92,4.77,5.24C1075.89,321.63,1076.14,325.61,1071.77,328.29Zm7.42-18.2h-.93l-1.48,3-1.57-4.17c-.32,1.65-.48,2.51-.65,3.37l-1,1a7.69,7.69,0,0,0-1.18-2.46,56.79,56.79,0,0,0-6-5.13c-1.32-1-1.61-1.68-.61-2.94,2-2.56,4-5.18,6.36-8.22,1.09,1.66,2,3.08,2.93,4.42,1.56,2.17,3.14,4.33,4.83,6.4,3.5,4.28,3.84,7,1.37,12C1077.1,316,1078.26,313,1079.19,310.09Zm2.08,24.84c.38-3.12.68-5.59,1-8.09C1086.3,328.16,1084.8,331.15,1081.27,334.93Zm7-10.49c-3.16-3.06-3.57-6.76-3.6-11.08C1088.86,317.51,1090.25,321.91,1088.27,324.44Zm5.3,32.37c-3-2.34-3.2-5.09.27-9.56l.71,9.37Zm3.49-31.14,2.91-7.82.88.29c.31,3-.27,5.75-2.79,7.86Zm5.41,11.4c-4.65-3.47-2.43-8.24,3.15-14.62C1106.57,328.07,1102.67,332,1102.47,337.07Zm8.89,6.88c.31-2.08.63-4.17.94-6.25l1.13.05C1115.65,341.18,1115.65,341.18,1111.36,344Zm6.4-10.72c-.31,2.2-.54,3.86-.79,5.64C1114.2,336.72,1114.29,335.73,1117.76,333.23Zm-2.43-5.13,4.3-4.94.51.24c-.55,2.11-1.1,4.23-1.72,6.64Zm4,22.09c.68,3.19,1.32,6.19,2,9.59C1117.14,357.63,1116.38,353.93,1119.36,350.19Zm-6.86-24.78c-3.36-1.63-3.67-4-2.68-6.78.84-2.33,1.86-4.61,2.8-6.9l-.93-.61-7.14,6.95c-1.86-1.24-1.79-3.31-.85-5.45a17.53,17.53,0,0,1,2.52-4.52c4.59-5.27,9.33-10.41,14-15.6l.89.36c.34,3.77.69,7.54,1,11.32a14.8,14.8,0,0,0,.12,2.41C1124.47,315.41,1117.9,320.07,1112.5,325.41Zm-5.45-22.94c4.14-5.39,8.28-10.78,12.66-16.5,1.51,3,.84,5-1.34,6.92-3,2.61-5.66,5.49-8.51,8.22A4.46,4.46,0,0,1,1107.05,302.47Zm21.55,46.14c-.85,3.6-1.84,7.17-2.77,10.75l-.36-.07V342.77C1128.43,344,1129.21,346,1128.6,348.61Zm14.6-43.14-.12-.1h.05c-1.59-2-.3-2.94,1.93-4,.25,1.55.47,2.87.74,4.5l-2.67-.52.07.09c.49.43,1,.87,1.47,1.29,2.11,1.77,2.3,4.05.37,6.07-2.48,2.59-5,5.21-7.65,7.6a4.35,4.35,0,0,1-3,.21c-.41-1.36-1-3.08-.46-4.24a52.39,52.39,0,0,1,2.57-4.77c.92-1.56,1.89-3.1,2.8-4.67-.58.73-1.14,1.46-1.71,2.19-1.71,2.19-3.4,4.39-5.28,6.44-.74.8-2.41.84-3.65,1.22.11.5.28,1,.44,1.52a4.57,4.57,0,0,1,.29,2.43,12.11,12.11,0,0,1-3.37,5.08c0-2.71-.11-5.42.1-8.12,0-.53,1.27-1,2-1.49.55-1,.85-2.3,1.67-3.06,3.25-3,6.67-5.86,10.44-9.13V306Zm4.23,7.58a6,6,0,0,1-.45,2.26,80.46,80.46,0,0,1-5.64,7.61c-.55.63-2.09.51-3.17.74.17-.86.06-1.93.57-2.54,2.43-2.88,5-5.64,7.56-8.44Zm-13.11,13.17c.42-.47,1.87-.14,2.84-.18,0,1,.49,2.41,0,2.86-2.67,2.34-5.59,4.44-8.43,6.63l-1.07-1C1129.83,331.7,1132,328.86,1134.32,326.22Zm-7.52,5.31c.49-4.72,3.17-8.38,6-8.55C1133.24,325.22,1131.65,327.51,1126.8,331.53Zm2.71,11.56-1.65-4.33,1.28-.44C1130.68,339.41,1131.7,340.7,1129.51,343.09Zm12.5-7.83c-2,2.19-3.83,4.49-5.91,6.93-1.22-1.64,1.4-8.46,4.91-12.92C1143.9,331.2,1144.13,332.9,1142,335.26Zm3.34,11.37c-.15-2.45-.26-4.17-.36-5.9l.92,0C1148,344.33,1148,344.33,1145.35,346.63Zm7.05,9.66c-.89-2.3-1.79-4.59-2.68-6.88l1.51-.34,2.22,6.88Zm1-27.39v5.44C1150.25,332.72,1150.27,332.07,1153.4,328.9Zm-.16-6.65.09.08h0l-.13,0c-.6,1.43-1.21,2.85-1.81,4.28l-1.26-.21c0-1.17-.38-2.52.13-3.43a1.26,1.26,0,0,1,.84-.41c.62-.11,1.45-.13,2.1-.23l0-.06a8.06,8.06,0,0,1-2-1.15l-.45-.42a.27.27,0,0,1-.08-.07,4.08,4.08,0,0,1-1.21-3.46,4.58,4.58,0,0,1,.71-1.83,6.76,6.76,0,0,1,1.62-1.7C1155.5,316.59,1156.13,320.28,1153.24,322.25Zm1.6,11.12a51.43,51.43,0,0,1,.42-5.55c.06-.32.48-.59.94-.85.27-.16.56-.32.78-.48h0c.12.16.28.34.44.52s.33.35.48.53c.3.35.52.66.44.88a47.2,47.2,0,0,1-2.71,5.17Zm5.31,9.15c-4.75-5.73-4.75-6,0-11.46Zm2.38-9.77c4.25,4.48,4.33,5.52.66,9.31C1163,338.86,1162.76,336.08,1162.53,332.75Zm3,15.95c-1.44-3.21.74-4.35,2.42-6C1169.6,345.62,1167.18,346.74,1165.51,348.7Zm6.35,9.08h-1.48v-5.68h.93C1171.74,354,1174.09,355.72,1171.86,357.78Zm-.54-23.5a26.58,26.58,0,0,1-2.37,2.92c-5.89-6.26-7.67-11.61-5.55-16.75,3,2.54,5.93,4.67,8.4,7.16C1173.93,329.75,1172.59,332.15,1171.32,334.28Zm.68-15.14a4.58,4.58,0,0,0-.08,2.21,31.13,31.13,0,0,0,.88,3.1l-.61.39-8-6.39,9.31-6.13.94.5C1173.65,314.92,1172.75,317,1172,319.14Zm13.76-4.73q-3.49-2.85-7-5.69l.64-.55c3,1.3,4.27,4.12,6.36,6.24l1.74,1.41A10,10,0,0,1,1185.76,314.41Zm3.43,9-1.26,4.19-1.88-.46a33.15,33.15,0,0,1,1-3.92A9.06,9.06,0,0,1,1189.19,323.46Zm-2.44-3.9c.42.48-.2,2.38-.93,3-2.3,1.94-4.88,3.59-7.19,5.24l-2.44-1.26-1.26.5,1.29-16.42,1.43-.54C1180.71,313.22,1183.88,316.28,1186.75,319.56Zm-11.52,29.58.93-.36,2.13,4.87C1174.52,353.12,1175.19,351,1175.23,349.14Zm2.16-6.17c.51,2.06.94,3.76,1.36,5.46C1176.56,347.14,1174.41,345.84,1177.39,343Zm6.56-16.83,1.91,2.28-4.95,4.35C1178.24,330.06,1178.7,329.1,1184,326.14Zm0,31.42c-3.48-2.17-2.07-2.75.63-14C1189.8,349.72,1189.64,352.35,1184,357.56Zm7.85-10.85c-6.63-7.64-6.43-8.77-2.92-13.13C1194.7,339.32,1195.77,343.06,1191.85,346.71Zm3-9.76c-4.57-3.74-5.31-5.72-2.93-9.77,1.52,3.46,2.82,6.41,4.13,9.36Zm6.82-2.42c-1.57-4-5.46-6.93-5-11.67-.29-.66-1-1.56-.8-1.95,1.65-2.76,3.49-5.41,5.28-8.09l1.18.28-.36,6,.25,0a4.75,4.75,0,0,1,.49-.1c.06,0,.1,0,.11,0C1205.6,323.12,1206.21,331.37,1201.69,334.53Zm5.16-.7c.37,3.33.69,6.17,1,9.34C1203.36,339.69,1203,336.94,1206.85,333.83Zm1.47,21.34-2.12-8.76,1.26-.31c.62,3,1.23,5.91,1.84,8.87Zm5.85-1.3c-.22-2.13-.52-4.26-.65-6.39-.35-5.82-.6-11.65-1-17.47-.14-2.13.43-3.74,2.72-4.49C1220.72,335.22,1219.33,344.57,1214.17,353.87Zm11.13-26.38c-1.41,2.69-2.9,5.35-4.35,8l-1.21.07c-.63-3.29-1.3-6.57-1.89-9.87-.44-2.49,1.36-3.9,3.19-5.16a2.2,2.2,0,0,1,1.89.57C1224.41,323,1226.77,324.67,1225.3,327.49Zm3.31,4.59c2.63,1.76,2,3.36-3.5,10.3L1224,342C1225.5,338.72,1227,335.44,1228.61,332.08Zm-9.35,22,3.12-9.22,1.54.51-3.62,9Zm4.21,10.16c.72-2.13,1.37-4,2-5.93l.91.07c.55,2.17,1.09,4.33,1.8,7.14Zm13.63-3c-2.47-3.74-4.63-6.61-6.36-9.7-2.12-3.79,1.3-6.11,3.4-9.42C1237.17,348.4,1238.48,354.19,1237.1,361.29Zm-2.54-38.16c1.74,2.46,1.52,3.8-1,7C1230.6,328.23,1230.71,327.4,1234.56,323.13ZM1242,353.3c-1.26-5.71-5.67-10.67-4.72-17.1C1241,337.79,1243.43,346.36,1242,353.3Zm2.53-46.63c.17,6.15.74,12-4.59,16.56C1236.22,316.17,1237.49,311.51,1244.5,306.67Zm5.51,50.71c-.64-3.44-1.25-6.68-1.85-9.92C1252.19,350.52,1252.87,355.3,1250,357.38Zm6.19-4.9c-3.9-5.9-4.66-11,.43-16.23a2,2,0,0,0,.29-.41c.25-.44.39-1,.61-1.44h0l-.12.11,0,0-2.61,2-1.31,1c-1.18-10.53.2-20.63,1.9-30.71l-1.23-.22-3.45,15.29c-.37,7.1-.73,14.2-1.1,21.34-3-.93-3.94-2.68-3.06-6.5.92-4,2.22-8,3.35-11.94.28-1,.54-1.94.81-2.91-1.2,2.67-2.47,5.3-3.58,8-.68,1.65-1.12,3.39-1.93,5.9-2.27-4.3-3.48-7.62-1.48-11.57,3.5-6.91,3-14.35,2.57-22.71L1235,314c-9.19-15.22-21.11-28.12-33.83-40.49,1.2,1.76,2.34,3.56,3.62,5.26,7,9.31,14.06,18.56,21,27.9,2,2.63,3.48,5.55,5.36,8.24,1,1.43,1.43,2.51,0,4a31.85,31.85,0,0,0-3,4.41c-1.14-1.22-2.09-2.11-2.9-3.1-1.71-2.1-3.28-4.29-5-6.38-2-2.46-4.12-4.88-6.28-7.24a6.76,6.76,0,0,0-.62-.57,10.91,10.91,0,0,0-.94-.7c-.39-.27-.78-.53-1.15-.81,2.1,2.86,4.14,5.76,6.28,8.59.72.94,1.44,1.88,2.19,2.8,1.44,1.77,1.35,3.28-.29,4.44-2.09,1.48-4.62,2.4-6.73,3.86a45.12,45.12,0,0,0-4.73,4.48c-.8-2.92-1.54-5.59-2.25-8.26-.46-1.76-.57-3.67-1.39-5.27-1.86-3.65-.54-6.41,2.28-8.88,1.15-1,2.45-1.86,3.68-2.79-.32-.6-.63-1.2-1.14-2.15l-6.88,6.84c-1.15-2.4-2.17-4.52-3.2-6.64l-.49.21c.45,3.24,2,6.78,1,9.65s-4.23,5.19-6.85,8.15c-3.22-3.48-6.37-6.87-9.48-10.28-.68-.76-1.16-1.69-1.84-2.44-2.64-2.92-4.27-6-2.79-10a14.9,14.9,0,0,0,.7-6.9l-4.66,14.79c-2.65,4.36-6.78,7.39-11.33,10.28-.33-.5-.66-1-1.28-1.92-.27,1.29-.44,2.12-.62,3l-1,.37-3.47-7c-.23,1.23-.39,2.11-.61,3.29l-3.26-.95c1.79-2.53,3.42-4.85,5.06-7.16l-.74-.69c-1.51,1.59-3.31,3-4.45,4.8-1.31,2-2.28,1.76-3.58.23a17.74,17.74,0,0,1-1.49-2c-2.86-4.48-2.32-6.94,2.27-9.89,4.09-2.63,8.27-5.14,12.35-7.78a7.55,7.55,0,0,0,2.7-3.05l-19.07,11-2.24-2.73c1.74,4.28-1.47,5.77-4.41,7.72-4.79,3.18-9.31,6.7-14.58,10.54,1.06-3.42,2-6.28,2.85-9.14l-.49-.24-2.31,3.08c-.72-5.24-1.37-9.93-2-14.61a9.85,9.85,0,0,0-.31-2.7c-1.47-3.18-2.1-6.18,1.16-9l-2.54.89c-1.92-6.26-3.81-12.45-5.71-18.64l-1,.2c.48,2.25.93,4.5,1.45,6.74a63.05,63.05,0,0,0,2.23,8.83c1.66,4.24-.31,7.2-2.89,10.38-7.34,9.06-14.46,18.27-21.67,27.42-.32.4-.63.81-1.2,1.55-2.07-2.9-4.19-5.53-5.84-8.4a5.54,5.54,0,0,1-.08-4.09c2.82-8.47,5.83-16.87,8.76-25.31.61-1.75,1.12-3.53,1.67-5.3l-1.26-.4-12,31.07c-3.48-4-6.71-7.59-9.78-11.32-.34-.43,0-1.68.43-2.28,1.58-2.12,3.34-4.12,5-6.17l-.55-.59a27.7,27.7,0,0,0-3.46,3c-3.21,3.85-4.12,3.86-7,0a31.44,31.44,0,0,0-2.88-3l-.65.45a43.67,43.67,0,0,0,4.18,5.85c1.49,1.52,1.24,2.33-.1,3.73-2.32,2.44-4.36,5.14-6.58,7.8l-5.12-3.2c-.14.26-.33.5-.28.55,3.76,4,3.7,4,3.07,4.92-1.24,1.84-2.41,3.73-3.73,5.79a46.42,46.42,0,0,1-4.28-6,4.87,4.87,0,0,1,.28-3.9c1.81-3.54,4-6.91,5.91-10.4a33.71,33.71,0,0,0,1.62-4l-.84-.51-11.62,12.07c-6.41-4.78-10.24-11.72-17-16.13,3.33,2.61,2.63,5.85,2.56,9.21-.17,7.59.51,15.1,4.27,22.11,2.46,4.58-.48,8.5-3,12.61-4.38-13.33-8.76-26.67-13.28-40.45,1.2,11.05,2.36,21.76,3.59,33l-13.83-6.77c2.35,1.54,4.74,3,7,4.63,5.12,3.58,5.49,2.74,3.71,9.29l-11.29-10.49c2.13,2.69,4.38,5.3,6.33,8.1a25.39,25.39,0,0,1,2.1,4.72l.12-.06h0l-.06.09,2.2.27c-.23,3.23-.47,6.48-.71,9.86-4.45-2-5.32-5.91-2.32-9a9.27,9.27,0,0,0,.83-1.12h0v0l-6,2.88-.73-1.8c-.15.24-.31.48-.46.73-1-.55-2.36-.88-3-1.69-3.32-4.49-2.92-9.42-1.81-14.72l2.28,1-2.47-3.89,1.84.44,1.47.36-.31-.19a4.51,4.51,0,0,1-1.49-1.32,4.63,4.63,0,0,1-.5-3.52q.87-4.45,1.67-8.93a10,10,0,0,0,0-1.64l-1-.18c-1.53,7-3.07,14-4.73,21.65-9.08-14.57-15.88-30-28.14-42.23.81,1.38,1.57,2.79,2.43,4.14,5.48,8.65,11.25,17.15,16.34,26,2.52,4.37,3.89,9.35,5.51,14.13.39,1.14-.31,2.61-.52,3.92a14.68,14.68,0,0,1-3.69-1.22,96.32,96.32,0,0,1-8.25-6.18c-.69-.57-.73-1.83-1.1-2.89-3,2.46-5-1.16-7.7-1.85l0,.05,5.47,4.55c-2.65,4.12-5.28,8.23-8,12.42-1.8-1-3.49-1.77-5.06-2.74-2.26-1.38-2.3-3.23-.89-5.17,1.94-2.66,3.89-5.31,6-7.85.51-.62,1.62-.81,2.45-1.2h0l-.09-.09.11,0,2-4.91C972,312.23,965.84,320.37,960,328.8l-1-.19,1.11-11.33-.83-.07c-.53,2.18-.94,4.41-1.66,6.54-.2.63-1.25,1-1.92,1.5a12.28,12.28,0,0,1,.51,2c.27,1.84-.22,3.24-1.81,5.83-.53-3-1-5.39-1.29-7.77,0-.36.87-.82,1.34-1.24-.46-3.32-.92-6.65-1.51-10.84l-9.45,10.5L938.22,314c-1.52-1.5-3.22-3-4.7-4.68-4.26-4.83-8.4-9.74-12.65-14.57a4.65,4.65,0,0,0-2.71-1.33l5.67,7.31-22.44,15-2.89-1.82c0-5.22,2.15-10.37,4.87-15.31,3.42-6.17,6.74-12.43,10.66-18.32,4.49-6.75,8.51-13.77,13.46-20.26.14-.19.07-.54.1-.81l-.82-.52-11.72,15.94c-2.19-8.1-1.1-15.38.64-23l8.34,2.64c2-4,1.28-5.59-3-5.77-6.57-.28-13.17-.27-19.75-.14-3.63.08-4.21,1.71-2.59,7,1.4-1.09,2.61-2.13,3.93-3,3.26-2.22,5.18-1.52,5.56,2.17.8,7.65,1.9,15.34-2.2,22.58a6.1,6.1,0,0,0-.3,1.73h6.27c-5.9,10.3-11.59,20.25-17.23,30.11q-3-13.29-6-26.55l-1.29.23,3.46,20.07-15.76,16c-2.5-5.26-2.37-5.65,1.72-8.63a59.58,59.58,0,0,0,8.65-7.32L871.37,311c-.18-3.07-.67-5.56-.39-8,.81-7,1.82-14,3-21,.24-1.41,1.53-2.66,2.34-4l1.09.33c-.51-2.25-1.14-4.49-1.51-6.77a22.88,22.88,0,0,1-.35-5.41c.24-3.1,1.57-4,4.82-4a9.89,9.89,0,0,0,3.45-1c.08,0-.15-1.58-.59-1.8a8,8,0,0,0-3.32-.88c-4-.1-8.08,0-12.59,0,4,6.73,3.86,13.26.46,20.12l5.49.5c-4.5,13.28-8.92,26.37-13.53,40-1.37-2.9-2.87-5.22-3.53-7.74-.48-1.84-.55-4.28.37-5.86,4.31-7.45,4.58-15.45,4.51-23.58,0-2,.82-4,.49-5.92-.6-3.54,2.21-5.16,3.92-7.46.27-.36,0-1,0-2-2.73,2.81-5.18,5.21-7.45,7.74-1.28,1.42-2.7,2.26-4.4,1.11a26.09,26.09,0,0,1-3.6-3.53c1.23-1,2.31-2.28,3.73-2.85,3.05-1.22,6.28-2.06,9.37-3-1.29-5.93-3.87-8.5-8.17-8.64-4.56-.15-8.54,2.92-10.15,7.48-1.9,5.34,1,13.42,8.29,14.86l-7.87,8.49-6-8.55,2.21-3.35c-4.92-1-7.3-3.67-6.36-7.9.76-3.41,2.39-6.65,3.56-9.76-1-1.44-2.19-3.21-3.46-4.92a19.15,19.15,0,0,0-1.82-1.9,12.51,12.51,0,0,0-1.89,1.89c-1,1.63-1.9,3.35-2.56,4.56.23,2.39.43,4.43.66,6.79-11.85-12.83-23.33-25.28-34.82-37.73l-1.05.8,24,28.92-.53.86-16.66,1c3.52,6.25,3.16,12.82-.42,19.5h8.43v-4.32l.63-.36c1.95,2.51,4,5,5.8,7.58a2.35,2.35,0,0,1-.37,2.2c-3.37,4.15-6.85,8.23-10.84,13-2.55-8.2-6.69-15.15-7.76-23.51-.13-.12-1.21-.65-1.53-1.45-1.52-3.76-2.83-7.6-4.31-11.67l-7.2.55c-.23-.29-.32-.36-.35-.45-1.74-6.79,1.19-9.46,8.38-7.56,1.51.39,3,.9,4.79,1.45-.79-3.39-2.06-5.38-6-5.21-5.17.22-10.36,0-15.54-.07a9.35,9.35,0,0,0-1.35.22c4,10.07,3.71,20-.28,30.1h22.41c1.89,6.25,3.94,12.61,5.65,19.05a6.22,6.22,0,0,1-1,4.25c-1.66,2.8-3.66,5.42-5.58,8.2-2.36-3.47-4.54-7-7.08-10.31-4.58-6-9.35-11.79-14.11-17.61-2.09-2.56-4.3-5-6.58-7.43-2.72-2.88-3-6.06-1.93-9.62,1.61-5.55,3-11.14,4.53-16.72a6.12,6.12,0,0,0,0-1.42l-1-.24-6.83,22.38-3.56-3.18-.74.31c1.76,3,5.68,5.57,2.73,9.77-1.19-.78-2.46-1.61-3.72-2.45l-.44.34a35.51,35.51,0,0,1,3,3.76,5.66,5.66,0,0,1,1,3.35c-.64,5.2-1.53,10.36-2.47,16.43l-3.32-6.16-.49.16,3.68,11.63-.77.43c-4.81-3.48-9.48-7.15-14.47-10.39-4.17-2.71-7.86-5.29-4.82-11l-1,.1-2,4.74-19.29-10.93-.45.22a12.39,12.39,0,0,0,2.13,2.26c3.53,2.32,7.19,4.47,10.71,6.8a34.29,34.29,0,0,1,5.12,4.05,3.33,3.33,0,0,1,.62,2.7,28.4,28.4,0,0,1-1.76,5.5c-.27.63-1.25,1-1.94,1.44-.3.19-.81.15-1,.38-1.44,1.61-1.76,1.58-3.21-.12-1.91-2.24-3.89-4.43-5.84-6.65l-.94.65,6.92,9.25-3.56,2.07c-.6-1.36-1.11-2.48-1.81-4-.88,2.68.27,5.7-3.47,7V302l-.83-.2L713.41,307c-4-3.76-8.88-5.67-11.86-10.31-2-3.19-2.25-6.56-3.49-9.76-1.68-4.31-2.52-8.9-3.71-13.37l-.86.15c.37,2.17.66,4.36,1.13,6.51s1.26,4.29,1.66,6.47.51,4.42.83,7.44l-5.77-3.46c0,.4-.08.62,0,.7,1.13,1.17,3.14,2.27,3.21,3.47s-1.69,2.61-2.76,3.84c-3.9,4.51-7.85,9-11.92,13.65-2.8-3.35-5.78-6.53-8.19-10-.72-1-.14-3.11.32-4.58.93-2.89,2.2-5.69,3.28-8.54a13.69,13.69,0,0,0,.43-1.92l-.78-.28-5.65,12.35-7.72-8c-5.38,6-10.65,11.9-16,17.85l-2.81-1.81-.51.41,2.4,3.17-4.38,4.86c-4.71-3.91-5.16-6.83-2.49-11.23a265.9,265.9,0,0,1,26.47-36.07,107.45,107.45,0,0,0,8.4-11.19c-14.82,15-29.81,29.85-40.52,48.56l-14.09-15.52-1,.62c3.1,2.17,2.65,5.14,2.33,8a35,35,0,0,0,3.17,19.22c1.59,3.39,1.14,5.86-2.12,11.9L608.27,294c2.36,12.87,4.16,25.83,3.35,39.49l-9.71-10-.53.39c2.65,3.3,5.25,6.64,8,9.88,3.51,4.19,2.89,11.59-1.57,15.44-2-2.13-1.11-4.28-.26-6.42a27.49,27.49,0,0,0,2-6.42l-7.21,5.33c-5.22-6.72-9.2-13.66-6.46-22.68,1.07-3.53.64-7.44,1.08-11.16a57.91,57.91,0,0,1,1.34-6l-1.13-.23q-2.19,10-4.39,20l-.88,0c-.14-1.81-.41-3.61-.41-5.42q0-59.78,0-119.54c0-8.09,0-16.18-.05-24.27,0-7.2,2.28-9.41,10-9.64,1,0,1.94,0,2.92,0h649.28c11,0,12.68,1.46,12.69,11.64q.06,68.42,0,136.83c0,2.88-.19,5.77,0,8.64a8.25,8.25,0,0,1-2.85,7.26c-2.29,2.17-4,4.85-6,7.3l0,0c1.9-1.94,3.8-3.87,5.69-5.81,1.06-1.09,2.1-2.2,3.22-3.37,3.16,4.86.36,14.92-5.5,20.15l-6.45-4.67C1254.59,344.71,1259.33,348.12,1256.2,352.48ZM848.32,265.66c1.64-1.78,2.76-3,3.84-4.18,1.7-1.92,3.47-1.26,5,.1a3.31,3.31,0,0,1,.93,2.68c-.1.57-1.38,1.27-2.19,1.34C853.66,265.78,851.43,265.66,848.32,265.66Zm-55.12,8c-3.23,1.65-7.23,2.78-9.78.43-1.76-1.62-1.24-5.41-1.8-8.6C792.58,266.75,790.22,265,793.2,273.71Zm475.25,81.61c-5.5-6.06-5.42-9.69,0-13.39Z" transform="translate(-566.06 -160.57)"/><polygon points="338.52 179.37 338.52 179.37 338.52 179.37 338.52 179.37 338.52 179.37"/><polygon points="587.27 161.76 587.27 161.76 587.27 161.76 587.27 161.76"/><path d="M1143.09,305.37h0l.12.1h0Z" transform="translate(-566.06 -160.57)"/><path class="cls-2" d="M1263.45,327.17a8.25,8.25,0,0,0,2.85-7.26c-.23-2.87,0-5.76,0-8.64q0-68.41,0-136.83c0-10.18-1.7-11.64-12.69-11.64H604.27c-1,0-1.95,0-2.92,0-7.68.23-10,2.44-10,9.64,0,8.09.05,16.18.05,24.27q0,59.78,0,119.54c0,1.81.27,3.61.41,5.42l.88,0q2.21-10,4.39-20l1.13.23a57.91,57.91,0,0,0-1.34,6c-.44,3.72,0,7.63-1.08,11.16-2.74,9,1.24,16,6.46,22.68l7.21-5.33a27.49,27.49,0,0,1-2,6.42c-.85,2.14-1.7,4.29.26,6.42,4.46-3.85,5.08-11.25,1.57-15.44-2.72-3.24-5.32-6.58-8-9.88l.53-.39,9.71,10c.81-13.66-1-26.62-3.35-39.49l12.17,36.16c3.26-6,3.71-8.51,2.12-11.9A35,35,0,0,1,619.39,299c.32-2.86.77-5.83-2.33-8l1-.62,14.09,15.52c10.71-18.71,25.7-33.56,40.52-48.56a107.45,107.45,0,0,1-8.4,11.19,265.9,265.9,0,0,0-26.47,36.07c-2.67,4.4-2.22,7.32,2.49,11.23l4.38-4.86-2.4-3.17.51-.41,2.81,1.81c5.31-5.95,10.58-11.84,16-17.85l7.72,8L674.94,287l.78.28a13.69,13.69,0,0,1-.43,1.92c-1.08,2.85-2.35,5.65-3.28,8.54-.46,1.47-1,3.54-.32,4.58,2.41,3.51,5.39,6.69,8.19,10,4.07-4.65,8-9.14,11.92-13.65,1.07-1.23,2.83-2.61,2.76-3.84s-2.08-2.3-3.21-3.47c-.09-.08,0-.3,0-.7l5.77,3.46c-.32-3-.42-5.25-.83-7.44s-1.19-4.3-1.66-6.47-.76-4.34-1.13-6.51l.86-.15c1.19,4.47,2,9.06,3.71,13.37,1.24,3.2,1.44,6.57,3.49,9.76,3,4.64,7.87,6.55,11.86,10.31l1.79-5.23.83.2v5.8c3.74-1.29,2.59-4.31,3.47-7,.7,1.55,1.21,2.67,1.81,4l3.56-2.07L718,293.52l.94-.65c2,2.22,3.93,4.41,5.84,6.65,1.45,1.7,1.77,1.73,3.21.12.21-.23.72-.19,1-.38.69-.44,1.67-.81,1.94-1.44a28.4,28.4,0,0,0,1.76-5.5,3.33,3.33,0,0,0-.62-2.7,34.29,34.29,0,0,0-5.12-4.05c-3.52-2.33-7.18-4.48-10.71-6.8a12.39,12.39,0,0,1-2.13-2.26l.45-.22,19.29,10.93,2-4.74,1-.1c-3,5.75.65,8.33,4.82,11,5,3.24,9.66,6.91,14.47,10.39l.77-.43-3.68-11.63.49-.16,3.32,6.16c.94-6.07,1.83-11.23,2.47-16.43a5.66,5.66,0,0,0-1-3.35,35.51,35.51,0,0,0-3-3.76l.44-.34c1.26.84,2.53,1.67,3.72,2.45,2.95-4.2-1-6.75-2.73-9.77l.74-.31,3.56,3.18L768,247l1,.24a6.12,6.12,0,0,1,0,1.42c-1.49,5.58-2.92,11.17-4.53,16.72-1,3.56-.79,6.74,1.93,9.62,2.28,2.41,4.49,4.87,6.58,7.43,4.76,5.82,9.53,11.65,14.11,17.61,2.54,3.3,4.72,6.84,7.08,10.31,1.92-2.78,3.92-5.4,5.58-8.2a6.22,6.22,0,0,0,1-4.25c-1.71-6.44-3.76-12.8-5.65-19.05H772.68c4-10.08,4.25-20,.28-30.1a9.35,9.35,0,0,1,1.35-.22c5.18,0,10.37.29,15.54.07,3.92-.17,5.19,1.82,6,5.21-1.8-.55-3.28-1.06-4.79-1.45-7.19-1.9-10.12.77-8.38,7.56,0,.09.12.16.35.45l7.2-.55c1.48,4.07,2.79,7.91,4.31,11.67.32.8,1.4,1.33,1.53,1.45,1.07,8.36,5.21,15.31,7.76,23.51,4-4.73,7.47-8.81,10.84-13a2.35,2.35,0,0,0,.37-2.2c-1.82-2.6-3.85-5.07-5.8-7.58l-.63.36v4.32h-8.43c3.58-6.68,3.94-13.25.42-19.5l16.66-1,.53-.86-24-28.92,1.05-.8c11.49,12.45,23,24.9,34.82,37.73-.23-2.36-.43-4.4-.66-6.79.66-1.21,1.53-2.93,2.56-4.56a12.51,12.51,0,0,1,1.89-1.89,19.15,19.15,0,0,1,1.82,1.9c1.27,1.71,2.46,3.48,3.46,4.92-1.17,3.11-2.8,6.35-3.56,9.76-.94,4.23,1.44,6.92,6.36,7.9l-2.21,3.35,6,8.55,7.87-8.49c-7.32-1.44-10.19-9.52-8.29-14.86,1.61-4.56,5.59-7.63,10.15-7.48,4.3.14,6.88,2.71,8.17,8.64-3.09,1-6.32,1.81-9.37,3-1.42.57-2.5,1.88-3.73,2.85a26.09,26.09,0,0,0,3.6,3.53c1.7,1.15,3.12.31,4.4-1.11,2.27-2.53,4.72-4.93,7.45-7.74,0,1,.23,1.64,0,2-1.71,2.3-4.52,3.92-3.92,7.46.33,1.9-.51,3.94-.49,5.92.07,8.13-.2,16.13-4.51,23.58-.92,1.58-.85,4-.37,5.86.66,2.52,2.16,4.84,3.53,7.74,4.61-13.61,9-26.7,13.53-40l-5.49-.5c3.4-6.86,3.49-13.39-.46-20.12,4.51,0,8.55-.06,12.59,0a8,8,0,0,1,3.32.88c.44.22.67,1.76.59,1.8a9.89,9.89,0,0,1-3.45,1c-3.25,0-4.58.86-4.82,4a22.88,22.88,0,0,0,.35,5.41c.37,2.28,1,4.52,1.51,6.77l-1.09-.33c-.81,1.32-2.1,2.57-2.34,4-1.17,7-2.18,14-3,21-.28,2.4.21,4.89.39,8l14.1-8.22a59.58,59.58,0,0,1-8.65,7.32c-4.09,3-4.22,3.37-1.72,8.63l15.76-16-3.46-20.07,1.29-.23q3,13.26,6,26.55c5.64-9.86,11.33-19.81,17.23-30.11h-6.27a6.1,6.1,0,0,1,.3-1.73c4.1-7.24,3-14.93,2.2-22.58-.38-3.69-2.3-4.39-5.56-2.17-1.32.89-2.53,1.93-3.93,3-1.62-5.29-1-6.92,2.59-7,6.58-.13,13.18-.14,19.75.14,4.32.18,5,1.76,3,5.77l-8.34-2.64c-1.74,7.59-2.83,14.87-.64,23l11.72-15.94.82.52c0,.27,0,.62-.1.81-5,6.49-9,13.51-13.46,20.26-3.92,5.89-7.24,12.15-10.66,18.32-2.72,4.94-4.84,10.09-4.87,15.31l2.89,1.82,22.44-15-5.67-7.31a4.65,4.65,0,0,1,2.71,1.33c4.25,4.83,8.39,9.74,12.65,14.57,1.48,1.67,3.18,3.18,4.7,4.68l5.27,9.77,9.45-10.5c.59,4.19,1,7.52,1.51,10.84l1.25,1.15h0c.67-.5,1.72-.87,1.92-1.5.72-2.13,1.13-4.36,1.66-6.54l.83.07L959,328.61l1,.19c5.82-8.43,12-16.57,20.24-23.16-.65,1.64-1.3,3.27-1.94,4.92,2.72.69,4.72,4.31,7.7,1.85.37,1.06.41,2.32,1.1,2.89a96.32,96.32,0,0,0,8.25,6.18,14.68,14.68,0,0,0,3.69,1.22c.21-1.31.91-2.78.52-3.92-1.62-4.78-3-9.76-5.51-14.13-5.09-8.85-10.86-17.35-16.34-26-.86-1.35-1.62-2.76-2.43-4.14,12.26,12.25,19.06,27.66,28.14,42.23,1.66-7.61,3.2-14.63,4.73-21.65l1,.18a10,10,0,0,1,0,1.64q-.79,4.47-1.67,8.93a4.63,4.63,0,0,0,.5,3.52,4.51,4.51,0,0,0,1.49,1.32l.31.19h0l1,.48,13.83,6.77c-1.23-11.25-2.39-22-3.59-33,4.52,13.78,8.9,27.12,13.28,40.45,2.51-4.11,5.45-8,3-12.61-3.76-7-4.44-14.52-4.27-22.11.07-3.36.77-6.6-2.56-9.21,6.75,4.41,10.58,11.35,17,16.13l11.62-12.07.84.51a33.71,33.71,0,0,1-1.62,4c-1.93,3.49-4.1,6.86-5.91,10.4a4.87,4.87,0,0,0-.28,3.9,46.42,46.42,0,0,0,4.28,6c1.32-2.06,2.49-3.95,3.73-5.79.63-.93.69-.89-3.07-4.92,0-.05.14-.29.28-.55l5.12,3.2c2.22-2.66,4.26-5.36,6.58-7.8,1.34-1.4,1.59-2.21.1-3.73a43.67,43.67,0,0,1-4.18-5.85l.65-.45a31.44,31.44,0,0,1,2.88,3c2.89,3.89,3.8,3.88,7,0a27.7,27.7,0,0,1,3.46-3l.55.59c-1.69,2.05-3.45,4.05-5,6.17-.44.6-.77,1.85-.43,2.28,3.07,3.73,6.3,7.34,9.78,11.32l12-31.07,1.26.4c-.55,1.77-1.06,3.55-1.67,5.3-2.93,8.44-5.94,16.84-8.76,25.31a5.54,5.54,0,0,0,.08,4.09c1.65,2.87,3.77,5.5,5.84,8.4.57-.74.88-1.15,1.2-1.55,7.21-9.15,14.33-18.36,21.67-27.42,2.58-3.18,4.55-6.14,2.89-10.38a63.05,63.05,0,0,1-2.23-8.83c-.52-2.24-1-4.49-1.45-6.74l1-.2c1.9,6.19,3.79,12.38,5.71,18.64l2.54-.89c-3.26,2.81-2.63,5.81-1.16,9a9.85,9.85,0,0,1,.31,2.7c.63,4.68,1.28,9.37,2,14.61l2.31-3.08.49.24c-.89,2.86-1.79,5.72-2.85,9.14,5.27-3.84,9.79-7.36,14.58-10.54,2.94-1.95,6.15-3.44,4.41-7.72l2.24,2.73,19.07-11a7.55,7.55,0,0,1-2.7,3.05c-4.08,2.64-8.26,5.15-12.35,7.78-4.59,2.95-5.13,5.41-2.27,9.89a17.74,17.74,0,0,0,1.49,2c1.3,1.53,2.27,1.8,3.58-.23,1.14-1.79,2.94-3.21,4.45-4.8l.74.69c-1.64,2.31-3.27,4.63-5.06,7.16l3.26.95c.22-1.18.38-2.06.61-3.29l3.47,7,1-.37c.18-.83.35-1.66.62-3,.62.92,1,1.42,1.28,1.92,4.55-2.89,8.68-5.92,11.33-10.28l4.66-14.79a14.9,14.9,0,0,1-.7,6.9c-1.48,4,.15,7.06,2.79,10,.68.75,1.16,1.68,1.84,2.44,3.11,3.41,6.26,6.8,9.48,10.28,2.62-3,5.92-5.22,6.85-8.15s-.59-6.41-1-9.65l.49-.21c1,2.12,2.05,4.24,3.2,6.64l6.88-6.84c.51.95.82,1.55,1.14,2.15l1,1h0c.38.28.77.54,1.16.81a10.91,10.91,0,0,1,.94.7,6.76,6.76,0,0,1,.62.57c2.16,2.36,4.24,4.78,6.28,7.24,1.72,2.09,3.29,4.28,5,6.38.81,1,1.76,1.88,2.9,3.1a31.85,31.85,0,0,1,3-4.41c1.43-1.46,1-2.54,0-4-1.88-2.69-3.4-5.61-5.36-8.24-6.94-9.34-14-18.59-21-27.9-1.28-1.7-2.42-3.5-3.62-5.26,12.72,12.37,24.64,25.27,33.83,40.49l11.29-12.55c.42,8.36.93,15.8-2.57,22.71-2,3.95-.79,7.27,1.48,11.57.81-2.51,1.25-4.25,1.93-5.9,1.11-2.7,2.38-5.34,3.58-8h0l3.45-15.29,1.23.22c-1.7,10.08-3.08,20.18-1.9,30.71l1.31-1,2.61-2C1259.42,332,1261.16,329.34,1263.45,327.17ZM944.06,279.09c0-3.33-.16-6.75.05-10.16s-1-6.09-4.16-7.77c-4,1.72-4.44,4.64-4.24,8,.18,3,0,6,0,9.3h-6.7c.62-5.17,1.69-10.33,1.72-15.5s-1-10.2-1.6-15.37c4.39-1.65,5.52-1.06,6,3.38q.21,2,.27,3.93c0,1.29,0,2.57,0,4.33l5.31-1c4.76-.91,7.05.42,7.68,4.92.73,5.2,1.11,10.45,1.68,15.94Zm26.25-10.85a67.89,67.89,0,0,0-7,.8c-1.07.24-2.79,1.53-2.68,2,.26,1.18,1.29,2.9,2.32,3.13a84.71,84.71,0,0,0,9.63,1.12c-1.32,2.82-4.35,4.36-8.3,4.26s-6.45-2.18-8.15-5.38c-3.09-5.82-.66-13.51,5.08-15.92,4.58-1.92,11.18,1,12.56,5.5C974.4,265.93,972.87,267.94,970.31,268.24ZM1030.19,252c-2.29,6.5-4.65,13-7.25,19.38-.87,2.17-2.48,4.07-3.75,6.1l-1.32.14a88.33,88.33,0,0,1-4.48-8.05c-1.24-2.86-1.95-5.93-3.14-9.67-3.26,6.38-3.47,13.37-9.29,17.77-5.36-6.14-6.54-14.12-9.61-21.34a8.39,8.39,0,0,1-1-3.16c0-1.42,0-3.4,1-4.15,1.65-1.32,4.83-.17,5.69,1.77a31.19,31.19,0,0,1,1.38,4.66c1.08,3.89,2.09,7.8,3.24,11.67.18.61,1,1.05,1.51,1.57.55-.61,1.51-1.16,1.59-1.82.6-4.61,1.13-9.23,1.44-13.85.15-2.27.88-3.71,3.5-3.8s4.45.49,5,3.17q1.51,7.11,3.23,14.18c.18.72,1,1.3,1.46,1.95.57-.69,1.47-1.31,1.66-2.08,1.14-4.72,2.11-9.47,3.19-14.2.19-.87.38-2.17,1-2.45a19.46,19.46,0,0,1,4.39-.94C1029.85,249.9,1030.5,251.09,1030.19,252Zm9.86-5.31c1.11,1.77,4.21,2.59,1.68,5.06-1.19,1.16-2.72,2-4,.19C1035.73,249.23,1038.69,248.44,1040.05,246.68Zm-4.77,32.2c2.29-6.65,4.14-13.36-.9-20l8-1.47c0,4-.26,7.57.08,11.11s1.26,6.81,2,10.35Zm14.4-.22c2.84-10.53,3.13-20.87.06-31.35l6.51-.95c.48,10.94.94,21.51,1.4,32.3Zm21.67.38c-5-.09-6.44-.85-7.56-5.39a20.94,20.94,0,0,1-.17-8.95c.84-4.13,4.91-6.71,9.48-6.83,1.6,0,3.21,0,5.4,0-.78-3.45-1.49-6.53-2.34-10.23,1.72-.25,3.75-1.12,5-.53,1,.47,1.5,2.68,1.57,4.15.24,4.84.06,9.7.29,14.54.2,4.11.75,8.21,1.23,13.26C1079.94,279.06,1075.64,279.12,1071.35,279Z" transform="translate(-566.06 -160.57)"/><path class="cls-2" d="M978.29,310.61h0l-.09-.09Z" transform="translate(-566.06 -160.57)"/><path class="cls-2" d="M1254.83,336.49l-1.31,1Z" transform="translate(-566.06 -160.57)"/><path class="cls-2" d="M978.31,310.55l-.11,0,.09.08Z" transform="translate(-566.06 -160.57)"/><path class="cls-2" d="M978.31,310.55h0c.64-1.65,1.29-3.28,1.94-4.92Z" transform="translate(-566.06 -160.57)"/><path class="cls-2" d="M1257.47,334.45l0,0h0l0,0Z" transform="translate(-566.06 -160.57)"/><path class="cls-2" d="M1008,309.36a4.51,4.51,0,0,0,1.49,1.32A4.51,4.51,0,0,1,1008,309.36Z" transform="translate(-566.06 -160.57)"/><path class="cls-2" d="M1211.26,304.51c.37.28.76.54,1.15.81-.39-.27-.78-.53-1.16-.81Z" transform="translate(-566.06 -160.57)"/><polygon class="cls-2" points="684.68 161.28 684.68 161.28 684.68 161.28 684.68 161.28"/><path class="cls-2" d="M1257.44,334.47l0,0,.06-.06Z" transform="translate(-566.06 -160.57)"/><path class="cls-2" d="M927,322.45c.28-1.33.56-2.65.83-4l2.09,1.39,5.52-4.41c-2.69-3.7-5.17-7.22-7.77-10.67s-2.64-3.39-6.26-.88c-5,3.45-9.85,7.09-14.77,10.64-1.45,1-2.93,2-4.77,3.28L913.8,333c5.61-2.8,5.77-3.3,4.06-8.43-1.09-3.23-1.91-6.55-2.86-9.82l.89-.24,4.8,12.84c5.24-2,3.25-5.09,1.09-8.24Z" transform="translate(-566.06 -160.57)"/><path class="cls-2" d="M776.29,307.67l2.45-4.19c-.81,6.59-.81,6.59,1.32,7.77,2.62-2.92,2.82-5.41.74-8.46a44.4,44.4,0,0,0-2.93-4.33c-5.09-5.79-10.29-11.51-15.44-17.26l-.92.48c-.71,7.13-1.63,14.25-2,21.4-.09,1.83,1.53,3.76,2.47,5.6.09.18.91,0,.84,0a48.77,48.77,0,0,0,3.61,4.93,23.53,23.53,0,0,0,4.2,3.3c.68.46,1.91,1,2.4.74a3.18,3.18,0,0,0,1.65-2.32c-.42-4.15-.11-8.55-3.82-11.82a28.31,28.31,0,0,1-2.77-3.38l.63-.48Z" transform="translate(-566.06 -160.57)"/><path class="cls-2" d="M1122.14,304.18c-.33-3.78-.68-7.55-1-11.32l-.89-.36c-4.68,5.19-9.42,10.33-14,15.6a17.53,17.53,0,0,0-2.52,4.52c-.94,2.14-1,4.21.85,5.45l7.14-6.95.93.61c-.94,2.29-2,4.57-2.8,6.9-1,2.74-.68,5.15,2.68,6.78,5.4-5.34,12-10,9.76-18.82A14.8,14.8,0,0,1,1122.14,304.18Z" transform="translate(-566.06 -160.57)"/><path class="cls-2" d="M662.68,322.69c1.51-5.1,2.55-10.38,4.66-15.26,2.24-5.17-1.31-9.94-6.23-13.55l-14,17.46c5.06,1.29,6.89,7.58,12.75,5.88.45,1.73,1,3.66,1.46,5.59Z" transform="translate(-566.06 -160.57)"/><path class="cls-2" d="M823.53,287.76a2.63,2.63,0,0,0,.89,1.23c1.89,1.5,2.66,4.73,6.3,3.37-.38.93-1.11,1.87-.86,2.24,1.58,2.43,3.38,4.72,5.33,7.37,2.08-2.86,4.67-5.39,5.74-8.39.53-1.48-1.73-3.85-2.73-5.82,0-.09,0-.2-.09-.29L828,271c-1.37,1.5-2.47,2.57-3.43,3.75-1.68,2.08-3.69,4-4.8,6.38C818.16,284.48,822.8,285.25,823.53,287.76Z" transform="translate(-566.06 -160.57)"/><path class="cls-2" d="M1210.3,303.48c-1.23.93-2.53,1.78-3.68,2.79-2.82,2.47-4.14,5.23-2.28,8.88.82,1.6.93,3.51,1.39,5.27.71,2.67,1.45,5.34,2.25,8.26a45.12,45.12,0,0,1,4.73-4.48c2.11-1.46,4.64-2.38,6.73-3.86,1.64-1.16,1.73-2.67.29-4.44-.75-.92-1.47-1.86-2.19-2.8-2.14-2.83-4.18-5.73-6.28-8.59Z" transform="translate(-566.06 -160.57)"/><path class="cls-2" d="M985.16,315.35c-2.52,4.24-5,8.12-7.15,12.14-1.39,2.59-.31,4.17,3.26,5.31l2.54-8.15.92.27c-.61,2.4-1.36,4.77-1.8,7.2-.53,2.86.4,5.09,3.94,6.15l10.59-13.49Z" transform="translate(-566.06 -160.57)"/><path class="cls-2" d="M814.23,303.35l.86.44,5.36-6.37a8.8,8.8,0,0,0,2.68-.65c1.39-.73,3-1.72,1.55-3.56-2.33-3.07-4.74-6.09-7.31-9.38-3.2,4.11-6,8-9.14,11.7-3.81,4.58-4.46,9.34-1.54,14.57,5.46-1.64,2-6.21,3.61-9.2l1.35,4.33c.77-1.86,1.35-3.28,2.28-5.55C814.09,301.53,814.16,302.44,814.23,303.35Z" transform="translate(-566.06 -160.57)"/><path class="cls-2" d="M1079.83,305.37c-1.69-2.07-3.27-4.23-4.83-6.4-1-1.34-1.84-2.76-2.93-4.42-2.35,3-4.32,5.66-6.36,8.22-1,1.26-.71,2,.61,2.94a56.79,56.79,0,0,1,6,5.13,7.69,7.69,0,0,1,1.18,2.46l1-1c.17-.86.33-1.72.65-3.37l1.57,4.17,1.48-3h.93c-.93,2.9-2.09,5.88,2,7.25C1083.67,312.34,1083.33,309.65,1079.83,305.37Z" transform="translate(-566.06 -160.57)"/><path class="cls-2" d="M885.2,324c1.42-.41,2.48-.44,3.09-.94,3.69-3.08,5.73-14.4,2.15-18.86l-14.14,16c3.34,1.87,5.92,3.3,8.62,4.82C885.07,324.52,885.21,324,885.2,324Z" transform="translate(-566.06 -160.57)"/><path class="cls-2" d="M1266.38,325.27c-1.12,1.17-2.16,2.28-3.22,3.37-1.89,1.94-3.79,3.87-5.69,5.81l.06-.05h0c-.22.47-.36,1-.61,1.44a2,2,0,0,1-.29.41c-5.09,5.24-4.33,10.33-.43,16.23,3.13-4.36-1.61-7.77-1.77-11.73l6.45,4.67C1266.74,340.19,1269.54,330.13,1266.38,325.27Z" transform="translate(-566.06 -160.57)"/><path class="cls-2" d="M1257.53,334.4c-.22.47-.36,1-.61,1.44.25-.44.39-1,.61-1.44Z" transform="translate(-566.06 -160.57)"/><polygon class="cls-2" points="691.35 173.94 691.47 173.83 691.47 173.83 691.35 173.94"/><path class="cls-2" d="M1257.53,334.41h0l-.06.05h0Z" transform="translate(-566.06 -160.57)"/><path class="cls-2" d="M1257.47,334.45l-.06.06.12-.1Z" transform="translate(-566.06 -160.57)"/><path class="cls-2" d="M697.1,321.58c.08-.19.15-.39.23-.6l.29-.72c.1-.25.2-.52.31-.81.5.95.82,1.58,1.14,2.2,1.95-6.93.4-13.53-.7-20.95a33,33,0,0,0-2.86,2.43c-2.13,2.38-4.28,4.75-6.24,7.25-1.08,1.37-3.76,2.45-1.72,4.77s3.84.56,5.7-.31a.25.25,0,0,1,.12,0,4,4,0,0,1,.44.11h0a7.11,7.11,0,0,0-1.23,2.23l0,.13a2.88,2.88,0,0,0-.09.81,2,2,0,0,0,.07.43C692.86,319.8,694.35,320.74,697.1,321.58Z" transform="translate(-566.06 -160.57)"/><path class="cls-2" d="M692.53,318.53c.33,1.27,1.82,2.22,4.57,3.06.08-.2.15-.4.23-.61-.08.21-.15.41-.23.6C694.35,320.74,692.86,319.8,692.53,318.53Z" transform="translate(-566.06 -160.57)"/><path class="cls-2" d="M697.93,319.45c-.11.29-.21.56-.31.81C697.72,320,697.82,319.74,697.93,319.45Z" transform="translate(-566.06 -160.57)"/><path class="cls-2" d="M693.81,314.93a7.11,7.11,0,0,0-1.23,2.23,7.11,7.11,0,0,1,1.23-2.23Z" transform="translate(-566.06 -160.57)"/><path class="cls-2" d="M692.46,318.1a2.88,2.88,0,0,1,.09-.81A2.88,2.88,0,0,0,692.46,318.1Z" transform="translate(-566.06 -160.57)"/><path class="cls-2" d="M654,318.7c-1.07,4-2.18,8-3.17,12-.39,1.61-1.09,3.41-.7,4.91,1.35,5.26,3.12,10.43,4.73,15.63l.58.18c.32-1.45,1.14-3,.87-4.34-1.41-7-.12-13.83,1.23-20.66C658.24,323.13,657.23,320.72,654,318.7Z" transform="translate(-566.06 -160.57)"/><path class="cls-2" d="M975.84,311.82c-2.09,2.54-4,5.19-6,7.85-1.41,1.94-1.37,3.79.89,5.17,1.57,1,3.26,1.78,5.06,2.74,2.68-4.19,5.31-8.3,8-12.42l-5.47-4.55h0C977.46,311,976.35,311.2,975.84,311.82Z" transform="translate(-566.06 -160.57)"/><path class="cls-2" d="M978.29,310.61h0c-.83.39-1.94.58-2.45,1.2.51-.62,1.62-.81,2.46-1.2h0Z" transform="translate(-566.06 -160.57)"/><path class="cls-2" d="M978.2,310.52l.09.09h0Z" transform="translate(-566.06 -160.57)"/><path class="cls-2" d="M733.36,302.85c3.56,4.08,7.58,7.82,11.39,11.63,3.89-2.48,4-2.9,1.92-6.54s-4-7.1-6-10.65l-.76-.51a4.27,4.27,0,0,0-1-.54,2.61,2.61,0,0,0-2.36.14,9.64,9.64,0,0,0-2.26,2.09C733.37,299.5,732.69,302.08,733.36,302.85Z" transform="translate(-566.06 -160.57)"/><path class="cls-2" d="M738.94,296.24a2.61,2.61,0,0,0-2.36.14A2.61,2.61,0,0,1,738.94,296.24Z" transform="translate(-566.06 -160.57)"/><path class="cls-2" d="M1176.22,310.62,1174.93,327l1.26-.5,2.44,1.26c2.31-1.65,4.89-3.3,7.19-5.24.73-.62,1.35-2.52.93-3-2.87-3.28-6-6.34-9.1-9.48Z" transform="translate(-566.06 -160.57)"/><path class="cls-2" d="M705.13,320.39c-4,4.26-2.64,9.08,2.85,11.35,1.82-2.95,3.51-6,5.49-8.82,2.24-3.23,1.91-6.37.09-10.3C710.54,315.38,707.63,317.72,705.13,320.39Z" transform="translate(-566.06 -160.57)"/><path class="cls-2" d="M1006.67,313c-1.11,5.3-1.51,10.23,1.81,14.72.6.81,2,1.14,3,1.69.15-.25.31-.49.46-.73l.73,1.8,6-2.88a25.39,25.39,0,0,0-2.1-4.72c-1.95-2.8-4.2-5.41-6.33-8.1L1009,314Z" transform="translate(-566.06 -160.57)"/><path class="cls-2" d="M1018.66,327.64l.09-.09-.1.05Z" transform="translate(-566.06 -160.57)"/><path class="cls-2" d="M1018.75,327.55h0l-.12.06h0Z" transform="translate(-566.06 -160.57)"/><path class="cls-2" d="M858.88,276c-2.94,4.09-6.83,7.37-7.65,11.23s1.34,8.43,2.26,13C858.3,296.51,860.51,286.28,858.88,276Z" transform="translate(-566.06 -160.57)"/><path class="cls-2" d="M1212.56,330c.36,5.82.61,11.65,1,17.47.13,2.13.43,4.26.65,6.39,5.16-9.3,6.55-18.65,1.11-28.35C1213,326.27,1212.42,327.88,1212.56,330Z" transform="translate(-566.06 -160.57)"/><path class="cls-2" d="M817.8,304.18c-8.49,4.08-3.94,10.76-3.23,16.77l4.39.52c-.31,1.76-1.41,3.89,2.38,4.63.18-2,.8-4,.43-5.83C820.65,314.82,819.13,309.45,817.8,304.18Z" transform="translate(-566.06 -160.57)"/><path class="cls-2" d="M674.64,315l-5.16-3c-.66.39-1.78.68-1.92,1.19-.75,2.8-1.71,5.66-1.71,8.5a8.37,8.37,0,0,0,3.9,7.32c1.06-1.75,2-3.33,3-4.89a39,39,0,0,1,2.89-4.66C677.19,317.47,676.49,316.16,674.64,315Z" transform="translate(-566.06 -160.57)"/><path class="cls-2" d="M813.19,260.89c-1.12.76-2.11,1.36-3,2.07-2.1,1.65-2.86,7.26-1.09,9.15,2.4,2.56,5,5,7.52,7.41a3.24,3.24,0,0,0,1.25.51,20.59,20.59,0,0,1-.81-3.44c-.15-2.92-.23-5.86-.15-8.78S815.82,262.75,813.19,260.89Z" transform="translate(-566.06 -160.57)"/><path class="cls-2" d="M632,337c-.87,7.71-4.22,14.89-2.32,22.74a72.36,72.36,0,0,0,6.18-9.84C638.46,345.22,637.21,340.71,632,337Z" transform="translate(-566.06 -160.57)"/><path class="cls-2" d="M646.28,312.94a24.79,24.79,0,0,0-3,4.32,5.56,5.56,0,0,0-.3,4.08c1.55,3.28,3.56,6.36,5.47,9.65C653.46,321.25,653,313.37,646.28,312.94Z" transform="translate(-566.06 -160.57)"/><path class="cls-2" d="M1136.5,311.63a52.39,52.39,0,0,0-2.57,4.77c-.54,1.16,0,2.88.46,4.24a4.35,4.35,0,0,0,3-.21c2.69-2.39,5.17-5,7.65-7.6,1.93-2,1.74-4.3-.37-6.07-.49-.41-1-.85-1.47-1.29l-3,.49-.88,1C1138.39,308.53,1137.42,310.07,1136.5,311.63Z" transform="translate(-566.06 -160.57)"/><path class="cls-2" d="M1143.2,305.47h0c.5.44,1,.88,1.47,1.29C1144.17,306.34,1143.69,305.9,1143.2,305.47Z" transform="translate(-566.06 -160.57)"/><path class="cls-2" d="M629.51,307.2c-1.79-4.06-5.4-7.42-8.56-11.45-1,4.94,1,16.06,3.37,19a3.77,3.77,0,0,0,2.52.46C628,312.53,630.39,309.21,629.51,307.2Z" transform="translate(-566.06 -160.57)"/><path class="cls-2" d="M1163.4,320.45c-2.12,5.14-.34,10.49,5.55,16.75a26.58,26.58,0,0,0,2.37-2.92c1.27-2.13,2.61-4.53.48-6.67C1169.33,325.12,1166.42,323,1163.4,320.45Z" transform="translate(-566.06 -160.57)"/><path class="cls-2" d="M827.29,296.24a12.81,12.81,0,0,0-4.12,19.37,10.21,10.21,0,0,0,1.1-1.83c1.49-4.28,3.14-8.53,4.27-12.9C828.89,299.56,827.78,297.91,827.29,296.24Z" transform="translate(-566.06 -160.57)"/><path class="cls-2" d="M1034.84,288.35c-.44,6.95,0,13.28,4.05,18.95C1044.37,301.75,1042.89,294.27,1034.84,288.35Z" transform="translate(-566.06 -160.57)"/><path class="cls-2" d="M783.42,274.14c2.55,2.35,6.55,1.22,9.78-.43-3-8.69-.62-7-11.58-8.17C782.18,268.73,781.66,272.52,783.42,274.14Z" transform="translate(-566.06 -160.57)"/><path class="cls-2" d="M1070.78,312.47c1,7-4.32,12.92-2,20.34,1.17-1.82,1.73-3.71,3-4.52,4.37-2.68,4.12-6.66,3.78-10.58C1075.35,315.39,1073.85,313.52,1070.78,312.47Z" transform="translate(-566.06 -160.57)"/><path class="cls-2" d="M1202.88,319s-.05,0-.11,0a4.75,4.75,0,0,0-.49.1l-.25,0-5.3,3.77c-.5,4.74,3.39,7.67,5,11.67C1206.21,331.37,1205.6,323.12,1202.88,319Z" transform="translate(-566.06 -160.57)"/><path class="cls-2" d="M905,327.81a77.93,77.93,0,0,0-6.18-6.43l-1.57.36c-.32,3.92-.71,7.83-.83,11.74,0,.32,2.14,1.24,2.81.94a18.32,18.32,0,0,0,5.18-3.38C905.1,330.36,905.49,328.44,905,327.81Z" transform="translate(-566.06 -160.57)"/><path class="cls-2" d="M1230.74,351.59c1.73,3.09,3.89,6,6.36,9.7,1.38-7.1.07-12.89-3-19.12C1232,345.48,1228.62,347.8,1230.74,351.59Z" transform="translate(-566.06 -160.57)"/><path class="cls-2" d="M1221,320.55c-1.83,1.26-3.63,2.67-3.19,5.16.59,3.3,1.26,6.58,1.89,9.87l1.21-.07c1.45-2.67,2.94-5.33,4.35-8s-.89-4.51-2.37-6.37A2.2,2.2,0,0,0,1221,320.55Z" transform="translate(-566.06 -160.57)"/><path class="cls-2" d="M686.28,336.13c1.4-2.84.69-6.17-2-8.66-1.77,2.77-3.84,5.34-5.14,8.23s.47,5.42,2.31,8l4.38-6.79C686,336.66,686.14,336.4,686.28,336.13Z" transform="translate(-566.06 -160.57)"/><path class="cls-2" d="M712.48,311.16,702.35,304c-2.2,5,2.85,9.18.8,14Z" transform="translate(-566.06 -160.57)"/><path class="cls-2" d="M936.26,316.73c-.93.65-1.53,1-2.12,1.48-3.4,2.5-3.5,3.32-.82,6.53a29.88,29.88,0,0,0,3,3.52,5.61,5.61,0,0,0,2.75,1.15c.92-1.21,2.42-2.93,2-3.92C940,322.53,938.06,319.84,936.26,316.73Z" transform="translate(-566.06 -160.57)"/><path class="cls-2" d="M689.94,339.26l-.91-.13c-1.42,2.55-2.85,5.09-4.24,7.65a1.33,1.33,0,0,0-.09,1.11c1.65,2.71,3.36,5.38,5.37,8.59C694.78,350,689.27,344.76,689.94,339.26Z" transform="translate(-566.06 -160.57)"/><path class="cls-2" d="M1244.5,306.67c-7,4.84-8.28,9.5-4.59,16.56C1245.24,318.67,1244.67,312.82,1244.5,306.67Z" transform="translate(-566.06 -160.57)"/><path class="cls-2" d="M1063.44,305.8c-.58,1.32-1.75,2.64-1.48,3.6,1.35,4.64,3.08,9.19,4.87,14.32C1069.78,314.49,1070.35,308.61,1063.44,305.8Z" transform="translate(-566.06 -160.57)"/><path class="cls-2" d="M1009.79,310.87h0l-1.47-.36-1.84-.44L1009,314l1.26.82,11.29,10.49c1.78-6.55,1.41-5.71-3.71-9.29-2.29-1.6-4.68-3.09-7-4.63l-1-.48Z" transform="translate(-566.06 -160.57)"/><path class="cls-2" d="M1009.79,310.87l-1.47-.36,1.47.36Z" transform="translate(-566.06 -160.57)"/><path class="cls-2" d="M1009.79,310.87h0l1,.48-1-.48Z" transform="translate(-566.06 -160.57)"/><path class="cls-2" d="M1001.87,329.49c-.17-.66-1.89-1.6-1.93-1.56a37.82,37.82,0,0,0-5.25,6c-.31.5,1.28,2.43,2.37,3.24a21.87,21.87,0,0,0,4.43,1.95c.45-1.48.89-2.95,1.33-4.43l-.36-.11A32.67,32.67,0,0,0,1001.87,329.49Z" transform="translate(-566.06 -160.57)"/><path class="cls-2" d="M629.72,330.49c-5.79,3.57-8.42,15.92-5.31,20.14,1.74-5.12,3.6-10.37,5.25-15.66C630,333.77,629.72,332.39,629.72,330.49Z" transform="translate(-566.06 -160.57)"/><path class="cls-2" d="M615.17,317.51l-1,.18c.38,7.15.76,14.29,1.17,21.79,4.3-2.58,4.74-3.53,3.74-7.28C617.81,327.3,616.48,322.41,615.17,317.51Z" transform="translate(-566.06 -160.57)"/><path class="cls-2" d="M778.35,294.78l.46-.39-15.37-20-1.19.31c.31,1.92-.11,4.43,1,5.64C768.05,285.36,773.29,290,778.35,294.78Z" transform="translate(-566.06 -160.57)"/><path class="cls-2" d="M1191.85,346.71c3.92-3.65,2.85-7.39-2.92-13.13C1185.42,337.94,1185.22,339.07,1191.85,346.71Z" transform="translate(-566.06 -160.57)"/><path class="cls-2" d="M594.15,336.63v16.45l1,.27c1.42-3,4-5.92,3.95-8.85,0-2.74-2.85-5.45-4.44-8.17Z" transform="translate(-566.06 -160.57)"/><path class="cls-2" d="M780.09,315.19l-1.05.27c-1.33,5.91,3.48,10.75,3.71,16.66,2.54-2.2,3.82-5.38,2.88-7.16C783.87,321.66,782,318.44,780.09,315.19Z" transform="translate(-566.06 -160.57)"/><path class="cls-2" d="M1184,357.56c5.64-5.21,5.8-7.84.63-14C1181.93,354.81,1180.52,355.39,1184,357.56Z" transform="translate(-566.06 -160.57)"/><path class="cls-2" d="M753.13,347a44.22,44.22,0,0,1,1.25,5c.61,2.48,1.23,5,2,8.25V338C752.69,340.71,751.86,343.49,753.13,347Z" transform="translate(-566.06 -160.57)"/><path class="cls-2" d="M740.66,297.29c2.78,3.77,5.66,7.48,8.26,11.35.84,1.24,1.66,2.25,2.8,1.05.81-.86,3.27-1.91,1.39-3.61-4.17-3.79-8.53-7.39-13-11.18-.32.69-.46.85-.45,1a2.26,2.26,0,0,0,.08.44c0,.14.09.29.12.43h0Z" transform="translate(-566.06 -160.57)"/><path class="cls-2" d="M739.78,296.35c0,.14.09.29.12.43h0C739.87,296.64,739.82,296.49,739.78,296.35Z" transform="translate(-566.06 -160.57)"/><path class="cls-2" d="M736.55,327.41c2.21,3.65,5,7,7.55,10.47l1.59-.84c-1.79-4.69-3.46-9.41-7.2-13.7C737.43,324.68,736,326.55,736.55,327.41Z" transform="translate(-566.06 -160.57)"/><path class="cls-2" d="M1164.24,318.45l8,6.39.61-.39a31.13,31.13,0,0,1-.88-3.1,4.58,4.58,0,0,1,.08-2.21c.75-2.13,1.65-4.22,2.49-6.32l-.94-.5Z" transform="translate(-566.06 -160.57)"/><path class="cls-2" d="M846.13,337.23a54.3,54.3,0,0,0-3.49,7,4.7,4.7,0,0,0,.86,3.88c.41.52,2.67.42,3.48-.16a4.6,4.6,0,0,0,1.83-3.35,45.37,45.37,0,0,0-1.2-7Z" transform="translate(-566.06 -160.57)"/><path class="cls-2" d="M866.81,325.59a60.9,60.9,0,0,0,.11-8.19c-4.16,2.08-6.69,5.53-5.77,8.17.49,1.39,2.21,2.4,3.38,3.58C865.33,328,866.63,326.85,866.81,325.59Z" transform="translate(-566.06 -160.57)"/><path class="cls-2" d="M967.06,323.64c-1.41,3-2.82,5.6-3.88,8.37-.27.7.5,1.84,1,2.65.15.24,1.26.26,1.64,0C969.81,332,972,327.12,967.06,323.64Z" transform="translate(-566.06 -160.57)"/><path class="cls-2" d="M1118.37,292.89c2.18-1.92,2.85-3.92,1.34-6.92-4.38,5.72-8.52,11.11-12.66,16.5a4.46,4.46,0,0,0,2.81-1.36C1112.71,298.38,1115.41,295.5,1118.37,292.89Z" transform="translate(-566.06 -160.57)"/><path class="cls-2" d="M731.7,304.88a42.78,42.78,0,0,0,2.46,5.42c1.13,1.82,2.74,3.36,4,5.12,2,2.79,2.13,2.84,5.09.05-3.55-3.81-7-7.49-10.4-11.16Z" transform="translate(-566.06 -160.57)"/><path class="cls-2" d="M1237.25,336.2c-1,6.43,3.46,11.39,4.72,17.1C1243.43,346.36,1241,337.79,1237.25,336.2Z" transform="translate(-566.06 -160.57)"/><path class="cls-2" d="M889.27,331.42c-2.35,2.49-2.69,4.33-1.37,7.32l1.77,1.74,2,1.18C894.62,336.79,893.81,333.39,889.27,331.42Z" transform="translate(-566.06 -160.57)"/><path class="cls-2" d="M1249.93,324.76c-1.13,4-2.43,7.92-3.35,11.94-.88,3.82.07,5.57,3.06,6.5.37-7.14.73-14.24,1.1-21.34h0C1250.47,322.82,1250.21,323.79,1249.93,324.76Z" transform="translate(-566.06 -160.57)"/><polygon class="cls-2" points="684.68 161.28 684.68 161.28 684.68 161.28 684.68 161.28"/><path class="cls-2" d="M1250.74,321.85h0c-.27,1-.53,1.94-.81,2.91.28-1,.54-1.94.81-2.91Z" transform="translate(-566.06 -160.57)"/><polygon class="cls-2" points="684.68 161.28 684.68 161.28 684.68 161.28 684.68 161.28 684.68 161.28"/><polygon class="cls-2" points="684.68 161.28 684.68 161.28 684.68 161.28 684.68 161.28"/><polygon class="cls-2" points="684.68 161.28 684.68 161.28 684.68 161.28 684.68 161.28 684.68 161.28"/><path class="cls-2" d="M721.51,332.06c-1.34-2.62-2.77-5.2-4.18-7.79l-.57.17q-.53,6.65-1,13.29l.73.42c1.58-1.58,3.2-3.13,4.73-4.75A1.49,1.49,0,0,0,721.51,332.06Z" transform="translate(-566.06 -160.57)"/><path class="cls-2" d="M875.38,321.41c.25,4.19.49,8,.76,12.56C881.48,329.52,882.57,323.73,875.38,321.41Z" transform="translate(-566.06 -160.57)"/><path class="cls-2" d="M743.3,319.77c-1.3,1-1.33,2.18.16,3.21,2,1.38,3.92,2.83,5.92,4.2,1.3.9,2.67,1.71,4,2.56l.62-.62a19.05,19.05,0,0,0-1.17-1.88c-1.94-2.41-4.05-4.71-5.84-7.21C745.71,318.24,744.45,318.89,743.3,319.77Z" transform="translate(-566.06 -160.57)"/><path class="cls-2" d="M678.18,315.5c-2.8-4-5.32-7.54-7.85-11.11l-.85.31V312l5.16,3Z" transform="translate(-566.06 -160.57)"/><path class="cls-2" d="M725.75,305.54a45.18,45.18,0,0,0-2.88,5.23c-.66,1.63-.71,3.39,1.76,4a3.15,3.15,0,0,1,.41-.31l3.48-1.12C729.77,308,729.3,306.53,725.75,305.54Z" transform="translate(-566.06 -160.57)"/><path class="cls-2" d="M1102.47,337.07c.2-5.08,4.1-9,3.15-14.62C1100,328.83,1097.82,333.6,1102.47,337.07Z" transform="translate(-566.06 -160.57)"/><path class="cls-2" d="M829.77,301.68c-1.7,5.76-3.28,11.17-4.87,16.58,2.66-3.35,4.43-7.09,6.69-10.56C833.31,305.07,832.31,303.56,829.77,301.68Z" transform="translate(-566.06 -160.57)"/><path class="cls-2" d="M1268.45,355.32V341.93C1263,345.63,1263,349.26,1268.45,355.32Z" transform="translate(-566.06 -160.57)"/><path class="cls-2" d="M1141,329.27c-3.51,4.46-6.13,11.28-4.91,12.92,2.08-2.44,3.93-4.74,5.91-6.93C1144.13,332.9,1143.9,331.2,1141,329.27Z" transform="translate(-566.06 -160.57)"/><path class="cls-2" d="M1129.74,313.17c-.82.76-1.12,2-1.67,3.06l.59.58h0c1.24-.38,2.91-.42,3.65-1.22,1.88-2,3.57-4.25,5.28-6.44.57-.73,1.13-1.46,1.71-2.19h0l.88-1V304C1136.41,307.31,1133,310.16,1129.74,313.17Z" transform="translate(-566.06 -160.57)"/><path class="cls-2" d="M1137.59,309.15c.57-.73,1.13-1.46,1.71-2.19h0C1138.72,307.69,1138.16,308.42,1137.59,309.15Z" transform="translate(-566.06 -160.57)"/><path class="cls-2" d="M1137.13,328.9c.52-.45,0-1.88,0-2.86-1,0-2.42-.29-2.84.18-2.37,2.64-4.49,5.48-6.69,8.26l1.07,1C1131.54,333.34,1134.46,331.24,1137.13,328.9Z" transform="translate(-566.06 -160.57)"/><path class="cls-2" d="M1138.17,323.66c1.08-.23,2.62-.11,3.17-.74a80.46,80.46,0,0,0,5.64-7.61,6,6,0,0,0,.45-2.26l-1.13-.37c-2.54,2.8-5.13,5.56-7.56,8.44C1138.23,321.73,1138.34,322.8,1138.17,323.66Z" transform="translate(-566.06 -160.57)"/><path class="cls-2" d="M756.29,310c0-.58-1.6-1.69-2.17-1.54-1.9.49-3,3.71-2,5.39l3.76,6.62h.53C756.4,317,756.5,313.45,756.29,310Z" transform="translate(-566.06 -160.57)"/><path class="cls-2" d="M858.05,264.26a3.31,3.31,0,0,0-.93-2.68c-1.49-1.36-3.26-2-5-.1-1.08,1.22-2.2,2.4-3.84,4.18,3.11,0,5.34.12,7.54-.06C856.67,265.53,858,264.83,858.05,264.26Z" transform="translate(-566.06 -160.57)"/><path class="cls-2" d="M756.23,325.8c-1.46-3-2.81-6.08-4.48-9-.39-.67-1.92-.78-2.92-1.14-.17.93-.82,2.19-.41,2.75,2.1,2.83,4.48,5.48,6.76,8.19Z" transform="translate(-566.06 -160.57)"/><path class="cls-2" d="M1045.83,342.31c-2.49,5.56-2,7.41,2.83,9.72C1050.62,348.49,1049.67,345.4,1045.83,342.31Z" transform="translate(-566.06 -160.57)"/><path class="cls-2" d="M1020.18,337.77c.24-3.38.48-6.63.71-9.86l-2.2-.27a9.27,9.27,0,0,1-.83,1.12C1014.86,331.86,1015.73,335.78,1020.18,337.77Z" transform="translate(-566.06 -160.57)"/><path class="cls-2" d="M1018.69,327.64l.06-.09h0l-.09.09Z" transform="translate(-566.06 -160.57)"/><path class="cls-2" d="M1018.69,327.64h0l.06-.09h0Z" transform="translate(-566.06 -160.57)"/><path class="cls-2" d="M1125.47,342.77v16.52l.36.07c.93-3.58,1.92-7.15,2.77-10.75C1129.21,346,1128.43,344,1125.47,342.77Z" transform="translate(-566.06 -160.57)"/><path class="cls-2" d="M950.28,319.41c-4.16,4.3-4.26,4.88-1.89,10.92C952.46,326.21,952.82,324.11,950.28,319.41Z" transform="translate(-566.06 -160.57)"/><path class="cls-2" d="M1151.78,313.66a6.76,6.76,0,0,0-1.62,1.7,4.58,4.58,0,0,0-.71,1.83,4.08,4.08,0,0,0,1.21,3.46.27.27,0,0,0,.08.07l.45.42a8.06,8.06,0,0,0,2,1.15v0C1156.13,320.28,1155.5,316.59,1151.78,313.66Z" transform="translate(-566.06 -160.57)"/><path class="cls-2" d="M1150.74,320.72a.27.27,0,0,1-.08-.07A.27.27,0,0,0,1150.74,320.72Z" transform="translate(-566.06 -160.57)"/><polygon class="cls-2" points="587.27 161.76 587.27 161.76 587.27 161.76 587.27 161.76"/><path class="cls-2" d="M1151.19,321.14a8.06,8.06,0,0,0,2,1.15h0A8.06,8.06,0,0,1,1151.19,321.14Z" transform="translate(-566.06 -160.57)"/><path class="cls-2" d="M1010.39,342.94a6.76,6.76,0,0,0,.3-1.26,5.35,5.35,0,0,0-.26-2.67,6.89,6.89,0,0,0-1.9-2.63c-3.43,2-4.2,5.83-1.85,9.16L1010,344a8.87,8.87,0,0,0,.43-1Z" transform="translate(-566.06 -160.57)"/><path class="cls-2" d="M1010.39,342.94Z" transform="translate(-566.06 -160.57)"/><path class="cls-2" d="M1010,343.94l0,0h0Z" transform="translate(-566.06 -160.57)"/><polygon class="cls-2" points="443.9 183.39 443.9 183.39 443.89 183.4 443.89 183.4 443.9 183.39"/><path class="cls-2" d="M1010.69,341.68a5.35,5.35,0,0,0-.26-2.67A5.35,5.35,0,0,1,1010.69,341.68Z" transform="translate(-566.06 -160.57)"/><path class="cls-2" d="M885.44,340.14a17.53,17.53,0,0,0-1.33,4.64,7.45,7.45,0,0,0,.28,2.21,7.86,7.86,0,0,0,2.64-.44c2.41-1.38,2.71-3.68,2.64-6.07l-1.77-1.74C887.05,339.19,885.78,339.46,885.44,340.14Z" transform="translate(-566.06 -160.57)"/><path class="cls-2" d="M793.11,355.06c3.28-2.26,3.43-5.32.38-11.26C790.71,348.62,790.63,352.09,793.11,355.06Z" transform="translate(-566.06 -160.57)"/><path class="cls-2" d="M873.66,336.31c2.57-3.86.39-7.56,0-11.8C869.75,328.24,869.88,333.33,873.66,336.31Z" transform="translate(-566.06 -160.57)"/><path class="cls-2" d="M1202,319.09h0l.36-6-1.18-.28c-1.79,2.68-3.63,5.33-5.28,8.09-.23.39.51,1.29.8,1.95l5.3-3.77Z" transform="translate(-566.06 -160.57)"/><path class="cls-2" d="M1202,319.09l.36-6-.36,6Z" transform="translate(-566.06 -160.57)"/><path class="cls-2" d="M1028.88,324.81c0,2.85-.06,5.37,0,7.87a2.09,2.09,0,0,0,1,1.67,2.69,2.69,0,0,0,1.92-.7C1034.85,331.16,1033.65,327,1028.88,324.81Z" transform="translate(-566.06 -160.57)"/><path class="cls-2" d="M797.58,313c-1.44,2.25-.52,3.43,1.76,4.45,2.92-3.49,3.36-7.32,2.24-11.54C800.25,308.29,799,310.72,797.58,313Z" transform="translate(-566.06 -160.57)"/><path class="cls-2" d="M761.55,358.58c4.45-3,5.42-7.2,2.44-11.68C762.22,351,760.49,354.39,761.55,358.58Z" transform="translate(-566.06 -160.57)"/><path class="cls-2" d="M862.85,316.25l.8.59c1.06-1,2.83-2,3-3.16.81-4.45,1.11-9,1.59-13.48l-.55-.09Q865.29,308.18,862.85,316.25Z" transform="translate(-566.06 -160.57)"/><path class="cls-2" d="M643.4,338.43l1.49-.51q-3.09-6.27-6.2-12.55C636.12,331.36,641.19,334.33,643.4,338.43Z" transform="translate(-566.06 -160.57)"/><path class="cls-2" d="M634.23,324.52c3.19-2.32,3-3.56-1.37-8.56C629.51,319,630,321.9,634.23,324.52Z" transform="translate(-566.06 -160.57)"/><path class="cls-2" d="M849.16,319.33c-2.1,3.12-2.08,3.54.47,8.79C854.91,324.87,854.85,324.1,849.16,319.33Z" transform="translate(-566.06 -160.57)"/><path class="cls-2" d="M841.39,310.74c5-6.32,6.52-5.55,3.31-9.78C839.14,307.46,838.78,308.56,841.39,310.74Z" transform="translate(-566.06 -160.57)"/><path class="cls-2" d="M1059.78,310.8c-.3,1.33-1.26,2.94-.78,3.94,1.67,3.52,3.84,6.82,5.81,10.21l.55-.2q-2.08-7-4.19-14Z" transform="translate(-566.06 -160.57)"/><path class="cls-2" d="M615.44,355.33l1.66-11.67C612.47,347.31,611.79,353.14,615.44,355.33Z" transform="translate(-566.06 -160.57)"/><path class="cls-2" d="M841.58,331.67a32.88,32.88,0,0,1-2.62,4.68c-1.62,2-1.89,3.65.51,5.11,1.74-2.39,3.47-4.78,5.33-7.36Z" transform="translate(-566.06 -160.57)"/><path class="cls-2" d="M1043.32,325.36c-1.31,1.86-3.06,3.31-3.19,4.87-.1,1.2,1.83,2.55,3.15,4.2C1044.79,331.24,1047,328.86,1043.32,325.36Z" transform="translate(-566.06 -160.57)"/><path class="cls-2" d="M900.8,344.09c-3,3-.2,6.25-.92,10.09C904.69,349.9,904.82,346.46,900.8,344.09Z" transform="translate(-566.06 -160.57)"/><path class="cls-2" d="M681,321.65c-1.47,3.63-4.55,6.49-3.5,11.24,1.69-2.22,2.92-4,4.28-5.61C683.38,325.32,683.54,323.57,681,321.65Z" transform="translate(-566.06 -160.57)"/><path class="cls-2" d="M713.73,337.33c.4-3.64.78-7.06,1.19-10.76C709.62,330.43,709.09,334.56,713.73,337.33Z" transform="translate(-566.06 -160.57)"/><path class="cls-2" d="M1088.27,324.44c2-2.53.59-6.93-3.6-11.08C1084.7,317.68,1085.11,321.38,1088.27,324.44Z" transform="translate(-566.06 -160.57)"/><path class="cls-2" d="M927.18,341.65c.18,3.64.36,7.13.54,10.62l.78.07,1.92-4.71C932,343.71,931.88,343.42,927.18,341.65Z" transform="translate(-566.06 -160.57)"/><path class="cls-2" d="M904.59,339.86c2.14-2.54,1.92-3.34-2.08-6.57-1,1.47-2.78,3-2.54,4.2a3.5,3.5,0,0,0,.71,1.51A3.25,3.25,0,0,0,904.59,339.86Z" transform="translate(-566.06 -160.57)"/><path class="cls-2" d="M904.59,339.86l-.07.09.11-.1Z" transform="translate(-566.06 -160.57)"/><polygon class="cls-2" points="338.57 179.28 338.57 179.28 338.57 179.28 338.57 179.28"/><path class="cls-2" d="M900.68,339a3.25,3.25,0,0,0,3.91.86h0A3.25,3.25,0,0,1,900.68,339Z" transform="translate(-566.06 -160.57)"/><path class="cls-2" d="M822,263.45c0,1.71-.09,3.5,0,5.27s.44,3.54.73,5.75C827.24,270.92,826.75,267.22,822,263.45Z" transform="translate(-566.06 -160.57)"/><path class="cls-2" d="M1160.15,342.52V331.06C1155.4,336.55,1155.4,336.79,1160.15,342.52Z" transform="translate(-566.06 -160.57)"/><path class="cls-2" d="M690.39,319.69l-2.73,3.05,6.48,4.25,2-2.55Z" transform="translate(-566.06 -160.57)"/><path class="cls-2" d="M1011.61,343.73c-.38,0-1.17.2-1.66.26h0v0c-1.63.92-2.18,2.32-1,3.7a22.23,22.23,0,0,0,3.9,3l1.16-.88c-.69-2-1.35-4-2.15-6C1011.82,343.72,1011.74,343.72,1011.61,343.73Z" transform="translate(-566.06 -160.57)"/><path class="cls-2" d="M1011.61,343.73c-.38,0-1.17.2-1.66.26h0C1010.44,343.93,1011.23,343.76,1011.61,343.73Z" transform="translate(-566.06 -160.57)"/><path class="cls-2" d="M1010,344v0h0v0Z" transform="translate(-566.06 -160.57)"/><path class="cls-2" d="M1010,344l0-.05,0,0Z" transform="translate(-566.06 -160.57)"/><path class="cls-2" d="M685.61,311.43q5.26-5.51,10.54-11l-.94-1C690.29,302.06,688.09,306.86,685.61,311.43Z" transform="translate(-566.06 -160.57)"/><path class="cls-2" d="M664.3,328.18c-.55,3.74-1,7.2-1.63,11.15C668.25,334,668.49,332.38,664.3,328.18Z" transform="translate(-566.06 -160.57)"/><path class="cls-2" d="M642,356.2q-1.05,3.8-2.08,7.6l.76.8c1.39-.7,3.93-1.38,3.95-2.11.05-2.1-.91-4.23-1.47-6.35Z" transform="translate(-566.06 -160.57)"/><path class="cls-2" d="M1050,336.93l-2.18,1.53,4.71,7.09C1054.42,343.28,1052.47,337.42,1050,336.93Z" transform="translate(-566.06 -160.57)"/><path class="cls-2" d="M1128.07,316.23c-.68.5-1.91,1-2,1.49-.21,2.7-.1,5.41-.1,8.12a12.11,12.11,0,0,0,3.37-5.08,4.57,4.57,0,0,0-.29-2.43c-.16-.51-.33-1-.44-1.52Z" transform="translate(-566.06 -160.57)"/><path class="cls-2" d="M1129.1,318.33c-.16-.51-.33-1-.44-1.52h0C1128.77,317.31,1128.94,317.82,1129.1,318.33Z" transform="translate(-566.06 -160.57)"/><path class="cls-2" d="M1128.07,316.23l.59.58h0Z" transform="translate(-566.06 -160.57)"/><path class="cls-2" d="M933,328.46c-3.56,3.27.38,5.47,1.17,8.58C937.56,333.86,937,330.82,933,328.46Z" transform="translate(-566.06 -160.57)"/><path class="cls-2" d="M1194.87,337l1.2-.41c-1.31-3-2.61-5.9-4.13-9.36C1189.56,331.23,1190.3,333.21,1194.87,337Z" transform="translate(-566.06 -160.57)"/><path class="cls-2" d="M1032,323.51,1028.17,311C1028.67,315.38,1026.12,320.57,1032,323.51Z" transform="translate(-566.06 -160.57)"/><path class="cls-2" d="M864.23,335.27c.36,3.46.65,6.3,1,9.92C869.11,341.62,868.75,338,864.23,335.27Z" transform="translate(-566.06 -160.57)"/><path class="cls-2" d="M1093.57,356.81l1-.19-.71-9.37C1090.37,351.72,1090.53,354.47,1093.57,356.81Z" transform="translate(-566.06 -160.57)"/><path class="cls-2" d="M1132.85,323c-2.88.17-5.56,3.83-6,8.55C1131.65,327.51,1133.24,325.22,1132.85,323Z" transform="translate(-566.06 -160.57)"/><path class="cls-2" d="M1225.11,342.38c5.53-6.94,6.13-8.54,3.5-10.3-1.58,3.36-3.11,6.64-4.65,9.91Z" transform="translate(-566.06 -160.57)"/><path class="cls-2" d="M1184,326.14c-5.25,3-5.71,3.92-3,6.63l4.95-4.35Z" transform="translate(-566.06 -160.57)"/><path class="cls-2" d="M909.82,339l1.2-.72-4.21-7.7-2.9,2.31Z" transform="translate(-566.06 -160.57)"/><path class="cls-2" d="M1248.16,347.46c.6,3.24,1.21,6.48,1.85,9.92C1252.87,355.3,1252.19,350.52,1248.16,347.46Z" transform="translate(-566.06 -160.57)"/><path class="cls-2" d="M704.54,348c-2.6,5.26-2.59,6.55.24,8.31C707.05,351.31,707,350,704.54,348Z" transform="translate(-566.06 -160.57)"/><path class="cls-2" d="M1051.58,317.64c.76-3.56-2.09-5.17-3.38-7.61C1045.73,313,1046.87,315.64,1051.58,317.64Z" transform="translate(-566.06 -160.57)"/><path class="cls-2" d="M721.93,319.28l-1.07-.54a7.71,7.71,0,0,0-1.5,2.27c-.67,2.93,1.14,4.79,3.78,6.89C722.68,324.63,722.31,322,721.93,319.28Z" transform="translate(-566.06 -160.57)"/><path class="cls-2" d="M645.12,342,649,353.28l1.75-.55q-2.12-5.6-4.24-11.19Z" transform="translate(-566.06 -160.57)"/><path class="cls-2" d="M1207.89,343.17c-.35-3.17-.67-6-1-9.34C1203,336.94,1203.36,339.69,1207.89,343.17Z" transform="translate(-566.06 -160.57)"/><path class="cls-2" d="M762.64,316.45l2.06,8.2,3.61-2.51-5-6Z" transform="translate(-566.06 -160.57)"/><path class="cls-2" d="M930.5,340.3q-.81-3.46-1.63-6.91l-1.34-.38c-.49,1.26-1.68,2.74-1.33,3.74.56,1.55,2.16,2.78,3.31,4.15Z" transform="translate(-566.06 -160.57)"/><path class="cls-2" d="M806.9,329.66c-.53-3.05-1.07-6.1-1.64-9.34C801.93,322.69,802,323.21,806.9,329.66Z" transform="translate(-566.06 -160.57)"/><path class="cls-2" d="M1121.4,359.78c-.72-3.4-1.36-6.4-2-9.59C1116.38,353.93,1117.14,357.63,1121.4,359.78Z" transform="translate(-566.06 -160.57)"/><path class="cls-2" d="M783.82,312q1.9,4.17,3.82,8.34l.92-.37c.79-3.64-1.27-6.1-3.58-8.45Z" transform="translate(-566.06 -160.57)"/><path class="cls-2" d="M952.21,340c2.46-3.07,1-5.73-.6-8.78C949.53,334.52,950,337.25,952.21,340Z" transform="translate(-566.06 -160.57)"/><path class="cls-2" d="M1234.56,323.13c-3.85,4.27-4,5.1-1,7C1236.08,326.93,1236.3,325.59,1234.56,323.13Z" transform="translate(-566.06 -160.57)"/><path class="cls-2" d="M954.45,324.1c-.47.42-1.38.88-1.34,1.24.28,2.38.76,4.74,1.29,7.77,1.59-2.59,2.08-4,1.81-5.83a12.28,12.28,0,0,0-.51-2Z" transform="translate(-566.06 -160.57)"/><path class="cls-2" d="M956.21,327.28a12.28,12.28,0,0,0-.51-2h0A12.28,12.28,0,0,1,956.21,327.28Z" transform="translate(-566.06 -160.57)"/><path class="cls-2" d="M954.45,324.1l1.25,1.15h0Z" transform="translate(-566.06 -160.57)"/><path class="cls-2" d="M998.52,355.81c1.35-5.4,1.3-6.29-.69-8.53C995.58,351.08,995.8,353.37,998.52,355.81Z" transform="translate(-566.06 -160.57)"/><path class="cls-2" d="M1162.53,332.75c.23,3.33.43,6.11.66,9.31C1166.86,338.27,1166.78,337.23,1162.53,332.75Z" transform="translate(-566.06 -160.57)"/><path class="cls-2" d="M840.39,320.57q-2.91,5.15-5.8,10.29l1.15.55c.7-4.05,6-5.85,6-10.27Z" transform="translate(-566.06 -160.57)"/><path class="cls-2" d="M1225.48,358.35c-.64,1.9-1.29,3.8-2,5.93l4.72,1.28c-.71-2.81-1.25-5-1.8-7.14Z" transform="translate(-566.06 -160.57)"/><path class="cls-2" d="M1022.24,330.87c.84,3.24-1.77,6.18.23,9.38A6.25,6.25,0,0,0,1022.24,330.87Z" transform="translate(-566.06 -160.57)"/><path class="cls-2" d="M904.58,340a4.31,4.31,0,0,0-.46,1.05,2.49,2.49,0,0,0,.42,2.35,4.39,4.39,0,0,0,1,.89,8.93,8.93,0,0,0,1.47.85c.21-.95.4-1.84.59-2.72s.38-1.71.56-2.56Z" transform="translate(-566.06 -160.57)"/><path class="cls-2" d="M904.12,341a2.49,2.49,0,0,0,.42,2.35A2.49,2.49,0,0,1,904.12,341Z" transform="translate(-566.06 -160.57)"/><polygon class="cls-2" points="338.57 179.28 338.57 179.28 338.57 179.28 338.57 179.28"/><path class="cls-2" d="M904.54,343.35a4.39,4.39,0,0,0,1,.89A4.39,4.39,0,0,1,904.54,343.35Z" transform="translate(-566.06 -160.57)"/><path class="cls-2" d="M908.12,339.81h0l-3.54.14h0Z" transform="translate(-566.06 -160.57)"/><path class="cls-2" d="M904.63,339.85l-.11.1h.06Z" transform="translate(-566.06 -160.57)"/><polygon class="cls-2" points="338.57 179.28 338.57 179.28 338.57 179.28 338.57 179.28 338.57 179.28"/><path class="cls-2" d="M904.58,340h0l0-.1h0Z" transform="translate(-566.06 -160.57)"/><polygon class="cls-2" points="338.57 179.28 338.57 179.28 338.57 179.28 338.57 179.28 338.57 179.28"/><polygon class="cls-2" points="338.57 179.28 338.57 179.28 338.46 179.37 338.57 179.28 338.57 179.28"/><path class="cls-2" d="M928.42,326.5c.86,1.06,1.56,3.19,3.24,1.7,2.45-2.17-.82-3.35-1.56-5.24C927.48,323.64,927,324.7,928.42,326.5Z" transform="translate(-566.06 -160.57)"/><path class="cls-2" d="M998.9,341.86c.38-.48-.76-2-1.25-3.19-3.6,2.42-3.7,2.6-2.91,4.9l.45.44C996.47,343.33,998.08,342.87,998.9,341.86Z" transform="translate(-566.06 -160.57)"/><path class="cls-2" d="M1030.19,347.66c.17-2.59.35-5.09.52-7.58l-.92-.05C1026.51,344.5,1026.55,346.21,1030.19,347.66Z" transform="translate(-566.06 -160.57)"/><path class="cls-2" d="M708.57,338.11c-1.76,2.57-1.36,3.79,2.26,6.76C712.34,342.62,711.6,340.4,708.57,338.11Z" transform="translate(-566.06 -160.57)"/><path class="cls-2" d="M733.16,342.4c1.54-2.09,2.42-4.13.71-6.55C730.45,338.53,730.3,339.86,733.16,342.4Z" transform="translate(-566.06 -160.57)"/><path class="cls-2" d="M1056.77,336.22l-5-9.69C1050.11,328.75,1051.38,331.23,1056.77,336.22Z" transform="translate(-566.06 -160.57)"/><path class="cls-2" d="M1157.9,327.54c-.15-.18-.32-.36-.48-.53s-.32-.36-.44-.52c-.22.16-.51.32-.78.48-.46.26-.88.53-.94.85a51.43,51.43,0,0,0-.42,5.55l.79.22a47.2,47.2,0,0,0,2.71-5.17C1158.42,328.2,1158.2,327.89,1157.9,327.54Z" transform="translate(-566.06 -160.57)"/><path class="cls-2" d="M1157,326.49h0c.12.16.28.34.44.52C1157.26,326.83,1157.1,326.65,1157,326.49Z" transform="translate(-566.06 -160.57)"/><path class="cls-2" d="M1157.42,327c.16.17.33.35.48.53C1157.75,327.36,1157.58,327.18,1157.42,327Z" transform="translate(-566.06 -160.57)"/><path class="cls-2" d="M1082.25,326.84c-.3,2.5-.6,5-1,8.09C1084.8,331.15,1086.3,328.16,1082.25,326.84Z" transform="translate(-566.06 -160.57)"/><path class="cls-2" d="M1112.3,337.7c-.31,2.08-.63,4.17-.94,6.25,4.29-2.77,4.29-2.77,2.07-6.2Z" transform="translate(-566.06 -160.57)"/><path class="cls-2" d="M728.28,320.41c.55-4.76-.24-6.11-3.24-6a3.15,3.15,0,0,0-.41.31C723.8,317.78,726.55,318.63,728.28,320.41Z" transform="translate(-566.06 -160.57)"/><path class="cls-2" d="M1100.85,318.14l-.88-.29-2.91,7.82,1,.33C1100.58,323.89,1101.16,321.16,1100.85,318.14Z" transform="translate(-566.06 -160.57)"/><path class="cls-2" d="M1179.4,308.17l-.64.55q3.51,2.83,7,5.69C1183.67,312.29,1182.37,309.47,1179.4,308.17Z" transform="translate(-566.06 -160.57)"/><path class="cls-2" d="M1187.5,315.82l-1.74-1.41A10,10,0,0,0,1187.5,315.82Z" transform="translate(-566.06 -160.57)"/><path class="cls-2" d="M686,321.14c3-1.81,3.09-3.1.61-5.6C683.36,317.31,683.36,317.31,686,321.14Z" transform="translate(-566.06 -160.57)"/><path class="cls-2" d="M770,333c-1.79,3.5-1.39,5.12,1.6,6.47C772.29,335,772.05,334,770,333Z" transform="translate(-566.06 -160.57)"/><path class="cls-2" d="M918.79,339.73c.65-2.45,1.21-4.54,1.77-6.64C915.91,335.31,915.56,336.86,918.79,339.73Z" transform="translate(-566.06 -160.57)"/><path class="cls-2" d="M766.83,339.72c.76,2.21,1.51,4.42,2.38,6.94C771.81,344.35,771,342,766.83,339.72Z" transform="translate(-566.06 -160.57)"/><path class="cls-2" d="M777.12,322.44q1.56,4.92,3.13,9.83l1.26-.35q-1.56-4.92-3.13-9.83Z" transform="translate(-566.06 -160.57)"/><path class="cls-2" d="M995.47,337.53l-2.05-2.38-3.64,6.93.71.38Z" transform="translate(-566.06 -160.57)"/><path class="cls-2" d="M969.08,334.39l-2.74,3.52c1.2.83,2.23,1.54,3.25,2.26l1-.42-.54-5.25Z" transform="translate(-566.06 -160.57)"/><path class="cls-2" d="M928.5,330.26c.15-1.14-1-2.43-1.59-3.66l-.89.28c-.35,1.84-.7,3.69-1,5.53l.9.64C926.81,332.13,928.38,331.27,928.5,330.26Z" transform="translate(-566.06 -160.57)"/><path class="cls-2" d="M661.15,353.31l1,.21q1.34-5.49,2.66-11l-1.11-.23Z" transform="translate(-566.06 -160.57)"/><path class="cls-2" d="M591.87,359.89l.47,0V341.18h-.47Z" transform="translate(-566.06 -160.57)"/><path class="cls-2" d="M667.79,349.43c-.39,2.94-.79,5.89-1.18,8.84l1,.05c.52-2.9,2.48-5.63,1.43-8.73Z" transform="translate(-566.06 -160.57)"/><path class="cls-2" d="M1222.38,344.9l-3.12,9.22,1,.32,3.62-9Z" transform="translate(-566.06 -160.57)"/><path class="cls-2" d="M1120.14,323.4l-.51-.24-4.3,4.94,3.09,1.94C1119,327.63,1119.59,325.51,1120.14,323.4Z" transform="translate(-566.06 -160.57)"/><path class="cls-2" d="M833.92,311.73q-2.38,5.28-4.76,10.56l1,.37,4.81-10.54Z" transform="translate(-566.06 -160.57)"/><path class="cls-2" d="M732.35,318.33v5l1,.46c.63-1.11,1.7-2.21,1.75-3.34,0-.87-1.24-1.78-1.93-2.67Z" transform="translate(-566.06 -160.57)"/><path class="cls-2" d="M1170.38,352.11v5.68h1.48c2.23-2.06-.12-3.81-.55-5.68Z" transform="translate(-566.06 -160.57)"/><path class="cls-2" d="M765.24,327.38c.46,2.77.81,4.86,1.3,7.76C768.79,331.25,768.46,329.27,765.24,327.38Z" transform="translate(-566.06 -160.57)"/><path class="cls-2" d="M981.21,338.52c.58,1.79,1.17,3.57,1.95,6C985.69,340.8,985.49,340.17,981.21,338.52Z" transform="translate(-566.06 -160.57)"/><path class="cls-2" d="M754.25,334.22c-1.07.1-2.79-.12-3.08.38-.62,1.09-.5,2.54-.69,3.84l1,.26c1-1.22,2-2.43,3-3.65C754.44,334.77,754.35,334.49,754.25,334.22Z" transform="translate(-566.06 -160.57)"/><path class="cls-2" d="M697.36,339.18c-.41,2.36-.8,4.63-1.24,7.21C700.3,342.26,700.57,340.77,697.36,339.18Z" transform="translate(-566.06 -160.57)"/><path class="cls-2" d="M721.48,348.09l1,.2c.44-1.93.87-3.86,1.31-5.78l-1.12-.24C720.94,344,720.06,345.84,721.48,348.09Z" transform="translate(-566.06 -160.57)"/><path class="cls-2" d="M1186.05,327.19l1.88.46,1.26-4.19a9.06,9.06,0,0,0-2.13-.19A33.15,33.15,0,0,0,1186.05,327.19Z" transform="translate(-566.06 -160.57)"/><path class="cls-2" d="M941.83,335.67c.82-.07,2.29,0,2.36-.25a22.29,22.29,0,0,0,.42-4l-1.68-.22C942.56,332.67,942.2,334.17,941.83,335.67Z" transform="translate(-566.06 -160.57)"/><path class="cls-2" d="M1165.51,348.7c1.67-2,4.09-3.08,2.42-6C1166.25,344.35,1164.07,345.49,1165.51,348.7Z" transform="translate(-566.06 -160.57)"/><path class="cls-2" d="M836.65,313.23q-2.05,4.27-4.12,8.56l1,.41c.53-3.2,4.2-5.11,4.3-8.49Z" transform="translate(-566.06 -160.57)"/><path class="cls-2" d="M736.79,294.37c.12-.94-1.13-2-1.78-3.06l-.71.27-.74,5.06.79.38C735.22,296.15,736.68,295.33,736.79,294.37Z" transform="translate(-566.06 -160.57)"/><path class="cls-2" d="M1206.2,346.41l2.12,8.76,1-.2c-.61-3-1.22-5.91-1.84-8.87Z" transform="translate(-566.06 -160.57)"/><path class="cls-2" d="M975.18,347.74c.24-2.16.47-4.11.71-6.23C972.29,343.21,972.15,344.54,975.18,347.74Z" transform="translate(-566.06 -160.57)"/><path class="cls-2" d="M991.61,344.89l2.2,3.12,1-.33c.15-1.23.29-2.45.43-3.67l-.45-.44Z" transform="translate(-566.06 -160.57)"/><path class="cls-2" d="M1149.72,349.41c.89,2.29,1.79,4.58,2.68,6.88l1-.34-2.22-6.88Z" transform="translate(-566.06 -160.57)"/><path class="cls-2" d="M838.12,305.08l1.24.63c1.36-2.36,2.71-4.73,4.06-7.09l-1-.51Z" transform="translate(-566.06 -160.57)"/><path class="cls-2" d="M910,344.69c-.53,1.68-3.66,2.81-.59,4.94C912.55,346.94,912.6,346.64,910,344.69Z" transform="translate(-566.06 -160.57)"/><path class="cls-2" d="M697.45,351.61l.87.27c.72-2,1.45-3.93,2.17-5.9l-1-.39C697,347.08,696.83,349.22,697.45,351.61Z" transform="translate(-566.06 -160.57)"/><path class="cls-2" d="M1175.23,349.14c0,1.88-.71,4,3.06,4.51l-2.13-4.87Z" transform="translate(-566.06 -160.57)"/><path class="cls-2" d="M922.19,346.23c-.16-2-.31-3.87-.52-6.6C919.11,344.1,919.15,344.4,922.19,346.23Z" transform="translate(-566.06 -160.57)"/><path class="cls-2" d="M1053.72,313.48c-1.24-2.12-2.49-4.23-3.73-6.34l-1.17.61,3.87,6.27Z" transform="translate(-566.06 -160.57)"/><path class="cls-2" d="M725.11,353.76l1.24.26,1.77-7.47-1.28-.26Q726,350,725.11,353.76Z" transform="translate(-566.06 -160.57)"/><path class="cls-2" d="M1150.26,323c-.51.91-.13,2.26-.13,3.43l1.26.21c.6-1.43,1.21-2.85,1.81-4.28-.65.1-1.48.12-2.1.23A1.26,1.26,0,0,0,1150.26,323Z" transform="translate(-566.06 -160.57)"/><polygon class="cls-2" points="587.27 161.76 587.27 161.76 587.27 161.76 587.27 161.76 587.27 161.76"/><path class="cls-2" d="M1153.2,322.35h0l.13,0h0Z" transform="translate(-566.06 -160.57)"/><path class="cls-2" d="M1153.23,322.29l0,.06.13,0Z" transform="translate(-566.06 -160.57)"/><rect class="cls-2" x="587.27" y="161.76"/><polygon class="cls-2" points="587.27 161.76 587.18 161.68 587.27 161.76 587.27 161.76"/><path class="cls-2" d="M1153.33,322.33h0l-.1,0h0l.1,0Z" transform="translate(-566.06 -160.57)"/><polygon class="cls-2" points="587.27 161.76 587.27 161.76 587.27 161.76 587.27 161.76 587.27 161.76"/><path class="cls-2" d="M1153.33,322.33l-.09-.08v0Z" transform="translate(-566.06 -160.57)"/><path class="cls-2" d="M660,323.73c.34,3,.58,5.21.82,7.41C661.52,328.83,663.39,326.37,660,323.73Z" transform="translate(-566.06 -160.57)"/><path class="cls-2" d="M635,332.35q2,3.19,3.95,6.39l1-.62q-1.87-3.19-3.76-6.39Z" transform="translate(-566.06 -160.57)"/><path class="cls-2" d="M1145.06,301.4c-2.23,1-3.52,2-1.93,4l2.67.52C1145.53,304.27,1145.31,303,1145.06,301.4Z" transform="translate(-566.06 -160.57)"/><path class="cls-2" d="M1145.8,305.9l-2.67-.52h0Z" transform="translate(-566.06 -160.57)"/><path class="cls-2" d="M1143.2,305.47l-.1-.09.1.09-.07-.09h0Z" transform="translate(-566.06 -160.57)"/><path class="cls-2" d="M1143.2,305.47h0l-.1-.09Z" transform="translate(-566.06 -160.57)"/><path class="cls-2" d="M1153.4,334.34V328.9C1150.27,332.07,1150.25,332.72,1153.4,334.34Z" transform="translate(-566.06 -160.57)"/><path class="cls-2" d="M1145,340.73c.1,1.73.21,3.45.36,5.9,2.69-2.3,2.69-2.3.56-5.88Z" transform="translate(-566.06 -160.57)"/><path class="cls-2" d="M1117,338.87c.25-1.78.48-3.44.79-5.64C1114.29,335.73,1114.2,336.72,1117,338.87Z" transform="translate(-566.06 -160.57)"/><path class="cls-2" d="M747.4,327.8l-.95.91c1,1.56.45,4.75,4.15,3.58Z" transform="translate(-566.06 -160.57)"/><path class="cls-2" d="M770.38,328.61c-.17-1.72-.3-3-.51-5.13C766.38,326.39,766.45,326.81,770.38,328.61Z" transform="translate(-566.06 -160.57)"/><path class="cls-2" d="M1178.75,348.43c-.42-1.7-.85-3.4-1.36-5.46C1174.41,345.84,1176.56,347.14,1178.75,348.43Z" transform="translate(-566.06 -160.57)"/><path class="cls-2" d="M1129.14,338.32l-1.28.44,1.65,4.33C1131.7,340.7,1130.68,339.41,1129.14,338.32Z" transform="translate(-566.06 -160.57)"/><path class="cls-2" d="M989.22,348.05l.53,4.33h1.51C992.79,350.64,991.14,349.34,989.22,348.05Z" transform="translate(-566.06 -160.57)"/><path class="cls-2" d="M1039.62,337.22v5.9l1.19.06c-.13-2-.25-4-.37-6Z" transform="translate(-566.06 -160.57)"/><path class="cls-3" d="M1025.25,249.78c-.61.28-.8,1.58-1,2.45-1.08,4.73-2,9.48-3.19,14.2-.19.77-1.09,1.39-1.66,2.08-.5-.65-1.28-1.23-1.46-1.95q-1.73-7.06-3.23-14.18c-.58-2.68-2.54-3.25-5-3.17s-3.35,1.53-3.5,3.8c-.31,4.62-.84,9.24-1.44,13.85-.08.66-1,1.21-1.59,1.82-.52-.52-1.33-1-1.51-1.57-1.15-3.87-2.16-7.78-3.24-11.67a31.19,31.19,0,0,0-1.38-4.66c-.86-1.94-4-3.09-5.69-1.77-.93.75-1,2.73-1,4.15a8.39,8.39,0,0,0,1,3.16c3.07,7.22,4.25,15.2,9.61,21.34,5.82-4.4,6-11.39,9.29-17.77,1.19,3.74,1.9,6.81,3.14,9.67a88.33,88.33,0,0,0,4.48,8.05l1.32-.14c1.27-2,2.88-3.93,3.75-6.1,2.6-6.4,5-12.88,7.25-19.38.31-.9-.34-2.09-.55-3.15A19.46,19.46,0,0,0,1025.25,249.78Z" transform="translate(-566.06 -160.57)"/><path class="cls-3" d="M1082.74,251.26c-.07-1.47-.54-3.68-1.57-4.15-1.26-.59-3.29.28-5,.53.85,3.7,1.56,6.78,2.34,10.23-2.19,0-3.8,0-5.4,0-4.57.12-8.64,2.7-9.48,6.83a20.94,20.94,0,0,0,.17,8.95c1.12,4.54,2.57,5.3,7.56,5.39,4.29.08,8.59,0,12.91,0-.48-5.05-1-9.15-1.23-13.26C1082.8,261,1083,256.1,1082.74,251.26Zm-4.64,18.12a22.58,22.58,0,0,1-.62,3.93c-.83,2.77-4.76,3.79-7,1.95-3-2.39-3.46-10.05-.56-12.52,1.22-1,3.86-2.35,4.56-1.87,1.64,1.12,2.62,3.19,3.6,5C1078.43,266.59,1078.1,267.64,1078.1,269.38Z" transform="translate(-566.06 -160.57)"/><path class="cls-3" d="M940.78,258.23l-5.31,1c0-1.76,0-3,0-4.33s-.13-2.62-.27-3.93c-.5-4.44-1.63-5-6-3.38.58,5.17,1.62,10.27,1.6,15.37s-1.1,10.33-1.72,15.5h6.7c0-3.27.14-6.29,0-9.3-.2-3.35.28-6.27,4.24-8,3.13,1.68,4.38,4.28,4.16,7.77s-.05,6.83-.05,10.16h6.08c-.57-5.49-.95-10.74-1.68-15.94C947.83,258.65,945.54,257.32,940.78,258.23Z" transform="translate(-566.06 -160.57)"/><path class="cls-3" d="M961.19,258.3c-5.74,2.41-8.17,10.1-5.08,15.92,1.7,3.2,4.24,5.29,8.15,5.38s7-1.44,8.3-4.26a84.71,84.71,0,0,1-9.63-1.12c-1-.23-2.06-2-2.32-3.13-.11-.52,1.61-1.81,2.68-2a67.89,67.89,0,0,1,7-.8c2.56-.3,4.09-2.31,3.44-4.44C972.37,259.27,965.77,256.38,961.19,258.3Zm7.1,5.53c-.17.81-1.94,1.67-3.13,1.87a45.75,45.75,0,0,1-6.69.08c1.81-1.92,2.88-3.46,4.35-4.48a4.33,4.33,0,0,1,3.58-.48C967.39,261.31,968.48,262.93,968.29,263.83Z" transform="translate(-566.06 -160.57)"/><path class="cls-3" d="M1049.74,247.31c3.07,10.48,2.78,20.82-.06,31.35h8c-.46-10.79-.92-21.36-1.4-32.3Z" transform="translate(-566.06 -160.57)"/><path class="cls-3" d="M1042.39,257.42l-8,1.47c5,6.63,3.19,13.34.9,20h9.14c-.69-3.54-1.63-6.92-2-10.35S1042.39,261.4,1042.39,257.42Z" transform="translate(-566.06 -160.57)"/><path class="cls-3" d="M1041.73,251.74c2.53-2.47-.57-3.29-1.68-5.06-1.36,1.76-4.32,2.55-2.34,5.25C1039,253.71,1040.54,252.9,1041.73,251.74Z" transform="translate(-566.06 -160.57)"/><path class="cls-2" d="M1074.44,260.87c-.7-.48-3.34.83-4.56,1.87-2.9,2.47-2.39,10.13.56,12.52,2.28,1.84,6.21.82,7-1.95a22.58,22.58,0,0,0,.62-3.93c0-1.74.33-2.79-.06-3.51C1077.06,264.06,1076.08,262,1074.44,260.87Z" transform="translate(-566.06 -160.57)"/><path class="cls-2" d="M966.4,260.82a4.33,4.33,0,0,0-3.58.48c-1.47,1-2.54,2.56-4.35,4.48a45.75,45.75,0,0,0,6.69-.08c1.19-.2,3-1.06,3.13-1.87S967.39,261.31,966.4,260.82Z" transform="translate(-566.06 -160.57)"/></svg>