<svg id="Layer_1" data-name="Layer 1" xmlns="http://www.w3.org/2000/svg" viewBox="0 0 448.41 540.04" style=""><defs><style>.cls-1{fill:#fff;stroke:#231f20;stroke-miterlimit:10;stroke-width:2px;}</style></defs><title>lion_outline</title><path class="cls-1 RvflWvuc_0" d="M1225.36,529.48c-13-2.29-26.12-4.46-39.26-5.87-18.1-1.94-36.32-2.52-54.38-4.81-32.66-4.14-64-13.95-92.53-32.49-11.91-7.72-22.92-17.15-34.33-25.81a8.93,8.93,0,0,0-3-1.81,36,36,0,0,0,1.93,3.58c12,17.55,27.65,29.83,44.9,40.23,26,15.71,54,24.71,82.67,31.8,2.28.57,2.7,1.49,2.7,3.8,0,15.1.46,30.18,2.84,45.09.46,2.85,1.31,5.62,2.17,9.22-4.55-.9-8.92-1.55-13.2-2.63-41.6-10.49-77.87-32.66-110.27-63.13-6.83-6.42-13.09-13.6-19.61-20.42a6.08,6.08,0,0,0-3-2c1,2.26,1.86,4.59,3,6.75,7.68,14.89,18.09,27.17,29.76,38.14,15.87,14.91,33.43,26.92,51.91,37.31,2.44,1.37,3.17,2.77,2.82,5.94-1.48,13.46-2.61,27-3.92,41.05a144.48,144.48,0,0,1-67.19-32.18c-20-16.89-35.16-38.24-45.81-63.63l-.86.35c.56,3.47.94,7,1.7,10.41,3.42,15.25,10.55,28.39,19,40.68A181.9,181.9,0,0,0,1009,619c2,1.81,2.51,3.33,1.4,6.29-3.45,9.2-6.43,18.63-9.63,28-1.37,4-1.44,4-5,2.22-10.14-5.09-18.33-13.07-25.76-22.08a173.78,173.78,0,0,1-23.57-37.49c-4.65-10-8.86-20.27-13.26-30.42-.42-1-.81-2-1.27-3.09-4,13.85,7.74,51.58,22.31,71.51-8.42,11.31-16.9,22.68-25.53,34.26-17.68-23.83-28.84-50.67-33.93-80.74-4.21,24.71-2.89,48.48,9.34,70.47,2.17,3.9,2.09,3.78-.92,7a155.65,155.65,0,0,0-39,76.74c-.22,1.11-.52,2.2-1,4.28-1.91-4-3.58-7.15-5-10.44-9.29-22.23-12.79-45.64-11.3-70.05,1.86-30.64,11.29-58.44,26.11-84,6.86-11.81,14.87-22.8,22.48-34.05a3.42,3.42,0,0,1,3.16-1c3.66,1,6.1-.06,8.75-3.36,15.19-18.94,30.66-37.59,46.08-56.29a5.78,5.78,0,0,0,1.38-5.78c-1.82-7.18-3.29-14.46-5-22,2.88-1.11,5.58-2.27,8.35-3.17a5.81,5.81,0,0,0,4-4.22c3.34-10.53,6.9-21,10.16-31.53a9.74,9.74,0,0,0-.2-5.78q-6.25-16.31-12.93-32.41a10.31,10.31,0,0,1-.45-6.87c1.12-4.46,2.13-9,3.37-14.21l-17.57,11.46c2.56,6.43,5.08,12.75,7.59,19.08,2.63,6.65,5.31,13.28,7.82,20a7.92,7.92,0,0,1,.28,4.34c-2.19,8.88-4.48,17.74-6.94,26.53a5.72,5.72,0,0,1-2.74,3.22c-3.57,1.69-7.26,3.1-11,4.42-1.92.69-2.28,1.84-1.82,3.88,1.83,8.1,3.63,16.2,5.29,24.34a4.64,4.64,0,0,1-.77,3.37c-11.29,13.18-22.84,26.1-34,39.47-4.29,5.18-8.63,8.78-15.24,7.33a8.66,8.66,0,0,0-2.31.21c1.06,4.26-1.38,6.71-3.51,9.4-5.48,6.91-10.89,13.89-16.61,21.2l-12-18.29-8.85,8.83c-2-6.73-4-12.93-5.6-19.26-.78-3.06-1.88-4.36-4.93-4.34-5.12,0-10.24-.61-15.85-1,2.14-6.64,4-12.91,6.2-19a14.63,14.63,0,0,0,.08-10.64c-2.31-6.52-4.25-13.22-6.4-20h47.9c-.73-3.84-1.36-7.52-2.18-11.15a2.3,2.3,0,0,0-1.71-1.24c-16.56-1.73-33.11-3.46-49.68-5a5.16,5.16,0,0,1-4.8-3.33c-5.91-12.85-12-25.58-17.76-38.5-1-2.37-1-5.47-1.06-8.24a33.41,33.41,0,0,1,4-16.77,15.94,15.94,0,0,1,5.71-6.15q27.42-15.61,55.07-30.66c3.32-1.81,5.57-3.81,6.32-8a9.64,9.64,0,0,1,2.75-4.74Q882.9,326.61,898,312a6.89,6.89,0,0,1,4.5-1.68c7.3,0,14.59.31,21.89.5.87,0,1.73,0,2.66,0,8.11-39.4,25.33-71.15,58.91-89.63v15.63c17.08-17.11,36.11-27.06,59.09-27-3.59,6.44-9.48,10.8-10.84,19.06,23-5.85,45.61-9.16,68.62-2.73-4.9,4.15-8.79,9.6-15.55,10.55-5.25.74-10.4,2.66-15.51,4.39a16.52,16.52,0,0,0-5.53,3.87c30.27-6.4,60.23-8.66,90.59,4-3.53,2.34-6.49,3.95-9.1,6.1-8,6.6-16.91,9.38-26.87,9.76-6.92.27-13.8,2.34-20.68,3.75a11.29,11.29,0,0,0-3.77,2c39.38-1.5,76.36,5.52,107.61,35.66a16.42,16.42,0,0,1-1.76,1.52c-6.12,3.81-12.22,7.65-18.4,11.34a6,6,0,0,1-3.6.78c-13.08-1.56-26.18-2.58-39.31-1.08a91.18,91.18,0,0,0-13.67,3.12c-1.57.43-3,1.66-4.46,2.53,32.14-3.65,61.79,1.53,86.28,26.95,12.64,13.11,20.77,29.52,26.37,47.93-67-13.95-132.89-12.09-198,10l.06.87c5.43-.79,10.84-1.77,16.29-2.35q27.3-2.91,54.62-5.59a350.89,350.89,0,0,1,53.36-1.23,185.13,185.13,0,0,1,21.72,2.7c7.1,1.24,13,5.58,18.57,10.41,13.39,11.58,23.19,26.48,31.74,42.54,1.74,3.26,3.33,6.62,5,10a8,8,0,0,1,.27,1.56c-3.77-.93-7.31-2-10.9-2.67-17.21-3.47-34.62-4-52-4.15-12.46-.13-24.93.29-37.38-.12-23.53-.77-47.08-1.51-70.57-3.15a126.09,126.09,0,0,1-42.49-10.74c-1.15-.51-2.33-.94-3.5-1.41l-.36.7c2.16,1.4,4.19,3.21,6.51,4.13,10,3.94,19.86,8.27,30.06,11.28a344.4,344.4,0,0,0,69,12.51c16.58,1.38,33.2,2.15,49.81,3a103.87,103.87,0,0,0,12.84-.29,11,11,0,0,1,9,3.47c11.6,11.14,22.89,22.61,32.33,36.13a112.12,112.12,0,0,1,6.83,12.09,35.15,35.15,0,0,1,1.69,5.21C1234.77,532.47,1230.16,530.32,1225.36,529.48Z" transform="translate(-793.1 -208.86)"></path><path class="cls-1 RvflWvuc_1" d="M994.12,275.24a28.15,28.15,0,0,0-6.32,3.23c-12,8.31-21.29,19.82-29.85,32.12a19.47,19.47,0,0,0-2.45,5.14c-.31,1,.12,2.22.22,3.35a22.07,22.07,0,0,0,2.95-.43,5.08,5.08,0,0,0,1.47-1q11.33-8.62,22.65-17.25c1.09-.83,2.26-1.53,4-2.72-1.33,18.73-2.3,36.58-10.46,53.07,3.4,0,6.49-.12,9.57,0a3.87,3.87,0,0,0,4-2.34c12.61-22.27,13-46.22,8-70.94C997.46,275.05,995.8,274.62,994.12,275.24Z" transform="translate(-793.1 -208.86)"></path><path class="cls-1 RvflWvuc_2" d="M863.49,368.53l11.5,16.7,21.56-27.48-.24-.52Z" transform="translate(-793.1 -208.86)"></path><path class="cls-1 RvflWvuc_3" d="M813.93,431.25,823,404.93l-18.29,5.6C807.81,417.49,810.72,424,813.93,431.25Z" transform="translate(-793.1 -208.86)"></path><style data-made-with="vivus-instant">.RvflWvuc_0{stroke-dasharray:4512 4514;stroke-dashoffset:4513;animation:RvflWvuc_draw 5000ms ease-in 0ms forwards;}.RvflWvuc_1{stroke-dasharray:246 248;stroke-dashoffset:247;animation:RvflWvuc_draw 5000ms ease-in 0ms forwards;}.RvflWvuc_2{stroke-dasharray:91 93;stroke-dashoffset:92;animation:RvflWvuc_draw 5000ms ease-in 0ms forwards;}.RvflWvuc_3{stroke-dasharray:70 72;stroke-dashoffset:71;animation:RvflWvuc_draw 5000ms ease-in 0ms forwards;}@keyframes RvflWvuc_draw{100%{stroke-dashoffset:0;}}@keyframes RvflWvuc_fade{0%{stroke-opacity:1;}95.65217391304348%{stroke-opacity:1;}100%{stroke-opacity:0;}}</style></svg>