<svg id="Layer_1" data-name="Layer 1" xmlns="http://www.w3.org/2000/svg" viewBox="0 0 448.41 540.04"><defs><style>.cls-1,.cls-2{stroke:#231f20;stroke-miterlimit:10;stroke-width:2px;}.cls-2{fill:#fff;}</style></defs><title>lion_silhouette_right</title><path class="cls-1" d="M522.7,529.48c13-2.29,26.13-4.46,39.26-5.87,18.1-1.94,36.33-2.52,54.38-4.81,32.67-4.14,64-13.95,92.54-32.49,11.9-7.72,22.91-17.15,34.32-25.81a9,9,0,0,1,3-1.81,38.24,38.24,0,0,1-1.93,3.58c-12,17.55-27.66,29.83-44.91,40.23-26,15.71-54,24.71-82.67,31.8-2.27.57-2.7,1.49-2.69,3.8,0,15.1-.47,30.18-2.85,45.09-.45,2.85-1.31,5.62-2.17,9.22,4.56-.9,8.93-1.55,13.21-2.63,41.59-10.49,77.87-32.66,110.26-63.13,6.83-6.42,13.09-13.6,19.62-20.42a6.09,6.09,0,0,1,3-2c-1,2.26-1.85,4.59-3,6.75-7.68,14.89-18.08,27.17-29.76,38.14-15.86,14.91-33.43,26.92-51.9,37.31-2.45,1.37-3.18,2.77-2.83,5.94,1.48,13.46,2.61,27,3.92,41.05a144.46,144.46,0,0,0,67.2-32.18c20-16.89,35.15-38.24,45.8-63.63l.86.35c-.56,3.47-.93,7-1.7,10.41-3.42,15.25-10.54,28.39-19,40.68A181.36,181.36,0,0,1,739.08,619c-2,1.81-2.52,3.33-1.41,6.29,3.45,9.2,6.44,18.63,9.64,28,1.36,4,1.44,4,5,2.22,10.14-5.09,18.32-13.07,25.75-22.08a173.43,173.43,0,0,0,23.58-37.49c4.64-10,8.86-20.27,13.26-30.42.42-1,.8-2,1.27-3.09,4,13.85-7.74,51.58-22.32,71.51l25.54,34.26c17.68-23.83,28.84-50.67,33.93-80.74,4.2,24.71,2.88,48.48-9.34,70.47-2.17,3.9-2.1,3.78.91,7a155.67,155.67,0,0,1,39,76.74c.22,1.11.52,2.2,1,4.28,1.91-4,3.58-7.15,5-10.44,9.29-22.23,12.78-45.64,11.3-70.05-1.87-30.64-11.3-58.44-26.12-84-6.86-11.81-14.86-22.8-22.47-34.05a3.42,3.42,0,0,0-3.16-1c-3.67,1-6.1-.06-8.76-3.36-15.19-18.94-30.66-37.59-46.08-56.29a5.78,5.78,0,0,1-1.37-5.78c1.81-7.18,3.28-14.46,5-22-2.89-1.11-5.59-2.27-8.35-3.17a5.81,5.81,0,0,1-4-4.22c-3.34-10.53-6.9-21-10.16-31.53a9.74,9.74,0,0,1,.2-5.78q6.24-16.31,12.93-32.41a10.31,10.31,0,0,0,.44-6.87c-1.12-4.46-2.12-9-3.36-14.21l17.56,11.46c-2.55,6.43-5.08,12.75-7.58,19.08-2.64,6.65-5.32,13.28-7.82,20a7.92,7.92,0,0,0-.28,4.34c2.19,8.88,4.48,17.74,6.93,26.53a5.72,5.72,0,0,0,2.74,3.22c3.57,1.69,7.26,3.1,11,4.42,1.92.69,2.29,1.84,1.83,3.88-1.84,8.1-3.64,16.2-5.3,24.34a4.68,4.68,0,0,0,.77,3.37c11.3,13.18,22.84,26.1,33.95,39.47,4.3,5.18,8.64,8.78,15.24,7.33a8.63,8.63,0,0,1,2.31.21c-1.06,4.26,1.39,6.71,3.52,9.4,5.47,6.91,10.88,13.89,16.6,21.2,4-6.11,7.92-12.08,12-18.29l8.85,8.83c2-6.73,4-12.93,5.59-19.26.78-3.06,1.88-4.36,4.93-4.34,5.12,0,10.25-.61,15.86-1-2.15-6.64-3.95-12.91-6.2-19a14.63,14.63,0,0,1-.09-10.64c2.31-6.52,4.25-13.22,6.41-20H876.76c.73-3.84,1.36-7.52,2.18-11.15a2.32,2.32,0,0,1,1.71-1.24c16.56-1.73,33.12-3.46,49.69-5a5.16,5.16,0,0,0,4.8-3.33c5.9-12.85,12-25.58,17.76-38.5,1.05-2.37,1-5.47,1.05-8.24A33.5,33.5,0,0,0,950,391a16,16,0,0,0-5.72-6.15q-27.4-15.61-55.06-30.66c-3.33-1.81-5.58-3.81-6.32-8a9.73,9.73,0,0,0-2.76-4.74Q865.17,326.61,850,312a6.93,6.93,0,0,0-4.5-1.68c-7.3,0-14.6.31-21.9.5-.86,0-1.73,0-2.66,0-8.1-39.4-25.33-71.15-58.9-89.63v15.63C745,219.74,726,209.79,703,209.86c3.6,6.44,9.49,10.8,10.84,19.06-22.95-5.85-45.61-9.16-68.62-2.73,4.9,4.15,8.79,9.6,15.55,10.55,5.26.74,10.41,2.66,15.51,4.39a16.65,16.65,0,0,1,5.54,3.87c-30.28-6.4-60.24-8.66-90.6,4,3.53,2.34,6.49,3.95,9.1,6.1,8,6.6,16.91,9.38,26.87,9.76,6.93.27,13.8,2.34,20.68,3.75a11.19,11.19,0,0,1,3.77,2c-39.38-1.5-76.35,5.52-107.61,35.66a16.35,16.35,0,0,0,1.77,1.52c6.11,3.81,12.22,7.65,18.39,11.34a6,6,0,0,0,3.6.78c13.08-1.56,26.19-2.58,39.31-1.08a90.91,90.91,0,0,1,13.67,3.12c1.58.43,3,1.66,4.47,2.53-32.14-3.65-61.8,1.53-86.28,26.95-12.64,13.11-20.78,29.52-26.38,47.93,67-13.95,132.9-12.09,198,10l-.06.87c-5.43-.79-10.85-1.77-16.3-2.35q-27.3-2.91-54.62-5.59A350.89,350.89,0,0,0,586.17,401a185.23,185.23,0,0,0-21.71,2.7c-7.11,1.24-13,5.58-18.57,10.41-13.39,11.58-23.19,26.48-31.75,42.54-1.73,3.26-3.33,6.62-5,10a7.12,7.12,0,0,0-.28,1.56c3.78-.93,7.32-2,10.91-2.67,17.2-3.47,34.61-4,52-4.15,12.46-.13,24.93.29,37.38-.12,23.53-.77,47.08-1.51,70.57-3.15a126.08,126.08,0,0,0,42.5-10.74c1.15-.51,2.33-.94,3.5-1.41l.35.7c-2.16,1.4-4.19,3.21-6.5,4.13-10,3.94-19.87,8.27-30.07,11.28a344.4,344.4,0,0,1-69,12.51c-16.58,1.38-33.2,2.15-49.81,3a103.87,103.87,0,0,1-12.84-.29,11,11,0,0,0-9,3.47c-11.61,11.14-22.9,22.61-32.33,36.13A110.45,110.45,0,0,0,509.79,529a33,33,0,0,0-1.69,5.21C513.3,532.47,517.91,530.32,522.7,529.48Z" transform="translate(-506.56 -208.86)"/><path class="cls-2" d="M754,275.24a28.36,28.36,0,0,1,6.32,3.23c12,8.31,21.28,19.82,29.85,32.12a19.76,19.76,0,0,1,2.44,5.14c.31,1-.12,2.22-.21,3.35a22.45,22.45,0,0,1-3-.43,5.22,5.22,0,0,1-1.47-1q-11.31-8.62-22.64-17.25c-1.09-.83-2.26-1.53-4-2.72,1.32,18.73,2.29,36.58,10.46,53.07-3.41,0-6.5-.12-9.58,0a3.87,3.87,0,0,1-4-2.34c-12.6-22.27-13-46.22-8-70.94C750.61,275.05,752.27,274.62,754,275.24Z" transform="translate(-506.56 -208.86)"/><path class="cls-2" d="M884.57,368.53l-11.49,16.7-21.56-27.48.24-.52Z" transform="translate(-506.56 -208.86)"/><path class="cls-2" d="M934.14,431.25c-3.15-9.11-6-17.3-9.09-26.32l18.3,5.6C940.25,417.49,937.34,424,934.14,431.25Z" transform="translate(-506.56 -208.86)"/></svg>