<svg id="Layer_1" data-name="Layer 1" xmlns="http://www.w3.org/2000/svg" viewBox="0 0 582.28 381.15"><defs><style>.cls-1{fill:none;}.cls-2{fill:#fff;}</style></defs><title>tiger</title><path class="cls-1" d="M90.54,377.51c.17-.12.34-.25.49-.38h0Z" transform="translate(-0.99 -1.28)"/><path d="M537.94,25.22c3.87-3.14,7.95-6,13.14-7.54,3.35-1,6.59-1,9.62.81,2.08,1.23,3,3,2,4.94-.9,1.69-2,3.59-3.71,4.6-4.92,3-10.18,5.51-15.3,8.22-.09-.18-.17-.37-.26-.56a47.26,47.26,0,0,0,2.76-4.14c.76-1.44.06-2.64-1.78-2.6a86,86,0,0,0-8.78.78,16.14,16.14,0,0,1-3.45.5C534.08,28.56,536,26.84,537.94,25.22Zm-2.49,16.47L517.64,53.13c-2.81-3-5.38-5.78-8-8.59C518,36.85,527.29,35.36,535.45,41.69Zm-19.06,226c-3.77,0-7.51-.06-11.24,0a77.74,77.74,0,0,0-10.68.53c-2,.32-3.74,1.79-6.36,3.13,1.29-2.77,1.85-5.46,3.58-7.4a136.63,136.63,0,0,1,10.63-10c.86-.8,1.7-1.62,2.46-2.35,3.8,5.26,7.61,10.56,11.61,16.12Zm-41.11-27.51c-.07-4.8-1-9.6-1.51-14.4-.08-.69-.13-1.39-.21-2.25,8.39,8,12.59,36.81,6.54,44.45l-12.39-15.39c7.18-2.08,7.63-7.3,7.57-12.38Zm-5-39.86a39.55,39.55,0,0,1-8.12-16.93,4.34,4.34,0,0,1-.12-.87c0-.11.14-.23.31-.5,4.56,4.34,6.89,10.5,14.25,12.45,2-6.89-5.57-21.43-17.86-35A55.63,55.63,0,0,1,472,172.37c9.43,12.59,14.87,26.6,20,40.73,2.3,6.4,4.48,12.84,6.64,19-3.79-4.4-7.62-9-11.64-13.48-5.55-6.05-11.42-12-16.73-18.27Zm27-145.69c2.46,3.31,4.81,6.46,7.12,9.55L491.17,75.91l-.73-.27c-1.42-7.78.06-14.92,6.83-21ZM473.94,75.94l12.85,5.51L461.5,90.73c4.36-5.22,6.88-11,12.43-14.76Zm-21,22.51c7.28,4.48,12.1,4,19-.72,4.21-2.85,8-6.21,11.85-9.3-.49,4.81-14.11,23.31-20.93,28.26-2.51-4.91-5.17-6.32-11.19-5.24a93.07,93.07,0,0,0-10.93,3.11c-.77.23-1.5.55-2.25.82l-.58-.53ZM450,152.23c1.26,4.21,3.31,8.26,5,12.38a7.39,7.39,0,0,1,.68,2c-5.94-7.36-13-14.24-14.94-23.37a33.18,33.18,0,0,1-.27-7.84c0-1.75,1.15-3,3-4,3.81-2.05,7.36-4.44,11-6.68l.46.44C447,133.39,447.17,142.69,450,152.23Zm-23-29.31c5.76,12.74,12,25,8.31,38.88-3.31-12.57-8.89-24.07-21.61-32.29,6.3.72,9.91-2.41,13.35-6.59Zm-41.58-.55c1.86.79,3.74,1.56,5.59,2.38,3.27,1.44,6.42,3.16,9.83,4.31,4.34,1.46,7,4.18,8,7.74a115.91,115.91,0,0,1,3.92,17.36c1.2,9.27,1.11,18.68,4.82,27.66-5.42-3.41-8.33-8.18-10.24-13.39s-3.52-10.54-5.11-15.84a53.71,53.71,0,0,0-9.57-18.08c-2.93-3.71-5.31-7.74-7.94-11.63ZM365,117.51a20.08,20.08,0,0,1,7.2,9.52c2,5.49,3.63,11.1,5.14,16.71,2.15,7.93,4,15.91,6,23.68a31.84,31.84,0,0,1-2.55-1.95A32.34,32.34,0,0,1,371,149c-2.57-10.39-4.62-20.87-6.89-31.32ZM329.19,97.94c8.11,3.33,16.2,6.7,24.33,10,1.54.63,2.09,1.28,1.78,2.83-.75,3.73.75,7.21,2.11,10.69a85.75,85.75,0,0,1,3.65,10.46c.5,2-.07,4.24-.17,6.37l-1,.07c-1.94-8.46-7-15.51-13.62-21.78-4.49-4.22-9.18-8.29-13.63-12.54a31.35,31.35,0,0,1-5.18-6.63,14.29,14.29,0,0,1,1.74.51Zm-13,39.27c-.86,4.41-1.69,8-2.26,11.72-1.16,7.53-1.85,15.13-3.43,22.6-.75,3.56-2.76,7-4.86,10.24-1.3,2-3.86,3.36-6.05,5.16,1.61-10.29,3-19.91,4.65-29.5,1-5.67,2.56-11.21,6.85-15.85a63.9,63.9,0,0,1,5.06-4.39ZM293.77,82.26c3,1.63,5.75,3.47,8.8,4.94a3.48,3.48,0,0,1,2.2,3.52c.37,7.63-2.59,14.5-6.48,21.16-2,3.38-4,6.74-6,10.11l-.94-.13c.36-6.11.64-12.22,1.11-18.33.62-8.13.94-16.2-3.88-23.89,1.7.87,3.44,1.67,5.15,2.6ZM197,36.37a6.13,6.13,0,0,1,.27-1.2c3.28,1.79,6.14,3.46,9.14,4.94,4,2,5.35,4.71,5.55,8.73.56,11.13.61,22.22-1.22,33.26-1.5,9-3.77,18-9.55,25.74q-12,16.26-35.48,15.9c3.8-1,7.26-1.62,10.42-2.81,9.5-3.58,15.29-10.11,19-18.12,3.88-8.39,5.49-17.16,5.92-26.13A143.74,143.74,0,0,0,197,36.35Zm-9.79-3.62c2.24,3.3,2.53,7,2.29,10.63a39.14,39.14,0,0,1-4.94,16.91c-.33.59-.75,1.13-1.12,1.69.23-11.12,2-22.31-6-32.27a8.37,8.37,0,0,1,9.73,3ZM153.13,76.08l-14.32,4.63c-1-7.47-.32-14.23,2.76-20.65,5.17-10.75,12.93-19.7,25.75-24.83-6.29,5.4-11.53,11.4-14.72,18.56a24.35,24.35,0,0,0,.49,22.27ZM112.27,15c12,.73,23.4,3.83,34.76,7,5.88,1.62,11.79,3.15,17.68,4.73a3.47,3.47,0,0,1,1.32.65c-11.3-.46-22.36-3-33.7-2.49.94,3.47,2.16,6.76,2.67,10.13,1.27,8.41.52,16.65-4.3,24.32a17.81,17.81,0,0,1-10.83,8,63.7,63.7,0,0,0,5.11-6.7c5.17-9,3.69-17.84-2-26.22-6.85-10.14-17.16-16.14-31.06-17.6A62,62,0,0,1,112.27,15ZM67.72,108c-2.23,2.22-1.08,5.79-4.39,7.51-.33-2.16-.15-4.38-1.09-6.16s-3-3-4.85-4.8L77.1,99.75c-1.68,5.61-1.81,11.39-7.68,15.61,0-2.73,1.33-5.39-1.7-7.33Zm-16.59.31A37.75,37.75,0,0,0,36,106.05c-5.4.31-10.1,1.67-13.11,6.17l-5-2.43c-.49-2.29-.88-4.17-1.3-6.13a56.38,56.38,0,0,0,5.95.5,21.45,21.45,0,0,0,12.51-4.65c3-2.2,5.8-4.56,8.7-6.84,6.76-5.31,12.83-3.93,15.61,3.58.49,1.31.77,2.67,1.21,4.26-5.15,1.06-8.35,3.42-9.46,7.83ZM54,113.84c-5.29,2.74-10.44,5.69-15.91,8.14-3.88,1.74-8.6.11-11.53-3.79,7.11,1.4,12.49-1.46,18.19-3.35,2.79-.92,5.77-1.43,8.66-2.13ZM30.14,41.3,16.63,47.54c.54-6.62,6.88-9.59,13.51-6.22ZM17.55,31.51c.19-.67,1-1.69,1.55-1.69a4.58,4.58,0,0,1,2.78,1.08,2,2,0,0,1,.31,2,26.28,26.28,0,0,1-2.57,3.46C17.59,34.9,17,33.28,17.55,31.51Zm14.2,57.63c-1.47.09-3,0-4.44,0a2.66,2.66,0,0,0-.16-.58c1.62-.59,3.22-1.23,4.86-1.77,4.27-1.42,5.09-2.55,4.41-6.23,3.43,1.31,5.31,4,5.11,7.33-.27,4.44-4,8.5-8.8,9.77a21.83,21.83,0,0,0,3.16-4c1.45-3-.35-4.85-4.14-4.6Zm3.92-27.06a3.28,3.28,0,0,0-2.45,1.6,24.87,24.87,0,0,0-.79,5.82c-.12,2.46,0,4.92,0,7.74L24,68.51c2.25-3.63,4.58-7.75,7.29-11.68,2.87-4.18,7.2-6.51,13.17-6.41-.89,2.57-1.67,5-2.58,7.45s-2.88,4-6.23,4.18ZM65,95.23c1.5-4.19,1.71-8.23-1.26-12S56.37,78,51.28,77a40,40,0,0,1,5-.44,21.34,21.34,0,0,1,13.65,5c1.4,1.2,2,1,3.11-.28,5.43-6.55,5.81-13.91,4.73-21.45a33.89,33.89,0,0,0-7.38-17c10,3.68,16,15.06,14.65,26.69C83.52,82.65,75.28,93.38,65,95.23Zm.78-24.4.37-.54L75,73.6l-1.46,2.91ZM80.08,95.21a5.9,5.9,0,0,1,1.51-5.27c6-7,8.12-15,7.89-23.6q0-1.75-.06-3.51c0-.13.1-.26.64-.47a55.57,55.57,0,0,1,1.26,6.52c.51,6.76,0,13.38-3.38,19.74-.7,1.34.18,3.29.33,4.95l1,.07a21.74,21.74,0,0,0,8.88-13.93c2.94-14.79-1.73-28-11.79-40.25,3.84,1.51,7.84,2.3,11-.73s.92-5.85-1-8.63l.57-.39a22.82,22.82,0,0,1,4,2.33c3.68,3.24,4.22,9.77,1.09,13.45a2.38,2.38,0,0,0-.32,3c7.75,18,5.79,35.19-6.72,51.26-3.87,5-9.28,8.49-16.88,10.31,3.69-5,2.92-9.94,2-14.85ZM78.8,10.11c3,4.35,4.13,9.23,4.9,14.16a2.52,2.52,0,0,0,2.37,2.54c4.91,1.09,7.17,4.91,6,9.93-5.73-3.41-11.61-4.29-18.17-1.85,6.44-10.3,4.91-20.1-1.78-29.85a11.65,11.65,0,0,1,6.7,5.07ZM71,13.6a20.41,20.41,0,0,1,.85,13,3,3,0,0,1-1.8,1.7,11.27,11.27,0,0,1-8.87-1c-2-1-3.77-2.26-6.12-3.68,1.64-.1,2.78-.13,3.9-.24,4.29-.43,6.66-2.34,6.7-6,0-3.3-.54-6.61-.85-10C68.25,8.25,69.92,10.77,71,13.6ZM54.42,8.28c2.83-4.78,5.71-6.72,10.77-7-4.43,3.1-7.52,6.52-8.73,11-.43,1.61,0,4-1.12,4.72-2.54,1.57-5.8,2.3-9,3.14,4.1-3.4,5.68-7.83,8.06-11.86Zm-.8,24.25c2.8,5.06,4.68,10.49,6.86,15.79s4.09,10.89,9.4,14.89a8.15,8.15,0,0,1-7.78-2.06c-2-1.76-3.86-3.69-5.94-5.71-2.27,3.66-4.65,7-9.68,7.73-1.35.19-2.83-.34-4.26-.54L42.4,62c4-.7,6.48-2.81,7.11-6.31.58-3.24.46-6.53-3.14-8.48-4.79-2.61-9-.84-12.8,2.09C32.24,42.5,39.73,39,50.64,41c.55-5.24-5.44-10.49-16.7-14.61,7.08-3.08,16-.58,19.66,6.08ZM37.79,34.31,25.19,37a6.48,6.48,0,0,1,4.61-5.44c2.58-.71,5.56.27,8,2.78Zm-16-11a31.56,31.56,0,0,1,5.28,1.62c2.38.84,2.67,1.57,1.34,3.44a23,23,0,0,1-2.08,2.22c-3.4-2.32-6.47-5-11.37-4.82,1.28-3.09,3.92-2.93,6.84-2.46ZM12.17,57.51c-.78,5.78-.07,11.9-5,16.77C8.59,68.62,8.19,62.59,12.17,57.51ZM1.75,84.7a47.87,47.87,0,0,0,1.57,6.24c1,2.61,3.89,3.21,6.28,1.35a36.84,36.84,0,0,0,3.73-3.87c1.07-1.1,2.19-2.17,3.6-3.56,2,6.6-2.78,11.52-3.9,17.07-9.2-.87-14-7.33-11.28-17.25ZM29,181.7C15.09,184,5.41,178.09,2.7,165.62c-2.37-10.93-.44-21.42,5.24-31.34a27.44,27.44,0,0,1,10.9-10.86c1.42-.76,3-1.84,5.12-.77-5,3-9.25,6.57-12,11.1C5.35,144.6,1.59,156,5.89,168.14a22.11,22.11,0,0,0,5.57,8.49c5.29,5,14.14,5.14,21.28.92.13,2.41-1,3.66-3.72,4.11Zm-1.07-8.19c-2.85.58-6.13.14-9.09-.37-1.59-.28-2.91-1.69-4.36-2.6l.45-.81c7.28,1.77,12.49-2,18.06-4.89C34.89,171,34.57,172.2,27.94,173.51ZM37,156.38a51.47,51.47,0,0,1-8.58,6.23c-5.66,3-13.63.46-16-4.64,2.64.16,5.34.53,8,.43,3.93-.16,4.36-.75,4.44-4.09.2-8.7,4.39-15.57,12.91-20.53,7.21-4.2,15.24-6.54,23.73-7.89a9.46,9.46,0,0,1,1.07-.06c-3.64,8.09-7.22,16-10.88,24.19C45.89,150.19,41.23,152.86,37,156.38Zm32.2,23.28-.48.41a38,38,0,0,1-3-2.82c-8.53-9.85-10.41-20.8-7.1-32.5,2.81-9.9,8.85-18.37,16.73-25.88,11.57-11,24.59-20.53,41.12-25.72,9-2.83,18.42-4.71,27.52-7.33,5.26-1.51,10.31-3.58,15.39-5.54,3.67-1.41,6.36-3.7,6.16-7.38s-2.88-5.79-6.88-6.83c-.14,0-.24-.18-.53-.42,3-1,5.45,0,7.66,1.35a12.8,12.8,0,0,1,6.61,10.21c.14,1.56.8,2.27,2.37,2.9,3.83,1.53,7.23,3.59,9.54,7-.7-.24-1.39-.5-2.11-.7-2.6-.72-5.22-1.41-7.82-2.15-2.77-.78-4.48.08-5.28,2.37,4,1.37,8.2,2.53,12.08,4.17s7.3,3.71,11.18,5.72c-7.6-.94-14.67-2.26-21.8-2.57a143.23,143.23,0,0,0-21.32.78,189.21,189.21,0,0,0-21.24,4c7.72,6.58,17.09,11.66,21.32,21.42-1.55-.91-2.55-1.46-3.51-2.06-8.66-5.4-17.73-10.08-28.52-11.69a8.86,8.86,0,0,0-4,.13c-21.38,7.74-37.61,20-46.27,38.72-5.16,11.11-4.46,22.18,1.51,33,.21.4.42.8.62,1.21,0,0,0,.12,0,.19Zm12,3.28c-6.43-1.07-11.55-7.27-10.59-13.27,5.57,4.57,10.29,10,18.83,10.24-2,2.73-4.62,3.65-8.3,3Zm20.13-13.07c-.51,3.63-1.87,4.67-6.15,5.42-6.83,1.19-15.76-3.85-16.87-9.54a8.3,8.3,0,0,1,0-1.41c4.71,4.9,10.27,6.11,16.44,3.34,5.09-2.29,6-6.4,5.64-11a24,24,0,0,1,1.31,4.94,44.63,44.63,0,0,1-.43,8.25Zm128.88,14.49c-19.77-11.42-41.78-20-59.48-34.13a117.22,117.22,0,0,0,57.67,7.57c-2.38,6.38-9.41,8.53-15.15,12.66l17.57,13.25Zm-30.44-37.48A157.9,157.9,0,0,1,163,144.29c-12-2.13-24.12-4-36.3-5.14-12.63-1.21-24.5,1.12-34.43,8.55,6.16-10.21,17-14.2,29.75-16-3.54-6.3-7.91-12.33-5.32-20,1.91,2.94,3.38,5.63,5.29,8.07,7,8.87,17,13.86,29,16.19a71,71,0,0,0,27.06.35,41.71,41.71,0,0,0,21.25-11c7.21-6.87,11.74-14.84,13.16-24a5.85,5.85,0,0,1,.29-1.07,2.75,2.75,0,0,1,.36-.53l1-.07c.82,3.91,1.91,7.79,2.4,11.73A33.66,33.66,0,0,1,214.63,127c-.53,1.47-.1,2.21,1.32,3,4.2,2.53,8.12,5.33,10.8,9.47l-15.1-5.61-2.47,3.35c8.12,4.29,18.5,5.25,24,12.83-10.82-4.25-22.16-3.81-33.45-3.16Zm34-51.63c1.87-16.64-.5-32.22-12.82-46.39,2.4,1.08,4.38,2,6.35,2.86,2.49,1.14,4.89,2.48,7.5,3.38,1.93.66,2.79,1.54,3,3.28,1.62,12,1.31,23.78-3.35,35.3-.22.52-.45,1-.7,1.57Zm5.3,17.7a6.27,6.27,0,0,1,1.3-2c-.48,3.09.41,5.61,3.61,7.24,3.41,1.73,6.73,1.18,10-.47a15,15,0,0,0,8.35-11c1.38-6.87.2-13.62-2-20.17-2.34-6.86-5.31-13.58-8-20.35-.43-1.08-1-2.12-1.48-3.18l.49-.45c3.91,1.89,7.9,3.68,11.72,5.7,3.42,1.81,6.7,3.84,9.95,5.87.6.38,1.29,1.38,1.1,1.84-3,7.23-1.46,14.44-.24,21.7,1.1,6.5,2.89,13.07,2.64,19.56-.73,19.33-10.34,34.58-30.65,44.28-.52.25-1.06.47-1.61.68a5.32,5.32,0,0,1-1.13.06c9.25-6.39,16.32-13.64,20.54-22.7a46.15,46.15,0,0,0,4.13-15.93c-4,1.44-8,3.37-12.36,4.27-10.74,2.19-19.52-6-16.38-14.9Zm23.21,80.19c-3.8,2.73-7.7,3.26-12,.94-3.33-1.78-6.75-3.43-10.33-5.24a41.3,41.3,0,0,0,21.44-14A152.58,152.58,0,0,0,270.72,162c5.3-8.15,10.3-16.55,18-23.45,5-4.49,10.43-8.5,17.42-10.66a2.8,2.8,0,0,1,1-.1c-11.68,6.2-15.79,16.48-20.12,26.64-2.85,6.66-5.43,13.41-8.55,20a49,49,0,0,1-16.15,18.75Zm35,11.87c-5.56-.36-11.13-.49-16.68-.88a12,12,0,0,1-4.21-1.49c12.07-2.1,21-8.65,30.09-14.79,7.55-5.07,14.57-8.13,20.79-8.78-10.28,6.34-16.58,15.67-24.57,23.73a6.38,6.38,0,0,1-5.41,2.21Zm15.58,1.26a26.79,26.79,0,0,1-3.35-.22c3-1.52,5.41-2.68,7.75-4,13.8-7.6,23.6-17.77,27.77-31.51,2.68-8.84,2.22-17.68-.39-26.48-2.31-7.8-6.57-14.83-11.62-21.56-3.48-4.64-6.86-9.35-10.28-14l.51-.35c2,1.9,4.4,3.63,6.12,5.73,6.28,7.74,12.48,15.53,18.48,23.43a61.52,61.52,0,0,1,10.25,21.2,45.71,45.71,0,0,1-2.72,32.3c-.37.81-.7,1.63-1.07,2.5,7.71,2.86,16.7,3.62,21.82,10.32a58.08,58.08,0,0,0-21.94-2c-7.5.76-14.9,2.18-22.38,3-6.28.78-12.62,1.15-18.94,1.64ZM508.71,352.41c-1.06,5.4-3.9,6.66-9.47,4.45-.59-.23-1.17-.49-1.89-.79,1.33,3.87,4.08,5.5,9.6,5.73.46,2.62-.65,4.68-3.12,6.22-4.7,2.92-11.18,2.51-16.22-1C481,362.51,478,356.26,476,349.58c-1-3.46-1.63-7-2.36-10.54-2.43-11.72-8.81-22-15.32-32.37-6.32-10-16-17.26-25.87-24.42-20-14.42-37.62-30.59-52.3-49.11a79.93,79.93,0,0,0-32.4-24.5,2.54,2.54,0,0,1-1.24-1c15.68-1.12,31,.76,46.88,3.82.37-2.61.93-5.1,1.06-7.6.4-7.78-2.2-15.2-3.89-22.73-1.39-6.2-2.54-12.42-.76-18.71.18-.63.42-1.24.63-1.86,1.47,7.37,4.61,14.2,8.05,21,1.67,3.28,3.27,6.6,4.72,10a38.61,38.61,0,0,1,3,20.51c-.25,2.06.57,3.11,2.76,3.8,4,1.27,8,2.7,12.47,4.25.17-3.53.38-6.77.48-10,.16-5.41,0-10.83.48-16.21.22-2.33,1.75-4.58,2.69-6.86l1,.18a30.16,30.16,0,0,0,.7,4c1.81,5.94,3.76,11.85,5.58,17.79a26.5,26.5,0,0,1,.32,15,2.29,2.29,0,0,0,.85,2.1c3.9,2.51,7.92,4.89,12.17,7.47a23.56,23.56,0,0,0,6.06-12.89c1.24-8.15-1.22-16-2.91-23.89-1.38-6.39-2.67-12.81-3.42-19.27-.4-3.33.45-6.77,1.2-10.17,1.19,9.63,6.52,18,10.67,26.66,4.42,9.23,4.8,18.72,3,28.46-1.19,6.63-2.71,13.28-1.44,20.06a3.62,3.62,0,0,0,.2,1.08c2.35,4.47,2.59,9.25,3.29,14,1.79,12.22,9.27,22,19.41,30.44,2.7,2.24,4,4.24,3.65,7.64-.83,8.62,3.2,16.3,7.75,23.77,4.23,6.93,8.68,13.77,12.55,20.85,1.63,3,2.06,6.45,2.94,9.72A5.37,5.37,0,0,1,508.71,352.41Zm7.65-50.36c-5.5-1.52-13.54-8-20.22-16.81,2.4,1,4.72,2.24,7.22,3a32.84,32.84,0,0,0,7.83,1.73c3.36.21,4.59-.94,4.47-3.77s-.67-5.75-1-8.5c5.78,6.11,6.78,19.25,1.7,24.35ZM568,362.76c-8-2.78-17-4.93-21.38-12.27-2.62-4.34-4.92-8.83-7.08-13.35-2.42-5.07-4.32-10.32-6.82-15.36-1.48-3-3.68-5.72-5.56-8.56l.31-.56a7.91,7.91,0,0,1,2.23,1.21c3.35,4,6.94,7.81,9.76,12,3.56,5.33,6.32,11,9.67,16.46A35.43,35.43,0,0,0,558.86,353c0-2.3-2.38-4.34-.32-6.58,5.55,6.72,10.46,9.35,21.19,9.43.66,5.22-7.11,8.56-11.77,6.95Zm12.65-14.36a13.8,13.8,0,0,1-13.13.09c-1.78-1-2.61-2.58-2.47-5.41,1.58.83,2.8,1.41,3.93,2.09,2.65,1.58,5.29.86,5.28-1.84A11.25,11.25,0,0,0,572.1,337c-4.43-6.1-10.86-10.69-17-15.44s-12.43-9.66-17.14-15.7a32.51,32.51,0,0,1-7-17,7.1,7.1,0,0,0-2.36-4.67,50.1,50.1,0,0,1-4.2-4.42,14.71,14.71,0,0,1-1.55-2.87l.59-.61a33.84,33.84,0,0,1,4.14,1.68c2.57,1.45,5,3,7.49,4.63a2.07,2.07,0,0,1,.84,1.22c2.38,13.56,11.65,23.6,22.88,32.68,7.72,6.25,15.47,12.5,20.82,20.49a55.58,55.58,0,0,1,3.17,5.5c1.12,2.32.3,4.43-2.17,5.9Z" transform="translate(-0.99 -1.28)"/><path d="M92.12,378.32a6.94,6.94,0,0,0-.72-.81A6.94,6.94,0,0,1,92.12,378.32Z" transform="translate(-0.99 -1.28)"/><path d="M91,377.11c.12.14.24.27.37.4C91.26,377.38,91.14,377.25,91,377.11Z" transform="translate(-0.99 -1.28)"/><path class="cls-2" d="M545.56,382c.75-1.21.68-2.36-.83-3.12l-1.1.11.48,3.48C544.61,382.28,545.38,382.25,545.56,382Z" transform="translate(-0.99 -1.28)"/><path class="cls-2" d="M56.17,379.05H56.1v.09Z" transform="translate(-0.99 -1.28)"/><path class="cls-2" d="M69.4,379.16l-.34-.25v.49Z" transform="translate(-0.99 -1.28)"/><path class="cls-2" d="M31.11,379.1l-.17-.13a1.13,1.13,0,0,1,0,.26Z" transform="translate(-0.99 -1.28)"/><path class="cls-2" d="M87,379.22v.11l.09-.05Z" transform="translate(-0.99 -1.28)"/></svg>